<svg width="24" height="24" viewBox="0 0 24 24" fill="none" xmlns="http://www.w3.org/2000/svg">
<path fill-rule="evenodd" clip-rule="evenodd" d="M12.607 3.27145L14.057 2.56245C14.726 2.23545 15.535 2.49745 15.884 3.15645L16.641 4.58245C16.841 4.95845 17.203 5.22145 17.623 5.29545L19.213 5.57445C19.947 5.70345 20.446 6.39045 20.342 7.12845L20.116 8.72645C20.056 9.14845 20.195 9.57445 20.491 9.88045L21.613 11.0404C22.131 11.5754 22.131 12.4254 21.613 12.9614L20.491 14.1214C20.195 14.4274 20.056 14.8534 20.116 15.2754L20.342 16.8734C20.446 17.6114 19.947 18.2984 19.213 18.4274L17.623 18.7064C17.203 18.7804 16.841 19.0434 16.641 19.4194L15.884 20.8454C15.535 21.5034 14.727 21.7664 14.057 21.4394L12.607 20.7304C12.224 20.5434 11.777 20.5434 11.394 20.7304L9.94401 21.4394C9.27501 21.7664 8.46601 21.5044 8.11701 20.8454L7.36001 19.4184C7.16001 19.0424 6.79801 18.7794 6.37801 18.7054L4.78801 18.4264C4.05401 18.2974 3.55501 17.6104 3.65901 16.8724L3.88501 15.2744C3.94501 14.8524 3.80601 14.4264 3.51001 14.1204L2.38801 12.9604C1.87001 12.4254 1.87001 11.5754 2.38801 11.0394L3.51001 9.87945C3.80601 9.57345 3.94501 9.14745 3.88501 8.72545L3.66001 7.12745C3.55501 6.39045 4.05501 5.70245 4.78901 5.57445L6.37901 5.29545C6.79801 5.22145 7.16001 4.95845 7.36001 4.58245L8.11701 3.15645C8.46601 2.49845 9.27401 2.23545 9.94401 2.56245L11.394 3.27145C11.776 3.45845 12.224 3.45845 12.607 3.27145Z" stroke="#65A30D" stroke-width="1.5" stroke-linecap="round" stroke-linejoin="round"/>
<path d="M8.22095 10.46C8.37995 9.91 8.86595 9.5 9.46695 9.5C10.1949 9.5 10.7859 10.09 10.7859 10.819C10.7859 11.471 10.2569 12 9.60495 12C10.2569 12 10.7859 12.529 10.7859 13.181C10.7859 13.909 10.1959 14.5 9.46695 14.5C8.86595 14.5 8.37995 14.09 8.22095 13.54" stroke="#65A30D" stroke-width="1.5" stroke-linecap="round" stroke-linejoin="round"/>
<path fill-rule="evenodd" clip-rule="evenodd" d="M14.533 14.501V14.501C13.845 14.501 13.287 13.943 13.287 13.255V10.748C13.287 10.06 13.845 9.50195 14.533 9.50195V9.50195C15.221 9.50195 15.779 10.06 15.779 10.748V13.255C15.779 13.943 15.221 14.501 14.533 14.501Z" stroke="#65A30D" stroke-width="1.5" stroke-linecap="round" stroke-linejoin="round"/>
</svg>
