<svg width="24" height="24" viewBox="0 0 24 24" fill="none" xmlns="http://www.w3.org/2000/svg">
<path d="M13.53 7.51953L9.46997 10.5595" stroke="#363636" stroke-width="1.5" stroke-linecap="round" stroke-linejoin="round"/>
<path d="M16.4048 4.64203C17.1983 5.43558 17.1983 6.72217 16.4048 7.51571C15.6112 8.30926 14.3246 8.30926 13.5311 7.51571C12.7375 6.72217 12.7375 5.43557 13.5311 4.64203C14.3246 3.84849 15.6112 3.84849 16.4048 4.64203" stroke="#363636" stroke-width="1.5" stroke-linecap="round" stroke-linejoin="round"/>
<path d="M13.53 16.4795L9.46997 13.4395" stroke="#363636" stroke-width="1.5" stroke-linecap="round" stroke-linejoin="round"/>
<path d="M16.4048 16.4838C17.1983 17.2774 17.1983 18.564 16.4048 19.3575C15.6112 20.1511 14.3246 20.1511 13.5311 19.3575C12.7375 18.564 12.7375 17.2774 13.5311 16.4838C14.3246 15.6903 15.6112 15.6903 16.4048 16.4838" stroke="#363636" stroke-width="1.5" stroke-linecap="round" stroke-linejoin="round"/>
<path d="M9.46542 10.5653C10.2582 11.358 10.2582 12.6434 9.46542 13.4361C8.67266 14.2289 7.38733 14.2289 6.59457 13.4361C5.80181 12.6434 5.80181 11.358 6.59457 10.5653C7.38734 9.77251 8.67266 9.77251 9.46542 10.5653" stroke="#363636" stroke-width="1.5" stroke-linecap="round" stroke-linejoin="round"/>
</svg>
