<svg width="242" height="150" viewBox="0 0 242 150" fill="none" xmlns="http://www.w3.org/2000/svg">
<path d="M26.4494 35.9961L27.353 46.9968C27.353 46.9968 19.5116 45.7117 17.4332 49.8717C15.3549 54.0317 15.3516 64.9052 20.2077 70.685C23.705 74.8517 27.4433 73.1349 29.2606 71.8497L30.2044 83.8678C30.2044 88.3558 38.8256 96.6223 49.4615 96.6223C60.0975 96.6223 68.7187 88.3558 68.7187 83.8678L72.4704 36.0095L26.4494 35.9961ZM22.9821 65.8356C19.9701 63.2921 21.5932 52.191 22.9821 50.8054C24.0096 49.7746 26.4393 50.5276 27.6241 50.9861L28.8657 66.8162C27.3162 67.2011 24.873 67.432 22.9821 65.8356Z" fill="#263238"/>
<path d="M49.4617 96.7873C39.1136 96.7873 30.0507 88.735 30.0507 83.8655L29.1303 72.1519C27.1223 73.4906 23.5044 74.8595 20.0941 70.7965C15.3417 65.1338 15.1209 54.1565 17.2996 49.7991C19.244 45.9135 25.884 46.6197 27.1858 46.787L26.2856 35.8164H72.6513V35.9971L68.8996 83.8555C68.8862 88.735 59.8065 96.7873 49.4617 96.7873ZM29.4047 71.5395L30.3686 83.8521C30.3686 88.0623 38.625 96.4526 49.4617 96.4526C60.2985 96.4526 68.5382 88.0623 68.5382 83.8655L72.2765 36.1611H26.6336L27.5373 47.2054L27.3231 47.1719C27.2461 47.1719 19.5854 45.9537 17.5807 49.9597C15.4421 54.2369 15.6597 65.0201 20.3351 70.589C23.7186 74.6051 27.3197 73.0288 29.1638 71.7236L29.4047 71.5395ZM26.6738 67.2624C25.2911 67.2996 23.9417 66.8347 22.8752 65.9538C21.5767 64.8594 21.2019 62.3694 21.1349 60.4752C20.9643 56.3788 21.9582 51.5829 22.8652 50.6759C23.9395 49.5983 26.3458 50.3044 27.6845 50.8198L27.7849 50.8567L29.0433 66.921L28.9061 66.9545C28.1775 67.1487 27.4277 67.2521 26.6738 67.2624ZM23.0894 65.6994C24.8398 67.1787 27.0754 67.0616 28.6885 66.6767L27.467 51.1077C26.396 50.706 24.0499 49.9798 23.1162 50.9269C22.2494 51.777 21.3056 56.5495 21.4696 60.4785C21.5767 63.099 22.139 64.9096 23.0894 65.7162V65.6994Z" fill="#263238"/>
<path d="M49.4618 45.7096C62.1693 45.7096 72.4707 41.3613 72.4707 35.9974C72.4707 30.6335 62.1693 26.2852 49.4618 26.2852C36.7544 26.2852 26.453 30.6335 26.453 35.9974C26.453 41.3613 36.7544 45.7096 49.4618 45.7096Z" fill="white"/>
<path d="M49.4615 45.8758C36.6803 45.8758 26.282 41.4413 26.282 35.9929C26.282 30.5444 36.6803 26.1133 49.4615 26.1133C62.2427 26.1133 72.6377 30.5477 72.6377 35.9929C72.6377 41.438 62.2293 45.8758 49.4615 45.8758ZM49.4615 26.448C36.8644 26.448 26.6167 30.7318 26.6167 35.9929C26.6167 41.2539 36.8644 45.5411 49.4615 45.5411C62.0586 45.5411 72.303 41.2573 72.303 35.9929C72.303 30.7284 62.0553 26.448 49.4615 26.448Z" fill="#263238"/>
<path d="M49.4616 44.6341C60.768 44.6341 69.9336 40.7653 69.9336 35.9928C69.9336 31.2204 60.768 27.3516 49.4616 27.3516C38.1553 27.3516 28.9896 31.2204 28.9896 35.9928C28.9896 40.7653 38.1553 44.6341 49.4616 44.6341Z" fill="white"/>
<path d="M49.4618 44.8042C38.0829 44.8042 28.8191 40.8517 28.8191 35.9922C28.8191 31.1327 38.0795 27.1836 49.4618 27.1836C60.844 27.1836 70.1011 31.1361 70.1011 35.9922C70.1011 40.8483 60.8407 44.8042 49.4618 44.8042ZM49.4618 27.5183C38.2636 27.5183 29.1538 31.3202 29.1538 35.9922C29.1538 40.6643 38.2636 44.4695 49.4618 44.4695C60.66 44.4695 69.7664 40.6676 69.7664 35.9922C69.7664 31.3168 60.6566 27.5183 49.4618 27.5183Z" fill="#263238"/>
<path d="M49.4617 44.6351C57.4059 44.6351 63.846 43.5188 63.846 42.1418C63.846 40.7647 57.4059 39.6484 49.4617 39.6484C41.5175 39.6484 35.0774 40.7647 35.0774 42.1418C35.0774 43.5188 41.5175 44.6351 49.4617 44.6351Z" fill="#FDBDB3"/>
<path d="M49.4617 44.8012C44.0199 44.8012 38.8893 43.911 35.0105 42.2912L34.6423 42.1372L35.0105 41.9833C38.8893 40.3668 44.0199 39.4766 49.4617 39.4766C54.9035 39.4766 60.034 40.3668 63.9096 41.9833L64.2811 42.1372L63.9096 42.2912C60.034 43.911 54.9001 44.8012 49.4617 44.8012ZM35.5192 42.1238C39.311 43.6265 44.2408 44.4666 49.4617 44.4666C54.6826 44.4666 59.6124 43.6399 63.4009 42.1238C59.6124 40.6211 54.6826 39.7811 49.4617 39.7811C44.2408 39.7811 39.311 40.6345 35.5192 42.1372V42.1238Z" fill="#263238"/>
<path d="M130.838 61.5655C130.838 61.5655 141.782 87.5563 144.416 88.9318C147.05 90.3073 224.266 83.6038 224.266 83.6038L222.073 81.164L221.97 64.3433L224.858 64.2161L195.36 25.3672L128.706 30.2367C128.706 30.2367 125.148 32.6999 124.653 34.8552C124.158 37.0105 124.285 40.2334 124.285 40.2334L130.838 61.5655Z" fill="#263238"/>
<path d="M146.996 89.2658C145.527 89.2658 144.6 89.2056 144.342 89.0717C141.685 87.6862 131.132 62.686 130.687 61.6285V61.6117L124.118 40.2696V40.2462C124.118 40.2127 124.014 36.963 124.489 34.8244C124.964 32.6859 128.462 30.2059 128.612 30.1022L128.649 30.0788H128.693L195.43 25.1992L195.483 25.2728L225.182 64.3728L222.137 64.51L222.241 81.1065L224.613 83.7471L224.279 83.7738C221.431 84.0215 160.701 89.2658 146.996 89.2658ZM130.999 61.4879C134.777 70.4605 142.454 87.6962 144.496 88.7605C146.537 89.8247 197.14 85.7652 223.917 83.4425L221.909 81.2069V81.1433L221.806 64.162L224.533 64.0415L195.283 25.5473L128.766 30.4034C128.388 30.6745 125.249 32.9603 124.817 34.8981C124.369 36.9061 124.442 39.9182 124.449 40.2127L130.999 61.4879Z" fill="#263238"/>
<path d="M221.969 64.3477L146.233 70.4454C145.088 71.2005 144.124 72.1987 143.41 73.369C142.696 74.5393 142.248 75.8528 142.1 77.2159C141.544 81.9448 143.455 86.7474 144.877 87.4368C145.914 87.8802 147.021 88.133 148.147 88.1831L222.073 81.155L221.969 64.3477Z" fill="#E0E0E0"/>
<path d="M148.164 88.3543C147.011 88.3058 145.877 88.0472 144.817 87.5912C143.288 86.8483 141.394 81.9018 141.946 77.2163C142.101 75.8291 142.558 74.4926 143.284 73.3005C144.01 72.1084 144.988 71.0896 146.149 70.3154L146.22 70.2919L222.137 64.1641L222.244 81.3161L222.09 81.3328L148.164 88.3543ZM146.27 70.6166C145.161 71.3659 144.228 72.3466 143.535 73.4911C142.841 74.6356 142.404 75.9168 142.254 77.2465C141.695 82.0256 143.686 86.6876 144.931 87.2867C145.946 87.7197 147.031 87.9668 148.134 88.0163L221.886 81.0149L221.782 64.5255L146.27 70.6166Z" fill="#263238"/>
<path d="M144.894 5.64363L114.342 47.8293C114.342 47.8293 112.669 49.4692 112.756 53.4886C112.843 57.508 113.04 64.0643 114.235 64.5328C115.43 65.0014 203.837 71.6949 203.837 71.6949L224.252 24.5494L222.659 23.88L223.208 12.2568L224.547 8.49505L147.14 4.86719L144.894 5.64363Z" fill="#031B89"/>
<path d="M203.944 71.861H203.824C200.212 71.5899 115.383 65.1441 114.178 64.6823C113.211 64.3108 112.735 60.964 112.588 53.4941C112.508 49.4479 114.154 47.7812 114.225 47.7109L144.79 5.50188L147.113 4.69531H147.146L224.767 8.33656L223.375 12.2891L222.826 23.755L224.466 24.4578L224.399 24.6151L203.944 71.861ZM144.998 5.783L114.476 47.9251C114.442 47.962 112.846 49.5985 112.923 53.4841C112.973 56.0644 113.13 63.9192 114.295 64.3677C115.443 64.7392 173.221 69.2004 203.73 71.5263L224.028 24.6352L222.482 23.9658L223.051 12.1954L224.302 8.64112L147.163 5.03333L144.998 5.783Z" fill="#263238"/>
<path d="M117.09 49.0279C117.09 49.0279 114.325 48.1711 113.539 50.8284C112.752 53.4857 114.687 63.1143 114.687 63.1143C114.687 63.1143 116.337 63.8037 117.096 63.8272C117.856 63.8506 202.93 69.4664 202.93 69.4664L222.653 23.8637L223.208 12.2539L204.339 53.1176L117.09 49.0279Z" fill="white"/>
<path d="M203.037 69.6428H202.92C202.07 69.586 117.836 64.0237 117.089 64.0036C116.343 63.9835 114.69 63.3075 114.619 63.2807L114.539 63.2439L114.522 63.1569C114.442 62.762 112.591 53.4513 113.381 50.7907C113.469 50.4296 113.629 50.0903 113.853 49.7938C114.077 49.4973 114.36 49.25 114.683 49.0671C115.445 48.7118 116.31 48.6418 117.119 48.8696L204.235 52.956L223.415 11.4062L222.806 23.9297L203.037 69.6428ZM114.83 62.9962C115.165 63.1334 116.474 63.6421 117.099 63.6656C117.846 63.6857 197.95 68.9768 202.823 69.2981L222.488 23.826L223 13.1164L204.446 53.294H204.332L117.063 49.1943H117.039C116.31 48.9873 115.531 49.0454 114.84 49.3583C114.557 49.5218 114.31 49.741 114.114 50.0028C113.918 50.2645 113.777 50.5633 113.699 50.881C112.976 53.3308 114.643 62.0257 114.83 62.9962Z" fill="#263238"/>
<path d="M202.388 53.0334L117.09 49.034C117.09 49.034 114.325 48.1773 113.539 50.8346C112.752 53.4919 114.687 63.1204 114.687 63.1204C114.687 63.1204 116.337 63.8099 117.096 63.8333C117.856 63.8567 202.93 69.4726 202.93 69.4726L202.813 53.4082L202.388 53.0334Z" fill="#E0E0E0"/>
<path d="M203.1 69.6429H202.92C202.07 69.586 117.836 64.0237 117.089 64.0037C116.343 63.9836 114.69 63.3075 114.619 63.2808L114.539 63.244L114.522 63.1569C114.442 62.762 112.591 53.4514 113.381 50.7907C113.469 50.4296 113.629 50.0903 113.853 49.7939C114.077 49.4974 114.36 49.2501 114.683 49.0672C115.445 48.7119 116.31 48.6418 117.119 48.8697L202.461 52.8858L202.987 53.3343V53.4112L203.1 69.6429ZM114.83 62.993C115.165 63.1302 116.474 63.6389 117.099 63.6623C117.842 63.6824 197.311 68.9301 202.776 69.2882L202.659 53.4715L202.324 53.1937L117.063 49.191H117.039C116.31 48.984 115.531 49.0421 114.84 49.355C114.557 49.5185 114.31 49.7378 114.114 49.9995C113.918 50.2612 113.777 50.56 113.699 50.8778C112.976 53.3276 114.643 62.0224 114.83 62.993Z" fill="#263238"/>
<path d="M128.548 135.448C128.548 135.448 131.674 139.956 134.941 139.886C156.715 139.411 194.265 149.839 198.622 149.839C202.98 149.839 206.22 149.454 206.22 148.527C206.22 147.6 190.895 86.9471 190.895 86.9471L187.856 86.0234L198.291 145.214C198.291 145.214 185.343 143.366 159.184 139.006C133.026 134.645 134.084 130.973 130.925 131.623C127.765 132.272 128.548 135.448 128.548 135.448Z" fill="#031B89"/>
<path d="M198.623 150C197.304 150 193.02 149.066 187.093 147.775C173.291 144.763 150.182 139.716 134.944 140.077H134.854C131.567 140.077 128.532 135.753 128.405 135.569L128.378 135.512C128.378 135.452 128.016 134.013 128.759 132.835C129.002 132.477 129.316 132.173 129.682 131.943C130.047 131.712 130.457 131.56 130.885 131.496C132.022 131.262 132.645 131.556 134.004 132.206C136.597 133.44 141.992 136.007 159.205 138.879C183.207 142.895 196.233 144.786 198.08 145.054L187.635 85.8164L191.025 86.8505L191.049 86.9409C191.675 89.4175 206.38 147.617 206.38 148.551C206.38 149.485 203.776 150 198.623 150ZM136.44 139.712C151.708 139.712 173.793 144.528 187.163 147.447C193.07 148.735 197.337 149.665 198.623 149.665C204.101 149.665 206.052 149.076 206.052 148.521C206.005 147.621 196.039 108.005 190.744 87.0848L188.067 86.2682L198.499 145.418L198.268 145.385C198.141 145.365 185.018 143.484 159.158 139.173C141.895 136.299 136.474 133.715 133.866 132.48C132.528 131.847 131.986 131.583 130.962 131.811C130.577 131.868 130.208 132.004 129.878 132.211C129.549 132.417 129.266 132.69 129.047 133.012C128.653 133.745 128.534 134.595 128.712 135.408C128.974 135.773 131.942 139.813 134.947 139.759C135.429 139.716 135.931 139.712 136.44 139.712Z" fill="#263238"/>
<path d="M201.728 148.257C197.237 147.992 188.499 145.72 166.922 141.292C145.346 136.864 129.191 134.184 129.191 134.184L128.736 135.74C129.482 136.72 132.153 139.957 134.924 139.896C156.715 139.411 194.265 149.84 198.623 149.84C202.98 149.84 206.22 149.455 206.22 148.528C206.22 148.447 203.967 148.39 201.728 148.257Z" fill="#263238"/>
<path d="M198.622 149.995C197.304 149.995 193.02 149.061 187.093 147.769C173.291 144.757 150.188 139.713 134.944 140.072C132.086 140.145 129.385 136.855 128.619 135.848L128.568 135.781L129.087 134.004L129.234 134.027C129.395 134.054 145.66 136.762 166.972 141.136C174.697 142.722 180.744 144.024 185.6 145.072C194.155 146.916 198.867 147.93 201.738 148.084C202.592 148.134 203.452 148.174 204.185 148.207C206.387 148.311 206.387 148.311 206.387 148.515C206.387 149.499 203.776 149.995 198.622 149.995ZM136.44 139.707C151.708 139.707 173.793 144.523 187.163 147.441C193.07 148.73 197.337 149.66 198.622 149.66C203.679 149.66 205.731 149.158 206.015 148.656C205.707 148.622 204.954 148.589 204.168 148.552C203.435 148.519 202.575 148.479 201.718 148.428C198.823 148.258 194.101 147.24 185.53 145.396C180.674 144.349 174.626 143.053 166.905 141.46C146.674 137.307 130.998 134.66 129.325 134.379L128.937 135.717C129.733 136.752 132.26 139.734 134.864 139.734H134.937C135.429 139.71 135.931 139.707 136.44 139.707Z" fill="#263238"/>
<path d="M57.9922 84.5742C57.9922 84.5742 56.4059 85.103 56.1448 86.2911C55.8838 87.4792 40.6862 148.39 42.1387 148.54C43.5912 148.691 123.659 149.21 124.582 148.276C125.506 147.342 128.548 135.445 128.548 135.445L121.801 144.571L52.3061 142.854L60.6295 86.0401L57.9922 84.5742Z" fill="#031B89"/>
<path d="M92.3201 148.999C69.3649 148.999 42.5575 148.748 42.1191 148.708C42.0862 148.705 42.0544 148.695 42.0261 148.678C41.9977 148.662 41.9734 148.639 41.9551 148.611C41.7141 148.277 40.9778 147.239 55.2784 89.1296C55.6934 87.4562 55.9478 86.4188 55.9779 86.2748C56.259 85.0098 57.8688 84.4576 57.9358 84.4375L58.006 84.4141L60.814 85.9569L52.504 142.698L121.728 144.411L128.92 134.675L128.709 135.505C128.398 136.727 125.634 147.467 124.693 148.397C124.238 148.862 109.335 148.999 92.3201 148.999ZM42.2195 148.38C44.8734 148.454 122.735 149.026 124.486 148.146C125.155 147.477 127.2 139.987 128.167 136.255L121.889 144.749H121.802L52.1158 143.029L52.1425 142.841L60.4492 86.141L57.9759 84.7822C57.6814 84.896 56.5134 85.4047 56.3025 86.3518C56.2724 86.4991 56.0214 87.5198 55.6031 89.2133C43.5046 138.387 41.9885 147.5 42.2195 148.38Z" fill="#263238"/>
<path d="M124.583 148.271C125.51 147.344 128.549 135.453 128.549 135.453L128.1 136.056L123.923 146.822L42.9323 147.866L42.1257 148.536C43.5916 148.666 123.659 149.195 124.583 148.271Z" fill="#263238"/>
<path d="M92.32 148.996C69.3647 148.996 42.5573 148.745 42.1189 148.705L41.7173 148.668L42.8819 147.697H42.9422L123.809 146.657L127.966 135.964L128.92 134.672L128.709 135.502C128.398 136.723 125.633 147.463 124.693 148.394C124.238 148.859 109.338 148.996 92.32 148.996ZM42.5874 148.383C48.9462 148.481 122.538 148.999 124.475 148.146C125.145 147.42 127.099 140.345 128.093 136.546L124.037 146.988H123.927L43.0091 148.032L42.5874 148.383Z" fill="#263238"/>
<path d="M59.8431 83.7985L57.9924 84.5917L45.1777 146.557L123.923 146.821L129.208 133.213L55.218 136.781L62.0888 83.668L59.8431 83.7985Z" fill="white"/>
<path d="M124.037 146.986H123.923L44.9705 146.722L57.8487 84.4722L59.8333 83.6322L62.2798 83.4883L62.2564 83.6891L55.4089 136.601L129.459 133.033L124.037 146.986ZM45.3888 146.39L123.816 146.651L128.967 133.391L55.0274 136.956L55.0542 136.758L61.8949 83.843L59.8869 83.9635L58.1432 84.7098L45.3888 146.39Z" fill="#263238"/>
<path d="M50.4622 138.756L46.8712 144.73L45.1777 146.55L123.923 146.815L129.208 133.207L55.218 136.775L50.4622 138.756Z" fill="#E0E0E0"/>
<path d="M124.037 146.981H123.923L44.7931 146.717L46.7376 144.625L50.3487 138.621L55.2115 136.613L129.459 133.035L124.037 146.981ZM45.5595 146.385L123.81 146.646L128.96 133.387L55.255 136.941L50.5696 138.889L46.9886 144.842L45.5595 146.385Z" fill="#263238"/>
<path d="M129.208 133.21V121.055L65.6566 128.056L60.9009 136.383L129.208 133.21Z" fill="#B8B8B8"/>
<path d="M60.6029 136.565L65.5527 127.903H65.6397L129.375 120.875V133.372H129.214L60.6029 136.565ZM65.7602 128.214L61.1953 136.2L129.04 133.05V121.243L65.7602 128.214Z" fill="#263238"/>
<path d="M62.7482 77.0536L60.9008 77.318L50.4623 138.754C50.4623 138.754 59.05 138.085 70.6766 135.32C82.3032 132.556 105.955 128.316 113.883 129.507C121.811 130.698 128.548 135.441 128.548 135.441C128.548 135.441 138.441 137.405 149.539 139.651C160.637 141.897 177.153 145.34 188.12 147.184C199.088 149.029 201.728 148.239 201.728 148.239L188.12 84.9519L186.798 84.5703L194.064 141.91C194.064 141.91 148.241 129.243 142.156 129.243C136.072 129.243 132.785 122.767 120.62 120.39C108.455 118.014 94.8501 122.767 83.3607 124.741C76.1571 126.013 69.0496 127.78 62.0889 130.029L65.1277 77.0469L62.7482 77.0536Z" fill="#E0E0E0"/>
<path d="M199.479 148.598C197.505 148.598 194.007 148.364 188.1 147.367C178.863 145.824 165.718 143.147 155.155 140.981L149.506 139.833C138.535 137.614 128.616 135.643 128.515 135.623L128.452 135.596C128.385 135.549 121.651 130.851 113.856 129.679C105.804 128.471 81.3931 132.942 70.717 135.489C64.0592 137.11 57.2954 138.26 50.4759 138.93L50.2617 138.946L50.2985 138.736L60.7571 77.1757L62.7651 76.8945H65.322L62.2865 129.806C69.1833 127.599 76.2206 125.857 83.3509 124.592C86.2492 124.094 89.2378 123.428 92.4039 122.721C101.818 120.62 111.551 118.451 120.67 120.235C127.253 121.523 131.266 124.017 134.492 126.018C137.247 127.732 139.422 129.084 142.173 129.084C148.04 129.084 189.904 140.59 193.884 141.687L186.598 84.341L188.271 84.8397L188.291 84.9368L201.923 148.374L201.775 148.418C201.725 148.434 201.136 148.598 199.479 148.598ZM128.616 135.302C129.265 135.432 138.924 137.35 149.573 139.505L155.222 140.653C165.781 142.805 178.924 145.479 188.147 147.035C197.542 148.622 200.828 148.254 201.534 148.13L187.977 85.1041L186.996 84.8096L194.262 142.143L194.021 142.076C193.562 141.948 148.144 129.415 142.146 129.415C139.298 129.415 137.086 128.039 134.288 126.299C131.089 124.311 127.103 121.835 120.567 120.559C111.53 118.789 101.825 120.951 92.4541 123.043C89.2847 123.749 86.2927 124.418 83.3844 124.92C76.1897 126.194 69.0903 127.957 62.1359 130.198L61.9017 130.278L64.9506 77.2158H62.7618L61.0449 77.4601L50.67 138.565C57.3989 137.883 64.0733 136.743 70.6467 135.151C81.6909 132.517 105.71 128.123 113.913 129.335C121.517 130.489 128.117 134.957 128.616 135.302Z" fill="#263238"/>
<path d="M55.218 136.774L50.4623 138.755L60.9008 77.3191L65.1277 77.0547L55.218 136.774Z" fill="white"/>
<path d="M50.2448 139.031L60.7569 77.1634L65.3285 76.8789L55.3686 136.899L50.2448 139.031ZM61.0413 77.4813L50.6664 138.489L55.0574 136.658L64.9169 77.2404L61.0413 77.4813Z" fill="#263238"/>
<path d="M127.621 68.8669C127.621 68.8669 128.813 66.7517 139.646 69.5362C150.48 72.3207 161.825 79.2953 171.075 80.6139C180.326 81.9325 186.393 83.2378 186.393 83.2378L198.947 146.923C198.947 146.923 178.475 144.148 159.184 139.008C139.894 133.867 131.718 130.427 129.208 133.211L127.621 68.8669Z" fill="white"/>
<path d="M199.161 147.131L198.931 147.098C198.726 147.071 178.221 144.263 159.141 139.166C154.549 137.941 150.634 136.823 147.183 135.843C136.527 132.807 131.172 131.285 129.332 133.323L129.051 133.631L127.454 68.8243L127.478 68.7842C127.528 68.6905 128.853 66.5887 139.687 69.3632C144.633 70.6316 149.693 72.7768 154.586 74.8485C160.5 77.3552 166.082 79.7247 171.099 80.4409C180.246 81.7461 186.377 83.0714 186.437 83.0848L186.544 83.1082L199.161 147.131ZM132.176 132.048C135.088 132.048 139.83 133.386 147.287 135.521C150.737 136.502 154.65 137.617 159.242 138.845C177.19 143.641 196.434 146.408 198.743 146.733L186.26 83.3893C185.403 83.2086 179.526 81.9837 171.052 80.7722C165.992 80.0493 160.389 77.6731 154.456 75.1597C149.576 73.0881 144.526 70.9495 139.603 69.6878C129.897 67.1978 128.016 68.6838 127.792 68.9214L129.365 132.844C130.011 132.292 130.921 132.048 132.176 132.048Z" fill="#263238"/>
<path d="M182.993 91.2656C161.668 86.5801 160.386 86.4396 160.339 86.4362V86.1016C160.366 86.1016 161.273 86.1551 183.054 90.9409L182.993 91.2656Z" fill="#263238"/>
<path d="M183.462 94.0183C180.744 93.4193 178.241 92.8637 175.995 92.3617C173.154 91.7292 170.701 91.1837 168.746 90.7653C161.363 89.1823 160.59 89.1154 160.56 89.112L160.577 88.7773C160.604 88.7773 161.296 88.8275 168.816 90.4507C170.771 90.8691 173.224 91.4179 176.066 92.0505L183.535 93.7037L183.462 94.0183Z" fill="#263238"/>
<path d="M183.93 96.7638C181.099 96.1413 178.304 95.5055 175.835 94.9432C173.201 94.3441 170.928 93.8288 169.061 93.4271C161.812 91.8743 160.818 91.7872 160.778 91.7839L160.801 91.4492C160.838 91.4492 161.805 91.5295 169.131 93.0992C170.999 93.5008 173.274 94.0195 175.912 94.6186C178.378 95.1775 181.173 95.8134 184.004 96.4359L183.93 96.7638Z" fill="#263238"/>
<path d="M184.386 99.5211C181.708 98.9354 178.981 98.2995 176.333 97.6837C173.743 97.0846 171.293 96.5157 169.365 96.1007C162.28 94.5813 160.999 94.4708 160.999 94.4675L161.022 94.1328C161.072 94.1328 162.31 94.2399 169.452 95.7727C171.383 96.1877 173.833 96.7533 176.427 97.3557C179.074 97.9682 181.812 98.6041 184.459 99.1897L184.386 99.5211Z" fill="#263238"/>
<path d="M184.871 102.27C182.434 101.734 179.69 101.085 177.039 100.459C174.312 99.8168 171.735 99.2043 169.693 98.786C162.786 97.3034 161.229 97.1628 161.213 97.1628L161.239 96.8281C161.3 96.8281 162.812 96.9653 169.764 98.458C171.808 98.8964 174.385 99.5055 177.126 100.151C179.777 100.777 182.518 101.423 184.951 101.959L184.871 102.27Z" fill="#263238"/>
<path d="M185.339 105.02C183.151 104.539 180.443 103.889 177.823 103.26C175.051 102.591 172.183 101.901 170.011 101.436C163.281 99.9903 161.45 99.823 161.43 99.823L161.46 99.4883C161.534 99.4883 163.318 99.6556 170.081 101.108C172.257 101.577 175.125 102.266 177.903 102.932C180.52 103.561 183.224 104.214 185.41 104.692L185.339 105.02Z" fill="#263238"/>
<path d="M185.808 107.77C183.87 107.345 181.337 106.726 178.653 106.07C175.701 105.347 172.628 104.6 170.326 104.102C163.783 102.696 161.671 102.502 161.651 102.499L161.678 102.164C161.698 102.164 163.823 102.358 170.396 103.77C172.719 104.273 175.778 105.019 178.733 105.742C181.41 106.394 183.944 107.013 185.878 107.439L185.808 107.77Z" fill="#263238"/>
<path d="M186.276 110.52C184.603 110.148 182.13 109.539 179.529 108.893C176.38 108.11 173.124 107.304 170.644 106.768C164.285 105.403 161.892 105.178 161.869 105.178L161.899 104.844C161.922 104.844 164.329 105.071 170.714 106.44C173.197 106.976 176.457 107.779 179.61 108.569C182.21 109.215 184.663 109.824 186.347 110.192L186.276 110.52Z" fill="#263238"/>
<path d="M186.745 113.277C185.299 112.959 182.946 112.367 180.46 111.741C177.254 110.931 173.619 110.014 170.958 109.442C164.787 108.103 162.113 107.865 162.086 107.862L162.116 107.527C162.143 107.527 164.834 107.785 171.029 109.117C173.706 109.689 177.331 110.606 180.54 111.416C183.027 112.042 185.376 112.634 186.819 112.952L186.745 113.277Z" fill="#263238"/>
<path d="M187.213 116.03C186.002 115.766 183.867 115.224 181.424 114.595C178.003 113.718 174.128 112.727 171.276 112.111C165.292 110.826 162.334 110.545 162.307 110.542L162.337 110.207C162.367 110.207 165.349 110.492 171.347 111.783C174.205 112.399 178.084 113.39 181.507 114.267C183.96 114.892 186.079 115.438 187.287 115.702L187.213 116.03Z" fill="#263238"/>
<path d="M187.682 118.776C186.698 118.559 184.727 118.047 182.444 117.454C178.974 116.554 174.656 115.446 171.591 114.777C165.798 113.529 162.555 113.217 162.525 113.217L162.555 112.883C165.618 113.243 168.66 113.765 171.668 114.446C174.74 115.115 179.061 116.23 182.535 117.123C184.814 117.716 186.782 118.228 187.762 118.442L187.682 118.776Z" fill="#263238"/>
<path d="M188.154 121.529C187.381 121.359 185.671 120.907 183.505 120.338C180.005 119.417 175.209 118.156 171.909 117.443C168.883 116.765 165.823 116.247 162.742 115.893L162.776 115.559C165.869 115.916 168.941 116.435 171.979 117.115C175.286 117.828 180.085 119.093 183.592 120.016C185.751 120.582 187.458 121.02 188.224 121.201L188.154 121.529Z" fill="#263238"/>
<path d="M188.622 124.283C188.05 124.155 186.544 123.754 184.64 123.245C180.905 122.241 175.791 120.882 172.223 120.112C169.166 119.437 166.075 118.923 162.963 118.573L162.993 118.238C166.118 118.588 169.223 119.103 172.294 119.781C175.868 120.554 180.995 121.92 184.727 122.92C186.628 123.426 188.127 123.827 188.693 123.951L188.622 124.283Z" fill="#263238"/>
<path d="M189.091 127.032C188.703 126.945 187.508 126.624 185.855 126.175C182.327 125.218 176.417 123.618 172.541 122.778C169.446 122.107 166.318 121.597 163.17 121.249L163.204 120.914C166.361 121.261 169.498 121.773 172.602 122.45C176.487 123.287 182.401 124.89 185.932 125.847C187.582 126.296 188.773 126.617 189.151 126.701L189.091 127.032Z" fill="#263238"/>
<path d="M189.56 129.78C189.335 129.729 188.472 129.492 187.167 129.134C183.653 128.163 177.126 126.363 172.856 125.452C169.732 124.783 166.575 124.277 163.398 123.936L163.432 123.602C166.621 123.945 169.79 124.454 172.926 125.128C177.19 126.048 183.736 127.852 187.254 128.809C188.509 129.144 189.416 129.405 189.63 129.452L189.56 129.78Z" fill="#263238"/>
<path d="M190.028 132.531C189.941 132.511 189.482 132.384 188.656 132.153C185.45 131.253 177.946 129.141 173.174 128.114C170.022 127.447 166.839 126.943 163.635 126.604L163.666 126.27C166.888 126.612 170.09 127.118 173.261 127.786C178.043 128.82 185.557 130.928 188.763 131.828C189.502 132.036 190.038 132.187 190.118 132.203L190.028 132.531Z" fill="#263238"/>
<path d="M190.486 135.285C190.379 135.255 179.583 132.106 173.488 130.787C168.823 129.783 163.887 129.294 163.836 129.288L163.87 128.953C167.123 129.291 170.356 129.793 173.559 130.456C179.663 131.795 190.473 134.93 190.58 134.961L190.486 135.285Z" fill="#263238"/>
<path d="M156.942 85.5C152.789 83.589 149.867 81.9224 147.521 80.5837C145.081 79.1881 143.15 78.0904 141.022 77.4009C138.006 76.4914 134.891 75.9498 131.745 75.7878V75.4531C134.923 75.6153 138.069 76.1625 141.115 77.083C143.281 77.7825 145.222 78.8902 147.682 80.2925C150.024 81.6312 152.936 83.3046 157.076 85.1955L156.942 85.5Z" fill="#263238"/>
<path d="M157.166 88.22C153.441 86.5064 150.697 84.9602 148.491 83.7186C145.918 82.2695 143.883 81.1249 141.497 80.3518C136.872 78.8491 132.179 78.6014 131.818 78.6583L131.731 78.3237C131.952 78.2567 136.751 78.4508 141.6 80.0238C144.02 80.8069 146.065 81.9582 148.655 83.4174C150.968 84.7193 153.592 86.1985 157.307 87.9087L157.166 88.22Z" fill="#263238"/>
<path d="M157.377 90.9347C154.057 89.4053 151.604 88.0432 149.439 86.8383C146.745 85.339 144.616 84.1609 141.962 83.2908C136.768 81.5973 132.133 81.4367 131.848 81.5204L131.748 81.1857C132.15 81.0585 136.949 81.2894 142.066 82.9595C144.743 83.8363 146.892 85.0244 149.603 86.5338C151.761 87.7319 154.208 89.094 157.518 90.6168L157.377 90.9347Z" fill="#263238"/>
<path d="M157.591 93.6513C154.653 92.3126 152.384 91.0542 150.382 89.9699C147.705 88.4906 145.362 87.2155 142.427 86.2516C136.952 84.4578 132.357 84.2436 131.865 84.4009L131.764 84.083C132.434 83.8688 137.169 84.1767 142.531 85.9337C145.499 86.9043 147.835 88.1894 150.543 89.6754C152.551 90.7731 154.803 92.0181 157.728 93.3568L157.591 93.6513Z" fill="#263238"/>
<path d="M157.802 96.3793C155.229 95.1946 153.15 94.0667 151.316 93.0727C148.532 91.56 146.129 90.2581 142.889 89.1905C137.026 87.2628 132.514 87.0653 131.882 87.2661L131.781 86.9482C132.595 86.6871 137.394 87.0318 142.996 88.8726C146.263 89.9469 148.686 91.2588 151.477 92.7782C153.304 93.7822 155.379 94.8933 157.939 96.0747L157.802 96.3793Z" fill="#263238"/>
<path d="M158.013 99.0917C155.784 98.0676 153.981 97.1004 152.24 96.1633C149.379 94.6305 146.906 93.3052 143.355 92.1472C137.153 90.099 132.709 89.8882 131.899 90.1392L131.798 89.8213C132.819 89.4866 137.592 89.8848 143.458 91.8293C147.039 93.0107 149.643 94.4063 152.398 95.8822C154.134 96.8159 155.935 97.7798 158.154 98.8006L158.013 99.0917Z" fill="#263238"/>
<path d="M158.224 101.814C156.32 100.94 154.707 100.084 153.15 99.2571C150.349 97.7745 147.705 96.3722 143.82 95.0837C137.437 92.9719 132.916 92.6874 131.915 93.0087L131.815 92.674C133.013 92.2925 137.692 92.674 143.923 94.7524C147.836 96.0509 150.493 97.4565 153.294 98.9492C154.85 99.7725 156.46 100.623 158.354 101.496L158.224 101.814Z" fill="#263238"/>
<path d="M158.435 104.535C156.835 103.798 155.423 103.052 154.041 102.333C151.203 100.843 148.519 99.4376 144.282 98.032C137.471 95.7663 133.094 95.5086 131.932 95.8767L131.832 95.5588C133.334 95.0802 138.247 95.6725 144.389 97.7141C148.652 99.1297 151.47 100.609 154.198 102.038C155.567 102.754 156.983 103.497 158.576 104.23L158.435 104.535Z" fill="#263238"/>
<path d="M158.646 107.249C157.327 106.643 156.156 106.034 154.914 105.392C151.66 103.625 148.258 102.147 144.747 100.974C138.1 98.7584 133.451 98.2664 131.949 98.745L131.848 98.4271C133.455 97.915 138.097 98.407 144.854 100.656C148.381 101.835 151.799 103.32 155.068 105.094C156.306 105.736 157.474 106.342 158.786 106.945L158.646 107.249Z" fill="#263238"/>
<path d="M158.856 109.969C157.799 109.483 156.811 108.965 155.764 108.439C152.386 106.639 148.862 105.128 145.228 103.924C137.849 101.458 133.481 101.143 131.982 101.619L131.882 101.301C133.501 100.785 137.886 101.12 145.335 103.607C148.991 104.815 152.536 106.332 155.935 108.141C156.975 108.677 157.963 109.182 159.014 109.667L158.856 109.969Z" fill="#263238"/>
<path d="M159.067 112.685C158.247 112.307 157.441 111.895 156.584 111.463C153.08 109.635 149.432 108.097 145.677 106.865C136.363 103.749 132.996 104.161 131.982 104.485L131.882 104.151C134.09 103.451 139.157 104.318 145.781 106.534C149.553 107.768 153.217 109.313 156.734 111.152C157.588 111.584 158.391 111.992 159.208 112.367L159.067 112.685Z" fill="#263238"/>
<path d="M159.285 115.403C158.676 115.122 158.043 114.804 157.374 114.469C153.761 112.62 150.006 111.062 146.146 109.81C137.351 106.862 133.602 106.848 132.006 107.357L131.905 107.022C134.248 106.273 139.225 107.123 146.253 109.482C150.128 110.743 153.898 112.31 157.525 114.168C158.194 114.502 158.823 114.817 159.426 115.095L159.285 115.403Z" fill="#263238"/>
<path d="M159.489 118.127C159.067 117.93 158.622 117.709 158.107 117.458C156.058 116.454 152.963 114.905 146.604 112.773C139.328 110.326 134.422 109.476 132.015 110.239L131.915 109.921C134.422 109.125 139.261 109.951 146.711 112.455C153.09 114.6 156.199 116.136 158.254 117.164C158.769 117.418 159.211 117.639 159.629 117.833L159.489 118.127Z" fill="#263238"/>
<path d="M159.7 120.843C159.436 120.719 159.138 120.575 158.79 120.404C156.979 119.514 153.947 118.025 147.076 115.719C139.379 113.128 134.596 112.298 132.039 113.112L131.939 112.777C134.566 111.94 139.409 112.777 147.183 115.388C154.081 117.71 157.126 119.206 158.944 120.1C159.278 120.27 159.586 120.414 159.847 120.535L159.7 120.843Z" fill="#263238"/>
<path d="M159.91 123.562L159.402 123.318C158.063 122.676 154.981 121.166 147.534 118.656C139.395 115.912 134.763 115.109 132.052 115.979L131.948 115.661C134.736 114.774 139.428 115.577 147.641 118.338C155.108 120.858 158.22 122.371 159.549 123.024C159.75 123.124 159.914 123.204 160.051 123.265L159.91 123.562Z" fill="#263238"/>
<path d="M160.122 126.28L159.927 126.186C157.377 124.954 153.365 123.412 147.996 121.598C139.519 118.736 134.904 117.936 132.069 118.84L131.965 118.505C134.917 117.568 139.442 118.341 148.103 121.27C153.485 123.087 157.511 124.633 160.071 125.871L160.262 125.962L160.122 126.28Z" fill="#263238"/>
<path d="M160.329 128.997C160.303 128.997 157.525 127.615 148.462 124.549C139.526 121.537 135.075 120.757 132.086 121.711L131.982 121.393C135.061 120.413 139.556 121.182 148.569 124.231C157.662 127.307 160.453 128.686 160.48 128.699L160.329 128.997Z" fill="#263238"/>
<path d="M127.621 68.8648L129.208 133.209C129.208 133.209 124.452 123.433 111.768 123.838C99.0838 124.243 71.075 134.012 66.587 134.936C62.099 135.86 55.2181 136.784 55.2181 136.784L62.7483 75.3474C62.7483 75.3474 96.0316 69.2631 103.06 67.1479C110.088 65.0328 116.142 62.7972 120.633 63.8447C125.125 64.8922 127.621 65.6954 127.621 68.8648Z" fill="white"/>
<path d="M55.0272 136.972L55.054 136.758L62.5975 75.205L62.718 75.1816C63.0527 75.1213 96.085 69.0838 102.999 66.9955C103.905 66.721 104.798 66.4477 105.677 66.1755C111.597 64.3415 116.721 62.7585 120.663 63.6889C125.085 64.7297 127.795 65.5363 127.795 68.8696L129.402 133.98L129.067 133.291C129.02 133.194 124.204 123.612 111.781 124.004C102.464 124.295 84.8835 129.653 74.3781 132.853C70.5695 134.014 67.8151 134.861 66.6237 135.098C62.1792 136.015 55.3184 136.942 55.2448 136.952L55.0272 136.972ZM62.8988 75.4828L55.4121 136.584C56.6102 136.417 62.5574 135.58 66.5467 134.764C67.7247 134.523 70.613 133.642 74.271 132.528C84.7931 129.322 102.384 123.957 111.754 123.662C122.574 123.328 127.725 130.426 129.017 132.548L127.447 68.8663C127.447 65.7772 124.964 65.041 120.576 64.0102C116.708 63.0999 111.637 64.6795 105.764 66.4901C104.887 66.7578 103.997 67.0356 103.086 67.3101C96.3661 69.3382 65.1143 75.0778 62.8988 75.4828Z" fill="#263238"/>
<path d="M95.2362 77.1913L70.4573 82.7539L70.5309 83.0819L95.3098 77.5193L95.2362 77.1913Z" fill="#263238"/>
<path d="M69.763 85.6631L69.6893 85.3284C75.1077 84.1069 85.419 81.7742 85.7102 81.6838C86.0448 81.5767 94.231 79.7561 94.579 79.6758L94.6493 80.0105C91.7075 80.6798 86.0716 81.9281 85.8106 82.0185C85.4424 82.1289 70.4022 85.5192 69.763 85.6631Z" fill="#263238"/>
<path d="M69.4917 88.4125L69.4181 88.0778C69.572 88.041 84.8566 84.557 85.5695 84.3328C86.2823 84.1086 94.1773 82.3582 94.5153 82.2812L94.5889 82.6159C94.5052 82.6159 86.3292 84.4499 85.6699 84.6574C84.9436 84.9084 70.1243 88.2552 69.4917 88.4125Z" fill="#263238"/>
<path d="M69.2243 91.1697L69.1473 90.835C69.2979 90.8015 84.3549 87.3276 85.4326 86.9896C86.4366 86.675 94.1341 84.9648 94.452 84.8945L94.5257 85.2292C94.4453 85.2493 86.5203 87.0063 85.533 87.3176C84.4453 87.6589 69.8435 91.0291 69.2243 91.1697Z" fill="#263238"/>
<path d="M68.953 93.9185L68.876 93.5838C69.0266 93.5503 83.856 90.0865 85.2917 89.6347C86.6304 89.2163 94.0736 87.5664 94.3915 87.4961L94.4618 87.8308C94.3848 87.8308 86.7107 89.5476 85.3921 89.9626C83.943 90.4178 69.5621 93.7746 68.953 93.9185Z" fill="#263238"/>
<path d="M68.6822 96.6679L68.6052 96.3332C68.7525 96.2997 83.3576 92.8492 85.1548 92.2836C86.8282 91.7615 94.0237 90.1685 94.3283 90.1016L94.4019 90.4362C94.3249 90.453 86.9052 92.1096 85.2552 92.6116C83.4447 93.1806 69.2846 96.5273 68.6822 96.6679Z" fill="#263238"/>
<path d="M68.4108 99.4206L68.3339 99.0859C68.4778 99.0524 82.8554 95.6153 85.014 94.936C87.022 94.3068 94.1941 92.7238 94.2644 92.707L94.338 93.0417C94.2644 93.0584 87.0957 94.6381 85.1144 95.2606C82.9457 95.9534 68.5547 99.3838 68.4108 99.4206Z" fill="#263238"/>
<path d="M68.1396 102.178L68.0626 101.843C68.2032 101.81 82.3565 98.3826 84.8733 97.5928C87.216 96.8598 94.1337 95.3337 94.204 95.3203L94.2743 95.655C94.204 95.6717 87.2896 97.1945 84.9737 97.9207C82.4469 98.7139 68.2835 102.141 68.1396 102.178Z" fill="#263238"/>
<path d="M67.8687 104.927L67.7917 104.592C67.929 104.555 81.8481 101.141 84.7363 100.241C87.3936 99.4045 94.0737 97.9386 94.1406 97.9219L94.2143 98.2565C94.144 98.2565 87.4806 99.7358 84.8434 100.566C81.9451 101.473 68.0093 104.893 67.8687 104.927Z" fill="#263238"/>
<path d="M67.6008 107.672L67.5171 107.337C67.6577 107.303 81.3559 103.9 84.5855 102.879C87.5774 101.939 94.0032 100.536 94.0668 100.52L94.1404 100.854C94.0768 100.854 87.6645 102.27 84.6859 103.197C81.4462 104.238 67.738 107.645 67.6008 107.672Z" fill="#263238"/>
<path d="M67.3299 110.424L67.2462 110.09C67.3834 110.056 80.8541 106.663 84.4585 105.531C87.7785 104.487 93.9532 103.138 94.0168 103.125L94.0871 103.46C94.0268 103.46 87.8655 104.818 84.5555 105.856C80.9478 106.997 67.4638 110.391 67.3299 110.424Z" fill="#263238"/>
<path d="M67.0586 113.178L66.975 112.843C67.1088 112.809 80.3619 109.429 84.3178 108.184C87.9724 107.036 93.8928 105.748 93.953 105.734L94.0233 106.069C93.9664 106.069 88.0561 107.364 84.4182 108.509C80.4456 109.761 67.1925 113.144 67.0586 113.178Z" fill="#263238"/>
<path d="M66.7878 115.93L66.7041 115.596C66.8346 115.562 79.8568 112.195 84.1774 110.837C88.1634 109.581 93.8361 108.353 93.883 108.34L93.9533 108.675C93.8964 108.675 88.2404 109.913 84.2678 111.161C79.9472 112.527 66.9149 115.897 66.7878 115.93Z" fill="#263238"/>
<path d="M66.5165 118.68L66.4329 118.345C66.56 118.311 79.3546 114.955 84.0401 113.485C88.3574 112.127 93.7757 110.955 93.8293 110.945L93.8996 111.28C93.846 111.28 88.441 112.458 84.1405 113.81C79.4483 115.286 66.6471 118.646 66.5165 118.68Z" fill="#263238"/>
<path d="M66.2457 121.428L66.1587 121.093C66.2859 121.056 78.8529 117.713 83.8964 116.127C88.545 114.667 93.7124 113.556 93.7626 113.543L93.8329 113.878C93.7827 113.878 88.632 114.995 83.9968 116.455C78.9633 118.041 66.3729 121.388 66.2457 121.428Z" fill="#263238"/>
<path d="M65.9778 124.181L65.8907 123.846C66.0146 123.813 78.354 120.48 83.759 118.78C88.7423 117.213 93.6553 116.162 93.7055 116.152L93.7724 116.487C93.7256 116.487 88.8259 117.545 83.8594 119.104C78.4477 120.814 66.1016 124.148 65.9778 124.181Z" fill="#263238"/>
<path d="M65.7065 126.929L65.6195 126.595C65.74 126.561 77.8552 123.248 83.6216 121.427C88.9329 119.754 93.5949 118.75 93.6417 118.75L93.712 119.085C93.6652 119.085 89.0266 120.089 83.722 121.762C77.9589 123.573 65.827 126.896 65.7065 126.929Z" fill="#263238"/>
<path d="M98.2303 76.4101L98.1266 76.0754C99.0704 75.7742 121.279 68.746 124.649 72.4509L124.402 72.6785C121.176 69.1443 98.4579 76.3365 98.2303 76.4101Z" fill="#263238"/>
<path d="M98.1567 79.0706L98.053 78.7527C98.1333 78.7259 105.955 76.2159 112.912 74.9073C115.864 74.3584 122.919 73.2875 124.66 75.2018L124.412 75.4294C123.284 74.1844 119.007 74.1141 112.973 75.2353C106.038 76.5405 98.2337 79.0439 98.1567 79.0706Z" fill="#263238"/>
<path d="M98.0831 81.7401L97.9827 81.4221C98.0596 81.3954 106.015 78.815 112.886 77.5433C118.84 76.4656 123.468 76.6229 124.67 77.9449L124.422 78.1725C123.314 76.9509 118.699 76.8338 112.946 77.8746C106.105 79.1397 98.1634 81.7133 98.0831 81.7401Z" fill="#263238"/>
<path d="M98.0127 84.4046L97.9056 84.0867C97.9893 84.0599 106.085 81.3926 112.856 80.1777C118.515 79.1737 123.488 79.3745 124.68 80.683L124.432 80.9106C123.331 79.6991 118.381 79.5251 112.916 80.5057C106.169 81.7172 98.0931 84.3778 98.0127 84.4046Z" fill="#263238"/>
<path d="M97.9392 87.079L97.8354 86.7443C97.9158 86.7176 106.152 83.9766 112.829 82.8019C118.294 81.8414 123.505 82.1091 124.69 83.4143L124.442 83.6419C123.485 82.5877 118.796 82.0924 112.886 83.1299C106.236 84.318 98.0396 87.0522 97.9392 87.079Z" fill="#263238"/>
<path d="M97.8688 89.7496L97.7617 89.4317C97.8454 89.4016 106.219 86.587 112.802 85.4524C118.619 84.4484 123.649 85.0174 124.703 86.172L124.452 86.3996C123.615 85.4759 119.003 84.7262 112.859 85.7838C106.303 86.9217 97.9525 89.7195 97.8688 89.7496Z" fill="#263238"/>
<path d="M97.7952 92.4096L97.6881 92.0917C97.7718 92.0616 106.286 89.1733 112.775 88.0756C119.02 87.0281 123.809 87.9183 124.713 88.9223L124.465 89.1499C123.706 88.3132 119.167 87.3594 112.829 88.427C106.37 89.498 97.8789 92.3795 97.7952 92.4096Z" fill="#263238"/>
<path d="M97.7216 95.0805L97.6145 94.7626C97.7015 94.7325 106.356 91.7739 112.745 90.7197C119.134 89.6655 123.92 90.7699 124.723 91.6501L124.475 91.8777C123.736 91.0644 118.947 90.037 112.802 91.0477C106.436 92.0986 97.8086 95.0504 97.7216 95.0805Z" fill="#263238"/>
<path d="M97.6513 97.7509L97.5409 97.4364C97.6279 97.4029 106.423 94.3741 112.718 93.3567C118.963 92.3527 123.93 93.514 124.733 94.3942L124.479 94.6184C123.809 93.8821 119.017 92.6739 112.765 93.6847C106.513 94.6954 97.7383 97.7208 97.6513 97.7509Z" fill="#263238"/>
<path d="M97.5777 100.415L97.4673 100.101C97.5576 100.067 106.503 96.9682 112.692 95.9876C119.05 94.9836 124.017 96.3223 124.74 97.1322L124.492 97.3598C123.957 96.7707 119.245 95.2915 112.738 96.3189C106.574 97.2928 97.6681 100.385 97.5777 100.415Z" fill="#263238"/>
<path d="M97.504 103.082L97.3936 102.768C97.4839 102.734 106.557 99.5649 112.665 98.6245C119.275 97.6037 124.174 99.2369 124.753 99.8728L124.505 100.1C124.104 99.6586 119.572 97.8949 112.715 98.9524C106.641 99.8929 97.5944 103.052 97.504 103.082Z" fill="#263238"/>
<path d="M97.4304 105.75L97.3199 105.432C97.4137 105.399 106.627 102.162 112.635 101.255C119.606 100.201 124.331 102.136 124.763 102.594L124.516 102.822C124.157 102.423 119.495 100.543 112.685 101.57C106.708 102.487 97.5241 105.717 97.4304 105.75Z" fill="#263238"/>
<path d="M97.3703 108.424L97.2565 108.106C97.3502 108.076 106.704 104.759 112.618 103.896C119.539 102.892 124.399 104.933 124.783 105.358L124.536 105.586C124.325 105.351 119.797 103.176 112.668 104.227C106.775 105.094 97.4539 108.39 97.3703 108.424Z" fill="#263238"/>
<path d="M97.2865 111.089L97.1727 110.774C97.2698 110.737 106.761 107.367 112.568 106.527C119.469 105.523 124.375 107.662 124.77 108.097L124.522 108.324C124.251 108.053 119.623 105.851 112.615 106.858C106.845 107.692 97.3702 111.055 97.2865 111.089Z" fill="#263238"/>
<path d="M97.2129 113.756L97.1024 113.441C97.1961 113.408 106.831 109.977 112.551 109.164C119.787 108.16 124.566 110.586 124.793 110.837L124.549 111.065C124.171 110.73 119.479 108.542 112.598 109.495C106.912 110.305 97.3099 113.722 97.2129 113.756Z" fill="#263238"/>
<path d="M97.1426 116.426L97.0288 116.111C97.1259 116.078 106.898 112.577 112.524 111.801C119.74 110.82 124.572 113.324 124.807 113.581L124.559 113.809C124.536 113.809 119.947 111.132 112.571 112.136C106.979 112.902 97.2397 116.393 97.1426 116.426Z" fill="#263238"/>
<path d="M97.069 119.088L96.9552 118.773C97.0556 118.736 106.969 115.168 112.497 114.422C119.971 113.418 124.733 116.253 124.78 116.28L124.606 116.567C124.559 116.537 119.894 113.776 112.541 114.757C107.049 115.493 97.166 119.044 97.069 119.088Z" fill="#263238"/>
<path d="M154.867 139.438C154.867 139.438 153.83 139.181 152.217 138.842L152.287 138.508C153.907 138.842 154.941 139.104 154.964 139.107L154.867 139.438Z" fill="#263238"/>
<path d="M151.015 138.595C149.603 138.317 148.428 137.306 147.186 136.252C145.62 134.914 144 133.505 141.725 133.438C137.256 133.354 132.809 134.095 128.609 135.623L128.478 135.673L128.405 135.553C127.892 134.772 127.327 134.026 126.714 133.32L126.965 133.103C127.561 133.787 128.112 134.508 128.615 135.262C132.823 133.759 137.267 133.028 141.735 133.103C144.128 133.173 145.794 134.609 147.407 135.998C148.612 137.035 149.75 138.006 151.089 138.28L151.015 138.595Z" fill="#263238"/>
<path d="M125.841 132.353C125.012 131.487 124.117 130.687 123.163 129.96L123.364 129.695C124.331 130.431 125.237 131.242 126.075 132.122L125.841 132.353Z" fill="#263238"/>
<path d="M123.17 129.962C121.823 128.926 120.334 128.089 118.749 127.475C111.868 124.865 104.211 126.826 103.354 127.057L103.267 126.722C104.127 126.488 111.882 124.503 118.863 127.154C120.477 127.778 121.993 128.632 123.364 129.688L123.17 129.962Z" fill="#263238"/>
<path d="M83.8627 131.822L83.7891 131.487C83.9765 131.444 102.604 127.284 110.563 127.471C113.666 127.515 116.741 128.061 119.669 129.087L119.556 129.402C116.657 128.387 113.613 127.85 110.543 127.812C102.628 127.628 84.0501 131.782 83.8627 131.822Z" fill="#263238"/>
<path d="M122.571 130.841C122.081 130.521 121.565 130.242 121.028 130.008L121.166 129.703C121.719 129.949 122.252 130.237 122.762 130.563L122.571 130.841Z" fill="#263238"/>
<path d="M121.469 135.974L70.8971 138.395L70.9131 138.729L121.485 136.309L121.469 135.974Z" fill="#263238"/>
<path d="M126.227 135.743L123.466 135.875L123.482 136.209L126.243 136.077L126.227 135.743Z" fill="#263238"/>
<path d="M86.6847 140.699L83.7372 140.773L83.7457 141.108L86.6932 141.033L86.6847 140.699Z" fill="#263238"/>
<path d="M82.047 140.822L58.6675 141.414L58.6759 141.749L82.0555 141.157L82.047 140.822Z" fill="#263238"/>
<path d="M118.92 142.586L116.323 142.664L116.333 142.999L118.93 142.921L118.92 142.586Z" fill="#263238"/>
<path d="M114.235 142.723L81.3029 143.711L81.3129 144.046L114.245 143.058L114.235 142.723Z" fill="#263238"/>
<path d="M105.303 139.744L98.4056 139.98L98.4171 140.315L105.314 140.079L105.303 139.744Z" fill="#263238"/>
<path d="M124.298 139.094L107.193 139.68L107.205 140.014L124.31 139.429L124.298 139.094Z" fill="#263238"/>
<path d="M75.7105 143.528L73.3252 143.594L73.3344 143.928L75.7197 143.863L75.7105 143.528Z" fill="#263238"/>
<path d="M71.837 143.63L49.6431 144.238L49.6522 144.573L71.8462 143.965L71.837 143.63Z" fill="#263238"/>
<path d="M89.3782 70.6201C89.3782 70.6201 94.2979 64.1509 97.4103 61.4568C100.523 58.7626 105.834 54.5156 107.993 54.5156C110.151 54.5156 110.687 55.8543 110.824 56.3329C110.961 56.8115 112.765 63.6121 112.765 63.9501C112.765 64.2881 110.881 64.8269 110.757 64.422C110.633 64.017 109.813 58.2205 109.479 57.1428C109.144 56.0652 109.208 55.4694 106.647 56.5371C104.087 57.6047 96.5402 65.7004 94.9873 67.5813C93.4344 69.4622 91.9552 71.4234 91.9552 71.4234C91.9552 71.4234 90.1211 70.6201 89.3782 70.6201Z" fill="#263238"/>
<path d="M91.9918 71.633L91.8713 71.5795C91.8546 71.5795 90.0741 70.7829 89.378 70.7829H89.0433L89.2475 70.5152C89.2977 70.4516 94.2141 64.0024 97.2797 61.325C99.6927 59.2266 105.566 54.3438 107.969 54.3438C110.168 54.3438 110.794 55.6992 110.961 56.2849C111.055 56.6195 112.919 63.5607 112.919 63.9455C112.919 64.3304 111.791 64.645 111.49 64.6952C110.958 64.7789 110.65 64.6952 110.573 64.471C110.519 64.3036 110.389 63.4904 110.161 62.0647C109.88 60.2775 109.492 57.8277 109.291 57.1885L109.217 56.9408C109.107 56.5593 109.023 56.2715 108.813 56.1845C108.511 56.0405 107.852 56.1845 106.684 56.6865C104.201 57.7306 96.7375 65.6858 95.0909 67.6905C93.5614 69.5547 92.0788 71.5058 92.0621 71.5259L91.9918 71.633ZM89.6926 70.4817C90.4455 70.6567 91.1797 70.9044 91.8847 71.2214C92.2194 70.7896 93.5112 69.0995 94.8432 67.4797C96.3192 65.6792 103.91 57.4964 106.557 56.3786C107.869 55.8264 108.545 55.6858 108.956 55.8833C109.291 56.0472 109.412 56.4187 109.539 56.8471C109.562 56.9241 109.586 57.0044 109.612 57.0881C109.82 57.7574 110.191 60.1001 110.493 62.0111C110.673 63.1457 110.827 64.2166 110.891 64.3538C111.066 64.4023 111.251 64.4023 111.426 64.3538C111.846 64.3074 112.247 64.1541 112.591 63.9087C112.568 63.5741 110.814 56.9743 110.637 56.3618C110.459 55.7494 109.87 54.665 107.959 54.665C105.616 54.665 99.3479 59.9462 97.4872 61.566C94.7897 63.9389 90.613 69.2903 89.6926 70.4817Z" fill="#263238"/>
<path d="M172.652 77.2134C172.495 76.9858 172.284 76.7214 172.136 76.6846C171.899 76.6244 170.319 79.3084 169.931 79.9711C170.144 79.7025 170.386 79.4588 170.654 79.2449C170.654 79.4457 169.844 83.4216 169.104 85.3091C168.365 87.1967 168.562 88.0735 169.305 88.0066C170.048 87.9397 171.055 84.5695 171.648 82.6819C172.175 80.8998 172.512 79.0667 172.652 77.2134Z" fill="white"/>
<path d="M169.228 88.1743C169.118 88.1797 169.009 88.1581 168.91 88.1114C168.811 88.0648 168.725 87.9944 168.659 87.9066C168.324 87.4715 168.435 86.5679 168.947 85.246C169.542 83.7299 170.185 80.8383 170.406 79.7004L170.054 80.0819L168.99 81.2265L169.78 79.8711C171.788 76.4106 172.022 76.4675 172.17 76.5043C172.317 76.5411 172.451 76.6214 172.782 77.1L172.816 77.1502V77.2104C172.68 79.0774 172.343 80.9243 171.812 82.7192L171.661 83.1978C170.777 85.9689 170.044 88.0907 169.318 88.1576L169.228 88.1743ZM170.664 79.0645L170.714 79.0813L170.821 79.1214V79.2419C170.821 79.4762 170.001 83.4722 169.258 85.3664C168.612 87.013 168.809 87.5485 168.923 87.7091C168.966 87.7615 169.022 87.8013 169.086 87.8243C169.15 87.8472 169.218 87.8526 169.285 87.8397C169.857 87.7861 170.864 84.6268 171.346 83.1107L171.5 82.6288C172.014 80.8833 172.341 79.0884 172.477 77.274C172.388 77.126 172.275 76.9937 172.143 76.8825C171.591 77.5679 171.096 78.2977 170.664 79.0645Z" fill="#263238"/>
<path d="M172.608 75.807C172.337 74.5922 170.6 76.1417 169.844 77.2227C169.088 78.3037 165.734 81.9382 163.847 83.7589C161.959 85.5795 154.884 91.6438 154.141 92.1826C153.398 92.7214 152.525 93.6652 151.986 93.7321C151.447 93.7991 150.031 93.7321 149.359 93.3272C148.686 92.9222 148.355 92.1826 145.112 90.4323C141.869 88.6819 127.859 84.6357 126.848 84.5755C125.838 84.5152 125.028 85.5193 123.612 86.125C122.196 86.7308 119.84 86.8646 118.83 85.9878C117.819 85.111 116.604 82.8887 115.931 81.2722C115.259 79.6558 114.178 79.2642 113.234 78.712C112.29 78.1598 100.971 73.1966 98.8797 72.5038C96.788 71.811 94.7029 71.3592 93.7592 71.2923C93.149 71.2572 92.5369 71.3022 91.9385 71.4261C91.9385 71.4261 91.8047 71.6269 91.2692 71.2253C90.7337 70.8237 88.9767 70.0774 88.4378 71.155C87.899 72.2327 87.0991 74.7294 87.561 75.6731L88.0329 76.6169C88.0329 76.6169 87.561 82.6812 87.7651 84.7696C87.9693 86.8579 89.5858 89.5554 90.9312 91.1719C92.2766 92.7884 97.6715 95.8205 101.641 96.7643C105.61 97.7081 108.043 97.1693 109.121 96.4296C110.198 95.69 113.502 91.9818 114.311 91.105C115.121 90.2281 115.051 89.6893 117.678 90.4992C120.305 91.3091 121.253 93.1933 121.725 94.609C122.196 96.0247 123.947 101.684 125.362 103.505C127.134 105.897 129.505 107.779 132.237 108.963C135.674 110.446 137.963 111.59 141.199 111.189C144.435 110.787 146.186 109.301 147.197 107.547C148.207 105.794 148.87 102.293 149.205 101.212C149.482 100.495 149.977 99.8831 150.62 99.4618C150.62 99.4618 151.959 98.856 152.374 97.9122C152.789 96.9684 155.945 94.0702 155.945 94.0702C155.945 94.0702 161.065 90.0273 163.02 87.8017C164.974 85.5762 170.664 79.04 170.664 79.2441C170.664 79.4483 169.854 83.4208 169.114 85.3084C168.375 87.196 168.572 88.0728 169.315 88.0059C170.058 87.9389 171.065 84.5688 171.658 82.6812C172.25 80.7937 172.876 77.0185 172.608 75.807ZM115.326 86.9182C115.206 87.3261 115.024 87.7132 114.787 88.0661C114.382 88.6719 111.684 92.9858 110.001 94.3312C108.317 95.6766 106.363 96.8245 104.338 96.6237C102.313 96.4229 97.1293 94.4684 93.294 91.4363C89.4586 88.4041 88.9131 84.4249 89.318 80.5862C89.723 76.7474 91.0717 74.1136 93.0932 73.712C95.1146 73.3103 101.795 74.9904 106.37 77.4168C110.945 79.8432 114.86 82.8084 115.128 83.8191C115.396 84.8298 115.326 86.9182 115.326 86.9182ZM147.605 100.74C147.2 104.244 146.393 106.269 145.178 107.886C143.964 109.502 142.551 110.245 138.776 109.894C135.001 109.542 132.173 108.14 129.542 106.256C126.912 104.371 126.038 101.875 125.028 99.5153C124.017 97.1559 122.267 92.4403 123.277 89.4751C124.288 86.5099 127.253 87.2529 127.253 87.2529C127.253 87.2529 129.747 87.7917 129.931 87.8586C130.115 87.9256 145.028 92.3064 145.701 93.3172C146.373 94.3279 148.01 97.2362 147.605 100.74Z" fill="#263238"/>
<path d="M139.911 111.441C137.511 111.441 135.53 110.581 132.939 109.453L132.173 109.118C129.416 107.925 127.023 106.025 125.235 103.61C123.943 101.936 122.407 97.2309 121.748 95.2161C121.678 94.9953 121.614 94.8078 121.567 94.6639C121.122 93.3252 120.228 91.4578 117.635 90.6478C115.466 89.9785 115.252 90.2429 114.73 90.8687C114.643 90.9758 114.549 91.0896 114.435 91.2034L113.933 91.7523C112.708 93.091 110.155 95.9089 109.218 96.5515C108.669 96.9297 106.493 98.0743 101.604 96.9129C97.6915 95.9825 92.1995 92.9437 90.8006 91.2636C89.3481 89.5233 87.7885 86.8393 87.5944 84.771C87.4003 82.7629 87.8153 77.2408 87.8588 76.6317L87.4104 75.7314C86.9016 74.7274 87.745 72.1504 88.2872 71.0661C88.3617 70.9115 88.4708 70.7762 88.606 70.6705C88.7413 70.5649 88.899 70.4918 89.067 70.457C89.9037 70.2595 90.9981 70.7916 91.3662 71.0761C91.654 71.2903 91.7845 71.297 91.818 71.2937L91.8381 71.2635L91.9017 71.2468C92.5164 71.1182 93.1456 71.072 93.7725 71.1096C94.7966 71.1832 96.9653 71.6953 98.9332 72.3311C101.022 73.0005 112.407 78.0206 113.324 78.5427L113.686 78.7435C114.526 79.202 115.479 79.7174 116.092 81.1866C116.798 82.8834 118.006 85.0287 118.943 85.8419C119.88 86.6552 122.136 86.5548 123.555 85.949C124.053 85.7205 124.53 85.4495 124.981 85.1391C125.65 84.7107 126.202 84.3459 126.865 84.3861C127.943 84.4564 142.043 88.5595 145.199 90.2697C147.501 91.5147 148.334 92.2442 148.88 92.7262C149.054 92.8902 149.242 93.038 149.442 93.1679C150.065 93.5428 151.45 93.6164 151.966 93.5528C152.277 93.5127 152.782 93.0776 153.274 92.6592C153.529 92.4417 153.793 92.2141 154.044 92.0334C154.76 91.5113 161.825 85.4604 163.729 83.623C165.567 81.8493 168.967 78.1846 169.707 77.1103C170.219 76.3673 171.504 75.0453 172.274 75.1926C172.405 75.2227 172.523 75.2932 172.612 75.3941C172.701 75.4949 172.756 75.6211 172.769 75.7549C173.06 77.0634 172.404 80.9055 171.822 82.7161L171.671 83.1947C170.788 85.9658 170.055 88.0876 169.328 88.1545C169.204 88.1764 169.075 88.1636 168.957 88.1175C168.839 88.0715 168.736 87.994 168.659 87.8935C168.324 87.4584 168.435 86.5548 168.947 85.2328C169.543 83.7168 170.185 80.8218 170.406 79.6873C169.439 80.7147 166.604 83.9577 164.807 86.016L163.164 87.9269C161.223 90.1391 156.116 94.1753 156.065 94.2155C154.988 95.2028 152.852 97.271 152.545 97.9906C152.12 98.9946 150.764 99.6037 150.707 99.6271C150.102 100.027 149.635 100.603 149.369 101.277C149.285 101.548 149.174 101.993 149.034 102.509C148.656 104.028 148.087 106.324 147.32 107.646C146.085 109.791 144.084 110.993 141.199 111.368C140.772 111.418 140.341 111.443 139.911 111.441ZM115.777 89.935C116.445 89.9802 117.102 90.1176 117.732 90.3433C120.476 91.1867 121.413 93.1546 121.885 94.5602C121.932 94.7041 121.996 94.8949 122.066 95.1157C122.718 97.1238 124.245 101.809 125.496 103.406C127.251 105.777 129.6 107.642 132.307 108.814L133.073 109.149C136.085 110.454 138.237 111.398 141.182 111.029C143.954 110.695 145.868 109.52 147.056 107.472C147.796 106.19 148.361 103.921 148.729 102.418C148.86 101.9 148.97 101.454 149.064 101.17C149.351 100.413 149.871 99.7671 150.55 99.3259C150.58 99.3092 151.862 98.7235 152.223 97.8534C152.635 96.8862 155.704 94.0749 155.834 93.9544C155.895 93.9076 160.975 89.8881 162.899 87.6994L164.543 85.8218C170.49 79.0112 170.523 79.0246 170.697 79.0916L170.804 79.1317V79.2522C170.804 79.4865 169.984 83.4825 169.241 85.3767C168.596 87.0233 168.793 87.5588 168.907 87.7194C168.95 87.7718 169.006 87.8116 169.07 87.8346C169.133 87.8575 169.202 87.8629 169.268 87.85C169.841 87.7964 170.848 84.6371 171.33 83.121L171.484 82.6391C172.103 80.7147 172.679 77.0099 172.424 75.8553C172.371 75.6109 172.264 75.5641 172.19 75.5474C171.695 75.457 170.57 76.4443 169.961 77.3278C169.195 78.4423 165.814 82.0869 163.937 83.8908C162.059 85.6947 154.934 91.8058 154.215 92.3279C153.974 92.5019 153.716 92.7262 153.465 92.9404C152.913 93.4123 152.391 93.8574 151.979 93.9109C151.487 93.9712 149.998 93.9377 149.245 93.4825C149.026 93.3432 148.821 93.1841 148.632 93.0073C148.093 92.5321 147.273 91.8192 145.004 90.5876C141.872 88.8908 127.876 84.8178 126.812 84.7475C126.259 84.7074 125.761 85.0354 125.138 85.447C124.671 85.7693 124.176 86.0493 123.659 86.2837C122.15 86.9296 119.74 87.0233 118.699 86.1197C117.658 85.2161 116.457 83.0206 115.757 81.3406C115.192 79.9818 114.332 79.5166 113.498 79.0648L113.133 78.8606C112.226 78.3419 100.891 73.3452 98.8093 72.6759C97.1576 72.1112 95.4551 71.7078 93.7256 71.471C93.1472 71.4382 92.567 71.4786 91.9987 71.5915C91.9569 71.621 91.9088 71.6404 91.8582 71.6484C91.5932 71.6535 91.337 71.5537 91.1453 71.3706C90.7906 71.1029 89.8066 70.6511 89.1373 70.8084C89.0174 70.8331 88.9048 70.8853 88.8084 70.9607C88.7121 71.0362 88.6345 71.133 88.5817 71.2435C88.0462 72.3111 87.2765 74.7508 87.7049 75.5942L88.1968 76.5982V76.6417C88.1968 76.7053 87.7283 82.7161 87.9291 84.7676C88.1199 86.7757 89.6393 89.3761 91.0583 91.0796C92.4238 92.7228 97.8254 95.7014 101.681 96.6184C106.44 97.7463 108.508 96.6653 109.044 96.3038C109.947 95.6847 112.481 92.8969 113.699 91.5582C113.913 91.3239 114.084 91.1331 114.204 91.0059C114.325 90.8788 114.402 90.7784 114.485 90.6713C114.847 90.2161 115.108 89.935 115.777 89.935ZM140.406 110.159C139.914 110.159 139.368 110.133 138.763 110.079C135.443 109.781 132.568 108.65 129.445 106.398C127.009 104.647 126.058 102.382 125.138 100.209C125.051 100.002 124.964 99.7945 124.874 99.5903C123.535 96.4946 122.166 92.2275 123.117 89.4263C124.168 86.354 127.263 87.0836 127.293 87.0836C127.544 87.1371 129.797 87.6224 130.001 87.6927L130.356 87.7998C137.13 89.8245 145.319 92.4116 145.858 93.2181C146.397 94.0247 148.201 97.0602 147.772 100.742C147.394 104.011 146.658 106.173 145.312 107.967C144.281 109.363 143.117 110.159 140.406 110.159ZM126.43 87.348C125.523 87.348 124.087 87.6826 123.435 89.5468C122.471 92.3781 124.104 96.9765 125.182 99.4665C125.272 99.674 125.359 99.8815 125.446 100.089C126.346 102.228 127.28 104.44 129.643 106.137C132.712 108.342 135.533 109.453 138.793 109.744C142.561 110.079 143.9 109.319 145.045 107.79C146.353 106.046 147.069 103.934 147.437 100.728C147.849 97.1572 146.119 94.2355 145.58 93.4256C145.443 93.2215 143.933 92.2342 130.259 88.1411L129.894 88.034C129.753 87.9872 128.22 87.6492 127.216 87.4316C126.958 87.3737 126.694 87.3456 126.43 87.348ZM104.82 96.8259C104.654 96.8265 104.487 96.8186 104.321 96.8025C102.206 96.5883 97.0222 94.607 93.1835 91.5782C88.8829 88.1813 88.8327 83.6732 89.144 80.5775C89.5724 76.528 90.9947 73.971 93.053 73.5494C95.1112 73.1277 101.798 74.8144 106.44 77.2709C110.848 79.6136 114.981 82.6458 115.285 83.777C115.556 84.8011 115.493 86.8393 115.493 86.9263V86.9631C115.368 87.3878 115.178 87.7908 114.931 88.1579C114.887 88.2248 114.82 88.3319 114.726 88.4725C113.963 89.6505 111.637 93.2449 110.111 94.4631C108.11 96.0696 106.406 96.8259 104.82 96.8259ZM93.8394 73.8271C93.5971 73.8236 93.355 73.8438 93.1165 73.8874C91.2424 74.2622 89.8803 76.7756 89.4786 80.6143C88.9733 85.4068 90.2149 88.8071 93.391 91.3239C97.0356 94.2021 102.233 96.267 104.355 96.4779C106.005 96.6452 107.765 95.929 109.897 94.2222C111.38 93.0374 113.682 89.4798 114.442 88.3085L114.646 87.9939C114.87 87.6622 115.042 87.2989 115.158 86.9162C115.158 86.7054 115.208 84.8078 114.961 83.8841C114.713 82.9604 110.871 80.0153 106.283 77.5855C102.153 75.3901 96.393 73.8271 93.8394 73.8271Z" fill="#263238"/>
<path d="M120.339 88.1926C120.045 88.1942 119.752 88.1627 119.465 88.0989C117.062 87.5667 116.135 84.9697 115.523 83.2495L115.436 83.0051C114.864 81.4154 114.291 80.9971 114.288 80.9971L114.472 80.7227C114.499 80.7394 115.141 81.1745 115.75 82.8913L115.838 83.1357C116.427 84.7856 117.317 87.2789 119.539 87.7742C121.855 88.2863 124.224 86.2782 124.245 86.2582L124.465 86.5125C124.375 86.5828 122.471 88.1926 120.339 88.1926Z" fill="white"/>
<path d="M150.513 95.874C149.722 95.8429 148.946 95.6408 148.241 95.2816C148.163 95.2147 148.101 95.1327 148.057 95.0406C147.745 94.5118 146.792 92.9121 142.806 91.1149C138.09 88.9897 127.307 86.2989 127.2 86.2722L127.28 85.9375C127.387 85.9643 138.2 88.6617 142.943 90.8003C147.022 92.641 148.02 94.3077 148.344 94.8566C148.381 94.9168 148.421 94.9837 148.435 95.0005C148.572 95.0875 150.537 95.951 151.467 95.2649L151.668 95.536C151.328 95.7668 150.924 95.885 150.513 95.874Z" fill="white"/>
<path d="M113.736 80.3851C113.736 80.3851 112.397 79.284 106.832 76.7706C103.178 75.1616 99.3921 73.8717 95.5162 72.9152C95.1213 72.8115 94.8101 72.7311 94.5892 72.6675C93.3954 72.3727 92.1427 72.4203 90.9747 72.8048C89.954 73.0926 88.7123 72.0049 88.6621 71.958L88.883 71.707C88.883 71.707 90.041 72.7111 90.891 72.4801C92.1183 72.0795 93.4338 72.0331 94.6862 72.3463C94.9071 72.4098 95.2184 72.4902 95.6066 72.5906C99.5045 73.5508 103.312 74.8475 106.986 76.4661C112.605 79.0063 113.913 80.0839 113.967 80.1308L113.736 80.3851Z" fill="white"/>
<path d="M91.4262 90.8255C88.3673 88.1715 88.6016 83.6568 88.6049 83.6133L88.9396 83.6334C88.9396 83.6769 88.712 88.031 91.6438 90.5712L91.4262 90.8255Z" fill="white"/>
</svg>
