<svg width="178" height="233" viewBox="0 0 178 233" fill="none" xmlns="http://www.w3.org/2000/svg">
<path d="M110.216 10.1035C110.216 10.1035 112.816 13.8504 112.978 17.1049C113.139 20.3594 113.139 23.1292 113.632 24.2679C114.124 25.4065 115.748 26.2221 115.586 27.1992C115.425 28.1763 114.117 29.1534 114.117 29.1534C114.117 29.1534 113.309 33.7082 111.808 35.8317C110.308 37.9552 108.392 37.1319 106.761 36.9704C105.763 36.8629 104.779 36.6435 103.83 36.3164C102.418 38.0424 101.517 40.1292 101.229 42.3406C101.002 44.1333 101.056 45.9505 101.391 47.7263L89.9964 44.3103C89.9964 44.3103 95.3821 39.9171 94.7127 34.7007C94.2979 31.5153 93.1867 28.4603 91.4582 25.7528C91.4582 25.7528 85.434 19.0745 87.7191 15.1661C90.0041 11.2576 92.2738 7.84154 94.882 6.54129C97.4902 5.24103 110.216 10.1035 110.216 10.1035Z" fill="white" stroke="#263238" stroke-linecap="round" stroke-linejoin="round"/>
<path d="M107.931 27.707C107.931 27.707 110.239 30.0152 111.678 30.3075" stroke="#263238" stroke-width="0.75" stroke-linecap="round" stroke-linejoin="round"/>
<path d="M108.908 26.8906L106.954 28.514" stroke="#263238" stroke-width="0.75" stroke-linecap="round" stroke-linejoin="round"/>
<path d="M111.431 24.6064C111.835 24.6064 112.162 23.7693 112.162 22.7368C112.162 21.7042 111.835 20.8672 111.431 20.8672C111.028 20.8672 110.7 21.7042 110.7 22.7368C110.7 23.7693 111.028 24.6064 111.431 24.6064Z" fill="#263238"/>
<path d="M108.423 18.7513C108.423 18.7513 109.4 15.82 111.5 16.6355" stroke="#263238" stroke-width="0.75" stroke-linecap="round" stroke-linejoin="round"/>
<path d="M85.6262 11.5887C85.6262 11.5887 84.8568 6.70312 78.1401 6.70312C71.4234 6.70312 71.3003 16.4666 72.9314 20.552C74.5625 24.6374 80.5791 26.2531 83.3488 24.2989C86.1186 22.3447 86.4264 18.9132 86.4264 17.2975C86.2797 15.3797 86.0124 13.473 85.6262 11.5887Z" fill="#263238" stroke="#263238" stroke-linecap="round" stroke-linejoin="round"/>
<path d="M96.6976 23.9529C96.6976 23.9529 103.861 23.1374 104.999 20.2061C106.138 17.2747 103.861 15.3205 103.537 14.5126C103.214 13.7048 110.7 14.0202 112.001 7.67281C113.301 1.32541 109.4 0.348296 108.261 1.32541C107.123 2.30253 107.123 6.37256 107.123 6.37256C107.123 6.37256 103.699 1.64856 100.606 1.15615C97.5131 0.663747 97.0284 1.81012 97.8363 2.94881C98.7253 4.01019 99.7062 4.99111 100.768 5.88016C100.768 5.88016 91.8197 2.14096 87.3958 7.02654C82.9718 11.9121 80.8868 17.444 84.7952 22.9835C87.1458 26.3076 90.2871 28.994 93.9355 30.8004C93.9355 30.8004 94.2586 26.0764 96.6976 23.9529Z" fill="#263238" stroke="#263238" stroke-linecap="round" stroke-linejoin="round"/>
<path d="M97.6747 25.101C97.6747 25.101 96.3745 19.5691 94.2587 22.3312C92.1429 25.0933 93.9356 28.1939 95.2358 29.4941C96.5361 30.7944 98.9827 29.6557 98.9827 29.6557" fill="white"/>
<path d="M97.6747 25.101C97.6747 25.101 96.3745 19.5691 94.2587 22.3312C92.1429 25.0933 93.9356 28.1939 95.2358 29.4941C96.5361 30.7944 98.9827 29.6557 98.9827 29.6557" stroke="#263238" stroke-linecap="round" stroke-linejoin="round"/>
<path d="M167.681 47.406C167.681 47.406 171.912 50.1757 170.935 51.3144C169.798 52.3749 168.544 53.3016 167.196 54.0765C167.196 54.0765 163.611 52.2915 161.987 51.3144C160.364 50.3373 162.311 48.7062 163.934 47.7291C165.557 46.752 166.704 46.2673 167.681 47.406Z" fill="white" stroke="#263238" stroke-linecap="round" stroke-linejoin="round"/>
<path d="M100.606 46.7487L114.455 50.9803C116.571 51.6342 121.618 51.4727 121.618 51.4727C126.228 51.0594 130.799 50.2877 135.29 49.1645C142.291 47.3719 156.456 46.7179 156.456 46.7179C156.456 46.7179 163.295 44.9252 167.035 45.4176L177.129 46.7179C176.273 47.3819 175.27 47.8305 174.205 48.0258C172.412 48.349 167.85 47.5334 166.873 47.8566C166.045 48.2919 165.323 48.9039 164.757 49.6492C164.757 49.6492 168.012 52.5806 168.012 53.3961C168.012 54.2117 167.688 55.7043 166.711 55.5119C165.734 55.3196 165.734 54.3732 164.403 53.7193C163.072 53.0653 161.633 52.7422 159.841 51.765C158.84 51.2354 157.911 50.5785 157.079 49.8108C156.809 49.5492 148.377 53.9116 147.392 54.3194C143.768 55.8676 140.049 57.1859 136.259 58.2663C129.004 60.3052 121.087 61.567 113.609 60.0667C108.723 59.0896 100.583 56.3275 100.583 56.3275C100.583 56.3275 95.5358 54.0193 95.8667 49.8108C96.1975 45.6023 100.606 46.7487 100.606 46.7487Z" fill="white" stroke="#263238" stroke-linecap="round" stroke-linejoin="round"/>
<path d="M103.86 50.6585C103.86 50.6585 99.6289 43.4955 95.5588 41.5413C91.4888 39.5871 87.3957 44.9574 85.303 49.6814C83.2103 54.4054 83.5488 61.7299 84.0027 68.5774C84.4566 75.4249 87.7496 83.1957 87.7496 83.1957C87.7496 83.1957 80.7482 91.6589 79.1171 99.6374C77.4861 107.616 79.7711 118.033 80.7482 125.196C81.7253 132.359 82.2101 144.246 82.2101 144.246C82.2101 144.246 77.8169 149.132 77.1629 155.156C76.5089 161.18 74.247 187.193 74.247 190.286C74.247 193.379 73.6007 197.941 74.247 198.749C74.8932 199.557 74.9009 199.519 75.5549 199.519C76.2089 199.519 91.5042 198.057 92.8121 196.918C94.1201 195.779 94.7587 194.964 93.2969 194.31C91.835 193.656 79.448 188.924 79.2941 187.639C79.1402 186.354 90.8348 157.226 92.7891 152.017C94.7433 146.808 96.8591 124.011 97.6746 120.595C98.4902 117.179 100.121 110.986 100.121 110.986C105.875 110.55 111.601 109.795 117.271 108.724C128.342 106.77 138.721 101.461 138.721 101.461C138.721 101.461 133.089 112.055 135.144 119.057C137.198 126.058 138.044 135.983 138.483 142.792C138.921 149.601 138.013 148.947 138.921 149.578C139.829 150.209 146.461 147.108 148.3 146.847C150.139 146.585 156.809 145.816 158.948 144.446C161.087 143.077 151.755 141.715 147.838 140.222C143.922 138.73 143.714 137.914 143.714 137.914C143.714 137.914 143.568 132.644 147.977 111.217C150.17 100.53 151.139 91.7666 148.3 90.9049C145.461 90.0432 122.141 90.5202 116.455 91.9897C113.061 92.8567 109.955 94.5998 107.446 97.0445C107.446 97.0445 104.838 85.8116 105.138 81.7415C105.438 77.6715 106.115 72.2935 106.115 72.2935C106.115 72.2935 110.993 70.5085 110.831 66.2693C110.669 62.03 107.415 58.7832 105.945 56.1826C105.019 54.4372 104.318 52.5809 103.86 50.6585Z" fill="white" stroke="#263238" stroke-linecap="round" stroke-linejoin="round"/>
<path d="M93.2971 194.377C92.043 193.824 82.8027 190.284 80.0637 188.461C79.6693 188.876 79.4514 189.427 79.4559 190C79.7183 190.892 80.0449 191.763 80.433 192.608L74.0702 194.331C73.9394 196.424 73.8548 198.294 74.2472 198.794C74.9012 199.563 74.9012 199.563 75.5551 199.563C76.2091 199.563 91.5044 198.101 92.8124 196.963C94.1203 195.824 94.7589 195.031 93.2971 194.377Z" fill="#A9B5FF" stroke="#263238" stroke-linecap="round" stroke-linejoin="round"/>
<path d="M145.584 123.728C146.177 120.35 146.946 116.249 147.977 111.256C150.17 100.569 151.139 91.806 148.3 90.9443C145.461 90.0826 122.141 90.5596 116.455 92.0291C113.162 92.8754 108.862 94.068 108.646 94.3372C108.277 92.7138 105.138 86.6434 105.138 82.5195C98.2749 82.9581 92.0121 83.3889 91.6505 83.5274L85.5801 86.1049C83.3796 89.267 80.1944 94.5681 79.1173 99.646C77.4862 107.624 79.7712 118.042 80.7483 125.205C81.7255 132.368 82.2102 144.255 82.2102 144.255C82.2102 144.255 77.817 149.14 77.163 155.165C76.7476 159.012 73.847 174.522 74.0316 181.67C76.4744 181.862 78.9321 181.675 81.3177 181.116C83.9567 173.553 91.4581 155.619 92.7892 152.072C94.7434 146.863 96.8592 124.066 97.6747 120.65C98.4903 117.234 100.121 111.041 100.121 111.041C105.875 110.605 111.601 109.85 117.271 108.779C128.342 106.824 138.721 101.516 138.721 101.516C138.721 101.516 133.089 112.11 135.144 119.111C135.659 120.881 136.105 122.843 136.482 124.889C139.565 125.2 142.678 124.802 145.584 123.728Z" fill="#263238" stroke="#263238" stroke-linecap="round" stroke-linejoin="round"/>
<path d="M105.169 81.7569C105.492 77.6869 106.146 72.3089 106.146 72.3089C106.146 72.3089 111.024 70.5239 110.862 66.2846C110.7 62.0453 107.446 58.7985 105.976 56.198C105.038 54.4493 104.327 52.5876 103.861 50.6585C103.861 50.6585 99.629 43.4955 95.5589 41.5413C91.4889 39.5871 87.3958 44.9574 85.3031 49.6814C83.2104 54.4054 83.5489 61.7299 84.0028 68.5774C84.4567 75.4249 87.7497 83.1957 87.7497 83.1957C87.7497 83.1957 82.1948 89.9277 79.8328 97.0445C84.181 98.876 88.897 99.6664 93.6047 99.3527C101.352 98.7833 106.623 96.1059 108.646 94.3671C107.892 90.7202 104.953 84.4574 105.169 81.7569Z" fill="#A9B5FF" stroke="#263238" stroke-linecap="round" stroke-linejoin="round"/>
<path d="M99.306 60.4297C99.306 60.4297 95.1821 63.5765 87.4883 65.1152" stroke="#263238" stroke-linecap="round" stroke-linejoin="round"/>
<path d="M99.7982 61.6523C99.7982 61.6523 95.9513 67.038 91.7197 68.5768" stroke="#263238" stroke-linecap="round" stroke-linejoin="round"/>
<path d="M87.3957 93.7422C86.5647 94.2269 85.7107 94.6885 84.8259 95.1194" stroke="#263238" stroke-linecap="round" stroke-linejoin="round"/>
<path d="M103.645 77.8125C100.167 83.188 95.7338 87.8816 90.5657 91.6614" stroke="#263238" stroke-linecap="round" stroke-linejoin="round"/>
<path d="M114.609 19.6538V23.293C114.607 23.4797 114.673 23.6607 114.795 23.8022C114.917 23.9438 115.086 24.0363 115.271 24.0624L137.96 27.0322C138.068 27.0453 138.178 27.0352 138.282 27.0024C138.387 26.9697 138.483 26.9151 138.564 26.8423C138.646 26.7695 138.711 26.6802 138.755 26.5802C138.8 26.4803 138.822 26.3721 138.821 26.2628L138.86 18.9999C138.86 18.7958 138.779 18.6001 138.634 18.4558C138.49 18.3115 138.294 18.2305 138.09 18.2305L115.355 18.8383C115.252 18.8412 115.151 18.8648 115.057 18.9077C114.963 18.9506 114.879 19.0119 114.809 19.088C114.74 19.164 114.686 19.2533 114.652 19.3505C114.617 19.4478 114.603 19.5509 114.609 19.6538Z" fill="#263238" stroke="#263238" stroke-linecap="round" stroke-linejoin="round"/>
<path d="M121.61 28.032C121.61 28.032 117.209 26.8933 116.886 25.5854C116.693 24.8304 116.585 24.0562 116.563 23.2772C116.563 23.2772 118.679 23.7696 119.333 23.4388C119.987 23.108 119.495 13.9985 120.31 13.5137C121.126 13.029 123.726 11.8827 124.703 14.16C125.68 16.4374 125.026 15.7911 125.026 15.7911C125.886 15.6104 126.775 15.6104 127.635 15.7911C128.499 16.1092 129.286 16.6075 129.943 17.2529C129.943 17.2529 132.059 16.9298 132.551 18.3916C133.043 19.8535 130.758 26.047 129.289 28.8168C127.819 31.5865 127.335 32.7175 127.335 32.7175C127.335 32.7175 125.38 57.1454 124.257 61.8617C123.134 66.578 121.249 69.3478 120.418 69.3478C119.587 69.3478 105.169 62.6773 99.3059 60.3999C93.4432 58.1225 89.5348 58.7073 88.5346 52.8446C87.5344 46.9819 91.6121 45.5816 95.0513 45.5816C98.4904 45.5816 116.379 56.353 116.379 56.353C116.379 56.353 122.072 39.4265 122.072 34.8641C122.132 32.5773 121.977 30.29 121.61 28.032Z" fill="white" stroke="#263238" stroke-linecap="round" stroke-linejoin="round"/>
<path d="M158.948 144.517C161.095 143.155 151.755 141.785 147.839 140.293C146.716 139.887 145.636 139.372 144.615 138.754C144.423 138.959 144.276 139.202 144.182 139.466C144.088 139.731 144.049 140.012 144.069 140.293C144.167 141.269 144.374 142.231 144.684 143.162C144.684 143.162 141.16 144.124 138.583 144.909C138.737 149.525 138.121 149.102 138.921 149.641C139.722 150.179 146.461 147.171 148.3 146.909C150.139 146.648 156.81 145.886 158.948 144.517Z" fill="#A9B5FF" stroke="#263238" stroke-linecap="round" stroke-linejoin="round"/>
<path d="M100.121 111.054L104.03 102.43" stroke="#263238" stroke-width="0.75" stroke-linecap="round" stroke-linejoin="round"/>
<path d="M133.505 232.581C136.811 232.581 139.491 229.901 139.491 226.595C139.491 223.289 136.811 220.609 133.505 220.609C130.199 220.609 127.519 223.289 127.519 226.595C127.519 229.901 130.199 232.581 133.505 232.581Z" fill="#263238" stroke="#263238" stroke-width="0.75" stroke-linecap="round" stroke-linejoin="round"/>
<path d="M129.712 221.514C129.712 221.514 130.981 226.954 131.705 228.046C132.428 229.139 134.782 229.677 135.336 227.315C135.89 224.953 133.343 221.16 133.343 221.16L129.712 221.514Z" fill="white" stroke="#263238" stroke-width="0.75" stroke-linecap="round" stroke-linejoin="round"/>
<path d="M56.028 232.581C59.3339 232.581 62.0138 229.901 62.0138 226.595C62.0138 223.289 59.3339 220.609 56.028 220.609C52.7222 220.609 50.0422 223.289 50.0422 226.595C50.0422 229.901 52.7222 232.581 56.028 232.581Z" fill="#263238" stroke="#263238" stroke-width="0.75" stroke-linecap="round" stroke-linejoin="round"/>
<path d="M59.8366 221.514C59.8366 221.514 58.5671 226.954 57.8439 228.046C57.1207 229.139 54.7664 229.677 54.2124 227.315C53.6585 224.953 56.2128 221.16 56.2128 221.16L59.8366 221.514Z" fill="white" stroke="#263238" stroke-width="0.75" stroke-linecap="round" stroke-linejoin="round"/>
<path d="M148.785 170.71C148.86 170.535 148.894 170.346 148.883 170.156C148.872 169.967 148.818 169.782 148.723 169.617L147.492 148.675C147.475 148.39 147.364 148.119 147.176 147.904C146.988 147.69 146.734 147.544 146.454 147.49L50.6963 128.878L49.1575 120.754C48.9356 119.592 48.3187 118.543 47.4114 117.784C46.5041 117.026 45.3623 116.604 44.1796 116.591L26.4838 116.438C26.1431 116.438 25.8163 116.573 25.5753 116.814C25.3343 117.055 25.199 117.382 25.199 117.722C25.199 118.063 25.3343 118.39 25.5753 118.631C25.8163 118.872 26.1431 119.007 26.4838 119.007L44.1796 119.161C44.7668 119.168 45.3334 119.379 45.7834 119.756C46.2335 120.133 46.5394 120.654 46.6493 121.231L55.6742 169.148C55.6742 169.148 55.6742 169.209 55.6742 169.24C55.6699 169.44 55.7148 169.638 55.805 169.817L61.5677 200.385C61.4596 200.672 61.4596 200.99 61.5677 201.277C61.5677 201.277 62.8218 204.793 61.183 209.864C59.9814 213.268 58.0515 216.369 55.528 218.95C55.3313 219.147 55.2066 219.404 55.1741 219.681H48.4343C48.2656 219.681 48.0985 219.714 47.9426 219.779C47.7867 219.843 47.6451 219.938 47.5258 220.057C47.4065 220.177 47.3118 220.318 47.2473 220.474C47.1827 220.63 47.1494 220.797 47.1494 220.966C47.1494 221.135 47.1827 221.302 47.2473 221.457C47.3118 221.613 47.4065 221.755 47.5258 221.874C47.6451 221.994 47.7867 222.088 47.9426 222.153C48.0985 222.217 48.2656 222.251 48.4343 222.251H136.044C136.385 222.251 136.711 222.115 136.952 221.874C137.193 221.633 137.329 221.307 137.329 220.966C137.329 220.625 137.193 220.298 136.952 220.057C136.711 219.816 136.385 219.681 136.044 219.681H96.5592C95.7898 217.319 94.8896 212.064 97.8902 209.41C101.588 206.179 104.159 201.853 105.23 197.061L148.785 190.86C149.104 190.816 149.395 190.653 149.599 190.403C149.804 190.153 149.906 189.835 149.885 189.513L148.785 170.71ZM107.461 194.122L107.154 191.545L113.593 190.891L113.793 193.199L107.461 194.122ZM98.1672 195.445L97.7979 192.491L104.599 191.806L104.915 194.484L98.1672 195.445ZM66.6764 134.603L68.7922 147.821L61.283 147.051L58.6748 133.056L66.6764 134.603ZM78.4479 136.911L79.8174 148.936L71.4465 148.09L69.3615 135.149L78.4479 136.911ZM88.4499 138.857L89.8502 149.944L82.441 149.175L81.0946 137.403L88.4499 138.857ZM98.6211 140.835L99.7983 150.898L92.4661 150.129L91.1043 139.357L98.6211 140.835ZM146.115 168.948L135.244 168.832C134.944 164.593 134.659 160.515 134.42 157.022L145.476 158.138L146.115 168.948ZM132.659 168.802L124.672 168.717L123.803 155.953L131.828 156.722C132.066 160.315 132.359 164.516 132.651 168.779L132.659 168.802ZM75.0857 170.733L82.3102 170.81L84.6184 191.237L78.4633 191.86L75.0857 170.733ZM75.9243 192.122L69.7693 192.737L65.6531 170.633L72.4544 170.71L75.9243 192.122ZM101.853 168.448L94.7434 168.371L92.7815 152.806L100.091 153.576L101.853 168.448ZM102.722 153.829L110.416 154.599L111.662 168.594L104.453 168.517L102.722 153.829ZM92.1506 168.371L84.6107 168.286L82.7257 151.814L90.1579 152.583L92.1506 168.371ZM82.0102 168.24L74.6626 168.155L71.8466 150.698L80.0944 151.529L82.0102 168.24ZM84.8953 170.841L92.4661 170.925L94.8896 190.198L87.1958 190.968L84.8953 170.841ZM95.0589 170.948L102.145 171.025L104.322 189.252L97.4901 189.937L95.0589 170.948ZM104.738 171.056L111.87 171.133L113.355 188.329L106.838 188.99L104.738 171.056ZM114.455 171.156L122.241 171.241L123.334 187.321L115.917 188.09L114.455 171.156ZM114.247 168.594L113.055 154.853L121.202 155.676L122.087 168.679L114.247 168.594ZM123.618 153.337L123.095 145.574L131.166 147.113C131.228 148.182 131.404 150.729 131.635 154.114L123.618 153.337ZM121.026 153.075L112.832 152.245L112.062 143.435L120.479 145.059L121.026 153.075ZM110.254 151.983L102.445 151.214L101.245 141.327L109.423 142.912L110.254 151.983ZM69.2384 150.444L72.0928 168.14L65.2222 168.063L61.7985 149.69L69.2384 150.444ZM62.5986 168.04L58.0824 167.994L54.4971 148.959L59.1133 149.429L62.5986 168.04ZM63.0833 170.617L67.2534 193.014L62.8756 193.46L58.5671 170.571L63.0833 170.617ZM63.3526 196.007L67.7304 195.568L68.4998 199.7L64.1605 200.316L63.3526 196.007ZM71.0465 199.338L70.2771 195.307L76.3398 194.691L76.9553 198.492L71.0465 199.338ZM79.5097 198.131L78.9172 194.437L84.9569 193.822L85.3493 197.3L79.5097 198.131ZM87.8959 196.938L87.5112 193.56L95.2051 192.791L95.5897 195.869L87.8959 196.938ZM116.163 190.668L123.534 189.898L123.665 191.822L116.355 192.86L116.163 190.668ZM126.096 189.66L134.067 188.89C134.105 189.429 134.136 189.921 134.167 190.391L126.219 191.522L126.096 189.66ZM125.919 187.09L124.849 171.302L132.843 171.387C133.22 176.772 133.613 182.158 133.882 186.29L125.919 187.09ZM135.421 171.418L146.261 171.533L147.031 184.959L136.421 186.028C136.121 181.512 135.767 176.411 135.413 171.387L135.421 171.418ZM145.315 155.514L134.236 154.399C134.02 151.321 133.859 148.952 133.774 147.644L144.984 149.821L145.315 155.514ZM55.9589 132.525L58.6209 146.774L54.0046 146.313L51.2349 131.594L55.9589 132.525ZM96.1822 207.486C92.4738 210.764 93.02 216.442 93.874 219.681H58.3286C60.6611 217.049 62.4497 213.982 63.5911 210.656C64.4371 208.143 64.7335 205.477 64.4605 202.839L69.8001 202.07C69.8641 202.074 69.9284 202.074 69.9924 202.07C70.0692 202.077 70.1465 202.077 70.2232 202.07C70.3438 202.045 70.4603 202.004 70.5694 201.947L102.483 197.4C101.407 201.302 99.2173 204.807 96.1822 207.486ZM136.713 189.952C136.713 189.506 136.652 189.036 136.621 188.567L147.192 187.498L147.254 188.459L136.713 189.952Z" fill="white" stroke="#263238" stroke-linecap="round" stroke-linejoin="round"/>
<path d="M41.3328 119.936H22.6445C22.2947 119.955 21.9446 119.903 21.6158 119.782C21.2869 119.662 20.986 119.475 20.7316 119.234C20.4773 118.993 20.2746 118.703 20.1362 118.381C19.9977 118.06 19.9263 117.713 19.9263 117.363C19.9263 117.012 19.9977 116.666 20.1362 116.344C20.2746 116.022 20.4773 115.732 20.7316 115.491C20.986 115.25 21.2869 115.064 21.6158 114.943C21.9446 114.822 22.2947 114.77 22.6445 114.789H41.3328C41.991 114.825 42.6104 115.112 43.0636 115.591C43.5168 116.069 43.7694 116.703 43.7694 117.363C43.7694 118.022 43.5168 118.656 43.0636 119.135C42.6104 119.613 41.991 119.9 41.3328 119.936Z" fill="#263238" stroke="#263238" stroke-linecap="round" stroke-linejoin="round"/>
<path d="M70.2847 20.5352H54.874" stroke="#263238" stroke-linecap="round" stroke-linejoin="round"/>
<path d="M38.694 49.1172H34.2854" stroke="#263238" stroke-linecap="round" stroke-linejoin="round"/>
<path d="M79.1711 49.1172H44.5566" stroke="#263238" stroke-linecap="round" stroke-linejoin="round"/>
<path d="M48.9344 135.52H0.871094" stroke="#263238" stroke-linecap="round" stroke-linejoin="round"/>
<path d="M31.1155 144.707H10.5884" stroke="#263238" stroke-linecap="round" stroke-linejoin="round"/>
<path d="M76.3243 101.945H58.6516" stroke="#263238" stroke-linecap="round" stroke-linejoin="round"/>
<path d="M135.336 120.941H121.295" stroke="#263238" stroke-linecap="round" stroke-linejoin="round"/>
<path d="M128.319 117.703H109.416" stroke="#263238" stroke-linecap="round" stroke-linejoin="round"/>
</svg>
