<svg width="25" height="22" viewBox="0 0 25 22" fill="none" xmlns="http://www.w3.org/2000/svg">
<path d="M9.43877 22H0V12.5349C0 10.8295 0.170068 9.23773 0.510204 7.75969C0.907029 6.22481 1.47392 4.88889 2.21088 3.75194C3.00454 2.61499 3.9966 1.70543 5.18708 1.02326C6.37755 0.341088 7.76644 0 9.35374 0V4.26357C8.39002 4.26357 7.59637 4.51938 6.97279 5.03101C6.34921 5.48579 5.839 6.11111 5.44218 6.90698C5.04535 7.70284 4.7619 8.61241 4.59184 9.63566C4.47846 10.6021 4.42177 11.5685 4.42177 12.5349H9.43877V22ZM25 22H15.5612V12.5349C15.5612 10.8295 15.7313 9.23773 16.0714 7.75969C16.4683 6.22481 17.0351 4.88889 17.7721 3.75194C18.5658 2.61499 19.5578 1.70543 20.7483 1.02326C21.9388 0.341088 23.3277 0 24.915 0V4.26357C23.9512 4.26357 23.1576 4.51938 22.534 5.03101C21.9104 5.48579 21.4002 6.11111 21.0034 6.90698C20.6066 7.70284 20.3231 8.61241 20.1531 9.63566C20.0397 10.6021 19.983 11.5685 19.983 12.5349H25V22Z" fill="#CBD5E1"/>
</svg>
