<svg width="16" height="17" viewBox="0 0 16 17" fill="none" xmlns="http://www.w3.org/2000/svg">
<path d="M14 9.21166V13.1483C14 13.895 13.3993 14.5003 12.658 14.5003H3.342C2.60067 14.5003 2 13.895 2 13.1483V4.51899C2 3.77233 2.60067 3.16699 3.342 3.16699H8" stroke="#7487FF" stroke-linecap="round" stroke-linejoin="round"/>
<path d="M5.21875 11.9482L7.70608 11.3262C7.82342 11.2968 7.93008 11.2362 8.01608 11.1508L13.6094 5.55749C14.1301 5.03683 14.1301 4.19283 13.6094 3.67216L13.4947 3.55749C12.9741 3.03683 12.1301 3.03683 11.6094 3.55749L6.01608 9.15083C5.93075 9.23616 5.87008 9.34349 5.84075 9.46083L5.21875 11.9482" stroke="#7487FF" stroke-linecap="round" stroke-linejoin="round"/>
<path d="M10.5532 4.61328L12.5532 6.61328" stroke="#7487FF" stroke-linecap="round" stroke-linejoin="round"/>
<path d="M7.69722 11.3279C7.70656 11.2573 7.71856 11.1873 7.71856 11.1139C7.71856 10.1933 6.97256 9.44727 6.05189 9.44727C5.97856 9.44727 5.90856 9.45993 5.83789 9.4686" stroke="#7487FF" stroke-linecap="round" stroke-linejoin="round"/>
</svg>
