<svg width="220" height="205" viewBox="0 0 220 205" fill="none" xmlns="http://www.w3.org/2000/svg">
<path d="M56.0831 125.546C66.4077 115.221 66.4077 98.4818 56.0831 88.1572C45.7585 77.8326 29.019 77.8326 18.6944 88.1572C8.36975 98.4818 8.36975 115.221 18.6944 125.546C29.019 135.871 45.7585 135.871 56.0831 125.546Z" fill="#F8FAFC" stroke="#031B89" stroke-linecap="round" stroke-linejoin="round"/>
<path d="M59.3785 102.802C59.3782 104.571 58.8233 106.296 57.7917 107.734C56.7601 109.172 55.3037 110.251 53.6273 110.818L41.8177 114.796L27.4441 119.651C25.3267 120.347 23.02 120.178 21.0267 119.181C19.0334 118.184 17.515 116.439 16.8026 114.327C16.0901 112.215 16.2412 109.907 17.2231 107.906C18.2049 105.905 19.9378 104.373 22.0442 103.644L35.1006 99.2543L48.2186 94.8641C49.4877 94.4372 50.84 94.3178 52.1642 94.5158C53.4885 94.7137 54.7468 95.2233 55.8356 96.0026C56.9244 96.7819 57.8125 97.8086 58.4269 98.9983C59.0414 100.188 59.3645 101.507 59.3697 102.845L59.3785 102.802Z" fill="#F8FAFC"/>
<path d="M59.3789 102.8C59.3787 104.569 58.8237 106.294 57.7921 107.732C56.7605 109.17 55.3041 110.249 53.6277 110.816L41.8181 114.794C41.5032 108.976 39.1212 103.461 35.1011 99.2435L48.219 94.8533C49.4881 94.4265 50.8404 94.3071 52.1647 94.505C53.4889 94.703 54.7472 95.2126 55.836 95.9919C56.9248 96.7712 57.8129 97.7979 58.4274 98.9875C59.0418 100.177 59.3649 101.496 59.3701 102.835L59.3789 102.8Z" fill="#A9B5FF"/>
<path d="M59.3785 102.802C59.3782 104.571 58.8233 106.296 57.7917 107.734C56.7601 109.172 55.3037 110.251 53.6273 110.818L41.8177 114.796L27.4441 119.651C25.3267 120.347 23.02 120.178 21.0267 119.181C19.0334 118.184 17.515 116.439 16.8026 114.327C16.0901 112.215 16.2412 109.907 17.2231 107.906C18.2049 105.905 19.9378 104.373 22.0442 103.644L35.1006 99.2543L48.2186 94.8641C49.4877 94.4372 50.84 94.3178 52.1642 94.5158C53.4885 94.7137 54.7468 95.2233 55.8356 96.0026C56.9244 96.7819 57.8125 97.8086 58.4269 98.9983C59.0414 100.188 59.3645 101.507 59.3697 102.845L59.3785 102.802Z" stroke="#031B89" stroke-linecap="round" stroke-linejoin="round"/>
<path d="M41.8181 114.794C41.5494 108.965 39.1607 103.435 35.1011 99.2441" stroke="#031B89" stroke-linecap="round" stroke-linejoin="round"/>
<path d="M56.5508 99.6475C57.1052 100.581 57.3851 101.652 57.3586 102.738" stroke="#F8FAFC" stroke-linecap="round" stroke-linejoin="round"/>
<path d="M38.4365 100.526L48.973 97.014C49.9181 96.6899 50.9232 96.5793 51.9161 96.6902C52.909 96.801 53.8651 97.1305 54.7154 97.655" stroke="#F8FAFC" stroke-linecap="round" stroke-linejoin="round"/>
<path d="M167.849 58.9987C181.295 53.3076 187.582 37.7936 181.891 24.3471C176.2 10.9007 160.686 4.61373 147.24 10.3048C133.793 15.9959 127.506 31.5099 133.197 44.9563C138.888 58.4028 154.402 64.6897 167.849 58.9987Z" fill="#F8FAFC" stroke="#031B89" stroke-linecap="round" stroke-linejoin="round"/>
<path d="M166.662 45.7178L143.605 37.9999C141.687 37.3553 140.104 35.9759 139.204 34.1648C138.303 32.3537 138.159 30.2591 138.802 28.3414C139.446 26.4242 140.826 24.8413 142.637 23.9407C144.448 23.0401 146.542 22.8954 148.46 23.5385L171.518 31.2477C173.433 31.8942 175.015 33.2739 175.915 35.0844C176.815 36.8948 176.961 38.9884 176.32 40.9062C175.676 42.8236 174.297 44.407 172.486 45.3091C170.675 46.2111 168.581 46.3581 166.662 45.7178Z" fill="#A9B5FF"/>
<path d="M149.768 37.3854L153.631 28.1572" stroke="#031B89" stroke-linecap="round" stroke-linejoin="round"/>
<path d="M162.473 41.6091L166.319 32.4072" stroke="#031B89" stroke-linecap="round" stroke-linejoin="round"/>
<path d="M152.955 37.9301C153.386 37.9301 153.736 37.5802 153.736 37.1486C153.736 36.7171 153.386 36.3672 152.955 36.3672C152.523 36.3672 152.173 36.7171 152.173 37.1486C152.173 37.5802 152.523 37.9301 152.955 37.9301Z" fill="#031B89"/>
<path d="M160.638 39.4504C160.638 39.605 160.592 39.756 160.506 39.8846C160.421 40.0131 160.298 40.1132 160.156 40.1724C160.013 40.2315 159.856 40.247 159.704 40.2168C159.553 40.1867 159.413 40.1123 159.304 40.003C159.195 39.8937 159.12 39.7544 159.09 39.6029C159.06 39.4513 159.076 39.2941 159.135 39.1514C159.194 39.0086 159.294 38.8865 159.423 38.8006C159.551 38.7148 159.702 38.6689 159.857 38.6689C160.064 38.6689 160.263 38.7513 160.409 38.8978C160.556 39.0444 160.638 39.2431 160.638 39.4504Z" fill="#031B89"/>
<path d="M155.985 30.978C156.417 30.978 156.767 30.6281 156.767 30.1965C156.767 29.7649 156.417 29.415 155.985 29.415C155.553 29.415 155.204 29.7649 155.204 30.1965C155.204 30.6281 155.553 30.978 155.985 30.978Z" fill="#031B89"/>
<path d="M163.554 32.425C163.554 32.5796 163.508 32.7307 163.422 32.8592C163.336 32.9877 163.214 33.0878 163.071 33.147C162.928 33.2061 162.771 33.2216 162.62 33.1915C162.468 33.1613 162.329 33.0869 162.22 32.9776C162.11 32.8683 162.036 32.7291 162.006 32.5775C161.976 32.4259 161.991 32.2688 162.05 32.126C162.109 31.9832 162.209 31.8611 162.338 31.7753C162.467 31.6894 162.618 31.6436 162.772 31.6436C162.979 31.6436 163.178 31.7259 163.325 31.8724C163.471 32.019 163.554 32.2178 163.554 32.425Z" fill="#031B89"/>
<path d="M166.662 45.7178L143.605 37.9999C141.687 37.3553 140.104 35.9759 139.204 34.1648C138.303 32.3537 138.159 30.2591 138.802 28.3414C139.446 26.4242 140.826 24.8413 142.637 23.9407C144.448 23.0401 146.542 22.8954 148.46 23.5385L171.518 31.2477C173.433 31.8942 175.015 33.2739 175.915 35.0844C176.815 36.8948 176.961 38.9884 176.32 40.9062C175.676 42.8236 174.297 44.407 172.486 45.3091C170.675 46.2111 168.581 46.3581 166.662 45.7178Z" stroke="#031B89" stroke-linecap="round" stroke-linejoin="round"/>
<path d="M70.7576 59.652C85.3588 59.652 97.1954 47.8154 97.1954 33.2142C97.1954 18.613 85.3588 6.77637 70.7576 6.77637C56.1564 6.77637 44.3198 18.613 44.3198 33.2142C44.3198 47.8154 56.1564 59.652 70.7576 59.652Z" fill="#F8FAFC" stroke="#031B89" stroke-linecap="round" stroke-linejoin="round"/>
<path d="M85.9037 33.8912V44.7263C85.9037 47.4745 84.1477 49.7048 81.9965 49.7048H59.5186C57.3586 49.7048 55.6113 47.4745 55.6113 44.7263V33.8912C55.6113 31.143 57.3674 28.9127 59.5186 28.9127H63.2152V22.626H78.1419V28.9127H81.9701C84.1477 28.9127 85.9037 31.143 85.9037 33.8912Z" fill="#F8FAFC" stroke="#031B89" stroke-linecap="round" stroke-linejoin="round"/>
<path d="M85.895 35.1387H55.6113V41.8557H85.895V35.1387Z" fill="#A9B5FF" stroke="#031B89" stroke-miterlimit="10"/>
<path d="M65.279 15.2695H76.3775C77.6303 15.2695 78.8319 15.7672 79.7177 16.6531C80.6036 17.539 81.1013 18.7406 81.1013 19.9934V24.9017H60.5464V19.9934C60.5464 19.3723 60.6689 18.7573 60.9068 18.1836C61.1448 17.6099 61.4935 17.0888 61.9331 16.65C62.3727 16.2113 62.8945 15.8635 63.4686 15.6266C64.0427 15.3897 64.6579 15.2684 65.279 15.2695Z" fill="#A9B5FF" stroke="#031B89" stroke-miterlimit="10"/>
<path d="M64.1377 15.5664V24.9" stroke="#031B89" stroke-linecap="round" stroke-linejoin="round"/>
<path d="M68.9927 15.2695V24.9016" stroke="#031B89" stroke-linecap="round" stroke-linejoin="round"/>
<path d="M73.8481 15.2695V24.9016" stroke="#031B89" stroke-linecap="round" stroke-linejoin="round"/>
<path d="M78.7046 15.8115V24.8993" stroke="#031B89" stroke-linecap="round" stroke-linejoin="round"/>
<path d="M104.545 177.744C106.907 163.335 97.1408 149.739 82.7319 147.377C68.3231 145.015 54.7275 154.781 52.3654 169.19C50.0033 183.599 59.7691 197.194 74.1779 199.556C88.5868 201.918 102.182 192.153 104.545 177.744Z" fill="#F8FAFC" stroke="#031B89" stroke-linecap="round" stroke-linejoin="round"/>
<path d="M91.8664 180.29C94.746 174.201 90.7867 166.288 83.023 162.617C75.2593 158.945 66.6312 160.905 63.7516 166.994C60.872 173.083 64.8313 180.996 72.595 184.667C80.3587 188.339 88.9868 186.379 91.8664 180.29Z" fill="#A9B5FF" stroke="#031B89" stroke-linecap="round" stroke-linejoin="round"/>
<path d="M92.8268 178.218C95.5281 172.506 91.4242 164.899 83.6605 161.227C75.8968 157.556 67.4133 159.21 64.712 164.922C62.0106 170.634 66.1145 178.241 73.8782 181.913C81.6419 185.584 90.1255 183.93 92.8268 178.218Z" fill="#A9B5FF" stroke="#031B89" stroke-linecap="round" stroke-linejoin="round"/>
<path d="M83.2532 163.754L73.6562 177.249" stroke="#031B89" stroke-linecap="round" stroke-linejoin="round"/>
<path d="M77.4761 161.566C78.7623 161.74 80.0293 162.034 81.2604 162.444" stroke="#F8FAFC" stroke-linecap="round" stroke-linejoin="round"/>
<path d="M68.9505 174.273C68.9505 174.273 64.0511 168.908 68.8364 163.736C69.9407 162.611 71.3788 161.872 72.9368 161.629" stroke="#F8FAFC" stroke-linecap="round" stroke-linejoin="round"/>
<path d="M184.692 178.911C187.054 164.502 177.288 150.906 162.879 148.544C148.471 146.182 134.875 155.948 132.513 170.357C130.151 184.766 139.917 198.361 154.325 200.723C168.734 203.085 182.33 193.32 184.692 178.911Z" fill="#F8FAFC" stroke="#031B89" stroke-linecap="round" stroke-linejoin="round"/>
<path d="M173.777 177.285C173.575 177.575 173.373 177.874 173.162 178.163C169.202 183.651 163.1 188.77 158.578 189.78V189.71C154.188 188.726 148.279 183.853 144.319 178.532C144.099 178.242 143.888 177.944 143.686 177.654C139.876 172.193 138.269 166.459 142.51 164.088C151.132 159.277 158.578 169.594 158.578 169.594C158.578 169.594 166.041 159.356 174.646 164.159C178.773 166.459 177.359 171.956 173.777 177.285Z" fill="#A9B5FF" stroke="#031B89" stroke-miterlimit="10"/>
<path d="M173.777 177.285C173.575 177.575 173.373 177.873 173.162 178.163H170.985L168.491 181.456L166.797 171.692L164.162 178.33H157.937L154.75 183.642L152.291 172.886L149.122 178.497H144.319C144.099 178.207 143.888 177.909 143.687 177.619H148.612L152.643 170.48L155.119 181.324L157.463 177.417H163.609L167.121 168.426L169 179.278L170.537 177.25L173.777 177.285Z" fill="#F8FAFC"/>
<path d="M192.076 133.025C206.677 133.025 218.514 121.188 218.514 106.587C218.514 91.986 206.677 80.1494 192.076 80.1494C177.475 80.1494 165.638 91.986 165.638 106.587C165.638 121.188 177.475 133.025 192.076 133.025Z" fill="#F8FAFC" stroke="#031B89" stroke-linecap="round" stroke-linejoin="round"/>
<path d="M190.091 94.3634C190.345 94.9341 188.756 96.1985 186.579 97.1907C184.401 98.1828 182.364 98.5253 182.109 97.9458C181.855 97.3663 183.435 96.1107 185.622 95.1185C187.808 94.1263 189.827 93.819 190.091 94.3634Z" fill="#F8FAFC" stroke="#031B89" stroke-linecap="round" stroke-linejoin="round"/>
<path d="M201.989 118.887L194.078 122.715L186.983 108.104L182.084 98.007L189.995 94.1699L194.772 104.022L201.989 118.887Z" fill="#F8FAFC" stroke="#031B89" stroke-linecap="round" stroke-linejoin="round"/>
<path d="M183.55 101.018L186.983 99.4287L183.55 101.018Z" fill="#A9B5FF"/>
<path d="M183.55 101.018L186.983 99.4287" stroke="#031B89" stroke-linecap="round" stroke-linejoin="round"/>
<path d="M185.042 104.199L188.476 102.609L185.042 104.199Z" fill="#A9B5FF"/>
<path d="M185.042 104.199L188.476 102.609" stroke="#031B89" stroke-linecap="round" stroke-linejoin="round"/>
<path d="M197.106 121.249L201.189 126.605L199.152 120.257L197.106 121.249Z" fill="#F8FAFC" stroke="#031B89" stroke-linecap="round" stroke-linejoin="round"/>
<path d="M201.989 118.886C200.137 120.74 197.774 122 195.202 122.503L194.078 122.714L186.983 108.103L194.772 104.021L201.989 118.886Z" fill="#A9B5FF" stroke="#031B89" stroke-miterlimit="10"/>
<path d="M188.476 110.88L191.707 109.388" stroke="#031B89" stroke-linecap="round" stroke-linejoin="round"/>
<path d="M190.25 114.277L193.42 112.828L190.25 114.277Z" fill="#A9B5FF"/>
<path d="M190.25 114.277L193.42 112.828" stroke="#031B89" stroke-linecap="round" stroke-linejoin="round"/>
<path d="M184.824 96.673L182.321 91.0448L184.288 89.9297L186.984 95.6282L184.824 96.673Z" fill="#F8FAFC" stroke="#031B89" stroke-linecap="round" stroke-linejoin="round"/>
<path d="M189.116 89.2458L188.519 87.9287L177.982 92.6438L178.579 93.9609C178.825 94.5228 181.38 93.9082 184.296 92.6087C187.211 91.3092 189.362 89.7989 189.116 89.2458Z" fill="#F8FAFC" stroke="#031B89" stroke-linecap="round" stroke-linejoin="round"/>
<path d="M188.52 87.9275C188.274 87.3743 185.71 87.9802 182.804 89.2797C179.898 90.5792 177.738 92.0894 177.983 92.6426C178.229 93.1957 180.793 92.5899 183.699 91.2816C186.606 89.9733 188.766 88.4807 188.52 87.9275Z" fill="#F8FAFC" stroke="#031B89" stroke-linecap="round" stroke-linejoin="round"/>
</svg>
