<svg width="75" height="144" viewBox="0 0 75 144" fill="none" xmlns="http://www.w3.org/2000/svg">
<path d="M12.1289 143L17.2158 138.931L23.4415 133.954L41.5579 119.456L41.6966 119.548L41.7139 119.56L41.7255 119.571L59.6106 131.954L65.9924 136.37L71.3163 140.058L49.7374 47.5107L48.4946 47.5454L46.9107 47.5859L25.5341 48.164L12.1289 143Z" fill="#031B89" stroke="#031B89" stroke-linecap="round" stroke-linejoin="round"/>
<path d="M17.2158 138.931L23.4415 133.954L31.2684 48.164L41.7255 47.7305L28.0544 48.164L17.2158 138.931Z" fill="white" stroke="#031B89" stroke-linecap="round" stroke-linejoin="round"/>
<path d="M46.9048 47.5628L46.9106 47.5859L59.6105 131.954L65.9923 136.37L48.4944 47.5454L48.4887 47.5107L46.9048 47.5628Z" fill="white" stroke="#031B89" stroke-linecap="round" stroke-linejoin="round"/>
<path d="M2.99324 38.2021C2.99324 36.9253 0.87939 35.5556 1.00542 34.3136C1.13145 33.0716 3.48592 32.143 3.74371 30.9242C4.0015 29.7054 2.21416 27.8946 2.59798 26.699C2.9818 25.5035 5.46229 25.1146 5.97214 23.9655C6.48199 22.8163 5.10139 20.6863 5.72581 19.5952C6.35024 18.5041 8.85937 18.6492 9.58691 17.6336C10.3144 16.6179 9.40933 14.2442 10.24 13.3098C11.0706 12.3754 13.4996 13.0428 14.4219 12.2013C15.3442 11.3597 14.9375 8.84668 15.9457 8.1038C16.9539 7.36092 19.1824 8.52747 20.2594 7.89486C21.3364 7.26225 21.4509 4.72601 22.5909 4.20948C23.7309 3.69294 25.6615 5.30638 26.853 4.91753C28.0446 4.52868 28.669 2.06789 29.8949 1.80672C31.1209 1.54555 32.6676 3.54785 33.905 3.40276C35.1424 3.25766 36.2595 1 37.514 1C38.7686 1 39.9029 3.27507 41.1288 3.40276C42.3547 3.53044 43.9473 1.54555 45.1389 1.80672C46.3304 2.06789 47.0064 4.52868 48.1808 4.91753C49.3551 5.30638 51.3143 3.69875 52.4429 4.20948C53.5714 4.72021 53.7261 7.29708 54.7744 7.87745C55.8228 8.45783 58.0856 7.34351 59.0881 8.08639C60.0906 8.82927 59.6896 11.3423 60.6119 12.1838C61.5342 13.0254 63.9574 12.358 64.7938 13.2924C65.6302 14.2268 64.7136 16.6005 65.4469 17.6162C66.1802 18.6318 68.6836 18.4867 69.308 19.5778C69.9324 20.6689 68.5518 22.7931 69.0617 23.9481C69.5715 25.103 72.052 25.4803 72.4358 26.6874C72.8196 27.8946 71.0323 29.6648 71.2901 30.9068C71.5479 32.1488 73.8966 33.0309 74.0227 34.2962C74.1487 35.5614 72.0406 36.9078 72.0406 38.1847C72.0406 39.4615 74.1544 40.8312 74.0227 42.0732C73.8909 43.3152 71.5479 44.238 71.2901 45.4626C71.0323 46.6872 72.8196 48.4921 72.4358 49.6819C72.052 50.8717 69.5715 51.2722 69.0617 52.4155C68.5518 53.5588 69.9324 55.7004 69.308 56.7857C68.6836 57.871 66.1744 57.7317 65.4469 58.7474C64.7194 59.763 65.6245 62.1426 64.7938 63.077C63.9632 64.0114 61.5342 63.3382 60.6119 64.1855C59.6896 65.0329 60.0963 67.5401 59.0881 68.283C58.0799 69.0258 55.8514 67.8535 54.7744 68.4861C53.6974 69.1187 53.5829 71.6608 52.4429 72.1773C51.3029 72.6938 49.3666 71.0746 48.1808 71.4692C46.9949 71.8639 46.3648 74.3131 45.1389 74.5742C43.9129 74.8354 42.3662 72.8331 41.1288 72.9782C39.8914 73.1233 38.7743 75.381 37.514 75.381C36.2537 75.381 35.1309 73.1117 33.905 72.9782C32.6791 72.8447 31.0865 74.8354 29.8949 74.5742C28.7034 74.3131 28.0274 71.8523 26.853 71.4634C25.6787 71.0746 23.7195 72.6822 22.5909 72.1715C21.4624 71.6608 21.3306 69.1187 20.2594 68.4861C19.1881 67.8535 16.9482 69.02 15.9457 68.2772C14.9432 67.5343 15.3442 65.0271 14.4219 64.2145C13.4996 63.402 11.0706 64.0404 10.24 63.106C9.40933 62.1716 10.3202 59.7979 9.58691 58.7764C8.85365 57.7549 6.35024 57.9058 5.72581 56.8147C5.10139 55.7236 6.48199 53.5995 5.97214 52.4445C5.46229 51.2896 2.9818 50.9123 2.59798 49.7109C2.21416 48.5096 4.0015 46.7336 3.74371 45.4916C3.48592 44.2496 1.13717 43.3674 1.01114 42.1022C0.885106 40.837 2.99324 39.4731 2.99324 38.2021Z" fill="white" stroke="#031B89" stroke-linecap="round" stroke-linejoin="round"/>
<path d="M37.5141 67.2665C53.9459 67.2665 67.2665 53.9459 67.2665 37.5141C67.2665 21.0823 53.9459 7.76172 37.5141 7.76172C21.0823 7.76172 7.76172 21.0823 7.76172 37.5141C7.76172 53.9459 21.0823 67.2665 37.5141 67.2665Z" fill="#C2F5E9" stroke="#031B89" stroke-linecap="round" stroke-linejoin="round"/>
<path d="M63.2958 44.209C66.6939 30.1091 58.0184 15.9241 43.9184 12.526C29.8185 9.12784 15.6335 17.8034 12.2354 31.9034C8.83724 46.0033 17.5128 60.1883 31.6127 63.5864C45.7127 66.9845 59.8977 58.309 63.2958 44.209Z" fill="#031B89"/>
</svg>
