<svg width="24" height="24" viewBox="0 0 24 24" fill="none" xmlns="http://www.w3.org/2000/svg">
<path d="M12 2.99622V5.43723" stroke="#C2F5E9" stroke-width="1.5" stroke-linecap="round" stroke-linejoin="round"/>
<path d="M16.0017 7.99829L13.4006 10.5994" stroke="#C2F5E9" stroke-width="1.5" stroke-linecap="round" stroke-linejoin="round"/>
<path d="M11.9809 9.99915C13.086 9.99915 13.9818 10.8949 13.9818 12C13.9818 13.105 13.086 14.0008 11.9809 14.0008C10.8759 14.0008 9.9801 13.105 9.9801 12C9.9801 10.8949 10.8759 9.99915 11.9809 9.99915" stroke="#C2F5E9" stroke-width="1.5" stroke-linecap="round" stroke-linejoin="round"/>
<path d="M3.51941 15.0012C4.78706 18.5983 8.18605 21.0043 11.9999 21.0043C15.8138 21.0043 19.2128 18.5983 20.4805 15.0012" stroke="#C2F5E9" stroke-width="1.5" stroke-linecap="round" stroke-linejoin="round"/>
<path d="M4.99705 12H2.99622C2.99622 8.78324 4.71232 5.81085 7.49809 4.20249C10.2839 2.59412 13.7161 2.59412 16.5018 4.20249C19.2876 5.81085 21.0037 8.78324 21.0037 12H19.0029" stroke="#C2F5E9" stroke-width="1.5" stroke-linecap="round" stroke-linejoin="round"/>
<path d="M5.63733 5.63733L7.04792 7.04792" stroke="#C2F5E9" stroke-width="1.5" stroke-linecap="round" stroke-linejoin="round"/>
</svg>
