<svg width="17" height="16" viewBox="0 0 17 16" fill="none" xmlns="http://www.w3.org/2000/svg">
<path fill-rule="evenodd" clip-rule="evenodd" d="M8.79102 2V2C12.105 2 14.791 4.686 14.791 8V8C14.791 11.314 12.105 14 8.79102 14V14C5.47702 14 2.79102 11.314 2.79102 8V8C2.79102 4.686 5.47702 2 8.79102 2Z" stroke="#EF4444" stroke-linecap="round" stroke-linejoin="round"/>
<path d="M8.7911 8.33333V5" stroke="#EF4444" stroke-linecap="round" stroke-linejoin="round"/>
<path d="M8.79043 10.6667C8.69843 10.6667 8.62377 10.7413 8.62443 10.8333C8.62443 10.9253 8.6991 11 8.7911 11C8.8831 11 8.95777 10.9253 8.95777 10.8333C8.95777 10.7413 8.8831 10.6667 8.79043 10.6667" stroke="#EF4444" stroke-linecap="round" stroke-linejoin="round"/>
</svg>
