<svg width="25" height="25" viewBox="0 0 25 25" fill="none" xmlns="http://www.w3.org/2000/svg">
<path fill-rule="evenodd" clip-rule="evenodd" d="M8.12662 21.3328C7.61955 21.5975 7.00611 21.5509 6.54484 21.2126C6.08357 20.8744 5.85471 20.3033 5.95472 19.7401L6.76406 15.1012L3.35664 11.8358C2.94014 11.4386 2.7875 10.8382 2.96373 10.2903C3.13997 9.74246 3.61403 9.34364 4.18398 9.26375L8.91495 8.58747L11.0508 4.3267C11.3041 3.81571 11.8251 3.49243 12.3954 3.49243C12.9657 3.49243 13.4867 3.81571 13.74 4.3267L15.8759 8.58747L20.6068 9.26375C21.1768 9.34364 21.6508 9.74246 21.8271 10.2903C22.0033 10.8382 21.8507 11.4386 21.4342 11.8358L18.0267 15.1012L18.8361 19.7411C18.9361 20.3043 18.7072 20.8754 18.246 21.2136C17.7847 21.5519 17.1713 21.5985 16.6642 21.3338L12.3954 19.1279L8.12662 21.3328Z" fill="#FB923C" stroke="#FB923C" stroke-width="1.5" stroke-linecap="round" stroke-linejoin="round"/>
</svg>
