<svg width="149" height="48" viewBox="0 0 149 48" fill="none" xmlns="http://www.w3.org/2000/svg">
<path d="M2.79102 30.8095C8.87396 30.8572 9.55418 36.3595 13.8958 37.9195C18.2375 39.4796 20.05 19.3302 25.0028 18.6613C29.9556 17.9924 31.7017 44.4387 36.1097 43.0596C40.5178 41.6806 40.8486 29.7403 46.6614 27.7954C52.4741 25.8504 51.9781 45.4452 57.213 45.995C62.4478 46.5447 62.3602 2 67.7646 2C73.1689 2 73.7153 32.277 79.4269 31.77C85.1384 31.263 85.2521 14.4053 91.3842 14.4053C97.5163 14.4053 99.4436 29.3748 104.835 30.7619C110.226 32.149 108.872 47.9617 114.414 43.0596C119.955 38.1576 119.223 19.5138 124.41 18.6613C129.597 17.8088 131.311 29.7475 135.781 31.77C140.251 33.7925 142.392 43.119 146.791 43.119" stroke="#34B53A" stroke-width="4" stroke-linecap="round"/>
</svg>
