<svg width="149" height="48" viewBox="0 0 149 48" fill="none" xmlns="http://www.w3.org/2000/svg">
<path d="M2.86084 18.9652C8.83319 19.0082 9.62401 23.5885 13.9657 24.889C18.3073 26.1895 20.1253 46.5464 25.0781 45.9888C30.0308 45.4311 31.7512 14.9217 36.1593 13.7721C40.5674 12.6225 40.9316 24.7258 46.7443 23.1044C52.557 21.483 52.0394 9.09402 57.2742 9.55232C62.5091 10.0106 62.4549 17.0181 67.8593 17.0181C73.2636 17.0181 73.7802 2.42798 79.4918 2.00535C85.2034 1.58272 85.323 26.3504 91.4551 26.3504C97.5872 26.3504 99.5156 43.534 104.907 44.6903C110.298 45.8467 108.958 17.3717 114.5 13.2852C120.041 9.19873 119.292 38.2598 124.478 37.5491C129.665 36.8385 131.365 17.1986 135.835 18.8846C140.305 20.5706 142.462 17.1045 146.861 17.1045" stroke="#FF3A29" stroke-width="4" stroke-linecap="round"/>
</svg>

