<svg width="24" height="25" viewBox="0 0 24 25" fill="none" xmlns="http://www.w3.org/2000/svg">
<g clip-path="url(#clip0_99_4457)">
<path d="M24.0002 12.7734C24.0002 11.7636 23.9185 11.0268 23.7417 10.2627H12.2451V14.8201H18.9934C18.8574 15.9527 18.1227 17.6583 16.49 18.8045L16.4671 18.957L20.1021 21.7813L20.3539 21.8065C22.6668 19.6642 24.0002 16.5121 24.0002 12.7734Z" fill="#4285F4"/>
<path d="M12.245 24.7805C15.551 24.7805 18.3265 23.6888 20.3538 21.8058L16.4898 18.8039C15.4558 19.527 14.068 20.0319 12.245 20.0319C9.00688 20.0319 6.25861 17.8897 5.27892 14.9287L5.13532 14.9409L1.35558 17.8746L1.30615 18.0125C3.31974 22.0241 7.4558 24.7805 12.245 24.7805Z" fill="#34A853"/>
<path d="M5.27886 14.929C5.02036 14.1649 4.87076 13.3461 4.87076 12.5001C4.87076 11.6541 5.02036 10.8354 5.26526 10.0713L5.25841 9.90857L1.43131 6.92773L1.30609 6.98747C0.476196 8.65219 0 10.5216 0 12.5001C0 14.4787 0.476196 16.348 1.30609 18.0127L5.27886 14.929Z" fill="#FBBC05"/>
<path d="M12.245 4.96819C14.5442 4.96819 16.0952 5.96428 16.9796 6.79669L20.4354 3.41268C18.313 1.43415 15.551 0.219727 12.245 0.219727C7.4558 0.219727 3.31974 2.97602 1.30615 6.98765L5.26532 10.0715C6.25861 7.1105 9.00689 4.96819 12.245 4.96819Z" fill="#EB4335"/>
</g>
<defs>
<clipPath id="clip0_99_4457">
<rect width="24" height="24.6316" fill="white" transform="translate(0 0.18457)"/>
</clipPath>
</defs>
</svg>
