<svg width="24" height="24" viewBox="0 0 24 24" fill="none" xmlns="http://www.w3.org/2000/svg">
<g id="Group">
<g id="Group_2">
<path id="Path" d="M18.4002 5.60156C21.9002 9.10156 21.9002 14.8016 18.4002 18.3016C14.9002 21.8016 9.2002 21.8016 5.7002 18.3016C2.2002 14.8016 2.2002 9.10156 5.7002 5.60156C9.2002 2.10156 14.8002 2.10156 18.4002 5.60156" stroke="#0F172A" stroke-width="1.5" stroke-linecap="round" stroke-linejoin="round"/>
<path id="Path_2" fill-rule="evenodd" clip-rule="evenodd" d="M16.5 14.9984H7.5C7.2 14.9984 7 14.7984 7 14.4984V9.99844C7 9.59844 7.5 9.29844 7.8 9.59844L9.8 11.1984L11.6 9.29844C11.8 9.09844 12.1 9.09844 12.3 9.29844L14.1 11.1984L16.1 9.59844C16.4 9.29844 16.9 9.59844 16.9 9.99844V14.4984C17 14.7984 16.8 14.9984 16.5 14.9984V14.9984Z" stroke="#0F172A" stroke-width="1.5" stroke-linecap="round" stroke-linejoin="round"/>
</g>
</g>
</svg>
