<svg width="24" height="25" viewBox="0 0 24 25" fill="none" xmlns="http://www.w3.org/2000/svg">
<path fill-rule="evenodd" clip-rule="evenodd" d="M7.73112 21.3328C7.22404 21.5975 6.6106 21.5509 6.14933 21.2126C5.68807 20.8744 5.45921 20.3033 5.55921 19.7401L6.36855 15.1012L2.96113 11.8358C2.54463 11.4386 2.39199 10.8382 2.56823 10.2903C2.74446 9.74246 3.21852 9.34364 3.78847 9.26375L8.51945 8.58747L10.6553 4.3267C10.9086 3.81571 11.4296 3.49243 11.9999 3.49243C12.5702 3.49243 13.0912 3.81571 13.3445 4.3267L15.4803 8.58747L20.2113 9.26375C20.7813 9.34364 21.2553 9.74246 21.4316 10.2903C21.6078 10.8382 21.4552 11.4386 21.0387 11.8358L17.6312 15.1012L18.4406 19.7411C18.5406 20.3043 18.3117 20.8754 17.8505 21.2136C17.3892 21.5519 16.7757 21.5985 16.2687 21.3338L11.9999 19.1279L7.73112 21.3328Z" stroke="#FB923C" stroke-width="1.5" stroke-linecap="round" stroke-linejoin="round"/>
</svg>
