<svg width="25" height="25" viewBox="0 0 25 25" fill="none" xmlns="http://www.w3.org/2000/svg">
<rect x="21.791" y="21.5" width="18" height="18" rx="5" transform="rotate(-180 21.791 21.5)" stroke="#64748B" stroke-width="1.5" stroke-linecap="round" stroke-linejoin="round"/>
<path d="M4.15149 18.3675L8.43317 14.0858C8.80824 13.7107 9.31695 13.5 9.84738 13.5C10.3778 13.5 10.8865 13.7107 11.2616 14.0858L18.4084 21.2326" stroke="#64748B" stroke-width="1.5" stroke-linecap="round" stroke-linejoin="round"/>
<path d="M21.791 15.2055L18.6712 12.0858C18.2961 11.7107 17.7874 11.5 17.257 11.5C16.7266 11.5 16.2179 11.7107 15.8428 12.0858L12.554 15.3746" stroke="#64748B" stroke-width="1.5" stroke-linecap="round" stroke-linejoin="round"/>
<path d="M9.70231 8.9119L9.70253 8.91169C9.75129 8.86527 9.82843 8.86714 9.87488 8.91586C9.92133 8.96458 9.91951 9.04173 9.87082 9.08821C9.82212 9.13469 9.74498 9.13292 9.69847 9.08425C9.65196 9.03559 9.65368 8.95844 9.70231 8.9119" stroke="#64748B" stroke-width="1.5" stroke-linecap="round" stroke-linejoin="round"/>
</svg>
