<svg width="31" height="29" viewBox="0 0 31 29" fill="none" xmlns="http://www.w3.org/2000/svg">
<path d="M24.9521 26.9768H24.9548C27.1889 26.9768 29 25.1351 29 22.8633L29 6.13674C29 3.86492 27.1889 2.02325 24.9548 2.02325H24.9521C22.718 2.02325 20.907 3.86492 20.907 6.13674V22.8633C20.907 25.1351 22.718 26.9768 24.9521 26.9768Z" fill="#7487FF"/>
<path d="M15.2686 8.56153C13.4812 10.0789 13.2581 12.7519 14.7703 14.5318C16.2824 16.3117 18.9573 16.5246 20.7446 15.0072L27.5641 9.21785C29.3515 7.70046 29.5746 5.02747 28.0624 3.24756C26.5502 1.46765 23.8754 1.25483 22.088 2.77222L15.2686 8.56153Z" fill="white"/>
<path d="M6.07104 2.02332H6.06839C3.83429 2.02332 2.02319 3.81798 2.02319 6.03182V22.9684C2.02319 25.1822 3.83429 26.9769 6.06839 26.9769H6.07104C8.30514 26.9769 10.1162 25.1822 10.1162 22.9684V6.03182C10.1162 3.81798 8.30514 2.02332 6.07104 2.02332Z" fill="white"/>
<path d="M8.68871 2.8257C6.98803 1.26517 4.35366 1.36756 2.80468 3.05438C1.2557 4.7412 1.37867 7.3737 3.07935 8.93423L21.868 26.1745C23.5687 27.7351 26.203 27.6327 27.752 25.9459C29.301 24.259 29.178 21.6265 27.4774 20.066L8.68871 2.8257Z" fill="#A9B5FF"/>
</svg>
