<svg width="179" height="42" viewBox="0 0 179 42" fill="none" xmlns="http://www.w3.org/2000/svg">
<path d="M35.051 38.7256H35.0549C38.2922 38.7256 40.9165 36.0935 40.9165 32.8467L40.9165 8.94135C40.9165 5.69451 38.2922 3.06243 35.0549 3.06243H35.051C31.8138 3.06243 29.1894 5.69451 29.1894 8.94135L29.1894 32.8467C29.1894 36.0935 31.8138 38.7256 35.051 38.7256Z" fill="#7487FF"/>
<path d="M21.5199 12.6294C19.0006 14.7681 18.6861 18.5357 20.8175 21.0444C22.9489 23.5532 26.719 23.8531 29.2383 21.7144L38.8502 13.5545C41.3695 11.4157 41.684 7.64819 39.5526 5.13944C37.4212 2.63068 33.651 2.33072 31.1318 4.46945L21.5199 12.6294Z" fill="#031B89"/>
<path d="M8.30733 3.06152H8.30353C5.1106 3.06152 2.52222 5.62643 2.52222 8.7904V32.9958C2.52222 36.1598 5.1106 38.7247 8.30353 38.7247H8.30733C11.5003 38.7247 14.0886 36.1598 14.0886 32.9958V8.7904C14.0886 5.62643 11.5003 3.06152 8.30733 3.06152Z" fill="#031B89"/>
<path d="M12.2466 4.54462C9.84952 2.34509 6.13642 2.48939 3.95315 4.86694C1.76989 7.24449 1.94321 10.955 4.34029 13.1545L30.8225 37.4544C33.2196 39.6539 36.9327 39.5096 39.116 37.1321C41.2993 34.7545 41.1259 31.0441 38.7289 28.8445L12.2466 4.54462Z" fill="#A9B5FF"/>
<path d="M49.6145 10.7806H53.373V12.7587H53.4291C53.9527 12.0051 54.5791 11.4211 55.3083 11.0067C56.0563 10.5923 56.9071 10.385 57.8608 10.385C58.777 10.385 59.6091 10.564 60.3571 10.9219C61.1237 11.2799 61.7034 11.9109 62.0961 12.8152C62.5262 12.1747 63.1058 11.6095 63.8351 11.1197C64.583 10.6299 65.4619 10.385 66.4716 10.385C67.2383 10.385 67.9489 10.4792 68.6033 10.6676C69.2578 10.856 69.8188 11.1574 70.2862 11.5719C70.7537 11.9863 71.1183 12.5326 71.3801 13.2108C71.6419 13.8701 71.7728 14.6708 71.7728 15.6127V25.3899H67.7899V17.1104C67.7899 16.6206 67.7712 16.159 67.7338 15.7257C67.6964 15.2924 67.5936 14.9157 67.4253 14.5954C67.257 14.2752 67.0046 14.0209 66.668 13.8325C66.3501 13.6441 65.9107 13.5499 65.3497 13.5499C64.7887 13.5499 64.3306 13.6629 63.9753 13.889C63.6387 14.0962 63.3676 14.3788 63.1619 14.7367C62.9749 15.0758 62.844 15.4714 62.7692 15.9235C62.7131 16.3568 62.6851 16.7995 62.6851 17.2516V25.3899H58.7022V17.1951C58.7022 16.7618 58.6929 16.338 58.6742 15.9235C58.6555 15.4903 58.5713 15.0946 58.4217 14.7367C58.2908 14.3788 58.0571 14.0962 57.7205 13.889C57.4026 13.6629 56.9258 13.5499 56.29 13.5499C56.1031 13.5499 55.8506 13.597 55.5327 13.6912C55.2335 13.7665 54.9344 13.9267 54.6352 14.1716C54.3547 14.3976 54.1116 14.7367 53.9059 15.1888C53.7002 15.6221 53.5974 16.1967 53.5974 16.9126V25.3899H49.6145V10.7806Z" fill="#031B89"/>
<path d="M87.4028 25.3899H83.6163V23.3553H83.5321C83.0273 24.203 82.3728 24.8153 81.5687 25.1921C80.7647 25.5688 79.9419 25.7572 79.1005 25.7572C78.0346 25.7572 77.1558 25.6159 76.4639 25.3334C75.7908 25.0508 75.2578 24.6552 74.8652 24.1465C74.4725 23.6191 74.192 22.988 74.0237 22.2533C73.8741 21.4997 73.7993 20.6708 73.7993 19.7666V10.7806H77.7822V19.0319C77.7822 20.2375 77.9692 21.1418 78.3432 21.7446C78.7171 22.3286 79.381 22.6206 80.3346 22.6206C81.4191 22.6206 82.2045 22.3004 82.6907 21.6599C83.1769 21.0005 83.4199 19.9267 83.4199 18.4385V10.7806H87.4028V25.3899Z" fill="#031B89"/>
<path d="M89.416 5.21387H93.3988V25.3899H89.416V5.21387Z" fill="#031B89"/>
<path d="M100.462 10.7806H103.379V13.4651H100.462V20.6991C100.462 21.3773 100.574 21.8294 100.798 22.0555C101.023 22.2815 101.472 22.3946 102.145 22.3946C102.369 22.3946 102.584 22.3851 102.79 22.3663C102.996 22.3475 103.192 22.3192 103.379 22.2815V25.3899C103.042 25.4464 102.668 25.4841 102.257 25.5029C101.846 25.5217 101.444 25.5312 101.051 25.5312C100.434 25.5312 99.8447 25.4841 99.2838 25.3899C98.7415 25.3145 98.2553 25.1544 97.8252 24.9095C97.4139 24.6646 97.0866 24.3161 96.8435 23.864C96.6005 23.4118 96.4789 22.8184 96.4789 22.0837V13.4651H94.0667V10.7806H96.4789V6.40069H100.462V10.7806Z" fill="#031B89"/>
<path d="M108.247 8.52002H104.264V5.21387H108.247V8.52002ZM104.264 10.7806H108.247V25.3899H104.264V10.7806Z" fill="#031B89"/>
<path d="M110.373 10.7806H114.132V12.7587H114.188C114.712 12.0051 115.338 11.4211 116.067 11.0067C116.815 10.5923 117.666 10.385 118.62 10.385C119.536 10.385 120.368 10.564 121.116 10.9219C121.883 11.2799 122.462 11.9109 122.855 12.8152C123.285 12.1747 123.865 11.6095 124.594 11.1197C125.342 10.6299 126.221 10.385 127.231 10.385C127.997 10.385 128.708 10.4792 129.362 10.6676C130.017 10.856 130.578 11.1574 131.045 11.5719C131.513 11.9863 131.877 12.5326 132.139 13.2108C132.401 13.8701 132.532 14.6708 132.532 15.6127V25.3899H128.549V17.1104C128.549 16.6206 128.53 16.159 128.493 15.7257C128.455 15.2924 128.353 14.9157 128.184 14.5954C128.016 14.2752 127.764 14.0209 127.427 13.8325C127.109 13.6441 126.67 13.5499 126.109 13.5499C125.548 13.5499 125.09 13.6629 124.734 13.889C124.398 14.0962 124.127 14.3788 123.921 14.7367C123.734 15.0758 123.603 15.4714 123.528 15.9235C123.472 16.3568 123.444 16.7995 123.444 17.2516V25.3899H119.461V17.1951C119.461 16.7618 119.452 16.338 119.433 15.9235C119.414 15.4903 119.33 15.0946 119.181 14.7367C119.05 14.3788 118.816 14.0962 118.479 13.889C118.162 13.6629 117.685 13.5499 117.049 13.5499C116.862 13.5499 116.61 13.597 116.292 13.6912C115.992 13.7665 115.693 13.9267 115.394 14.1716C115.114 14.3976 114.871 14.7367 114.665 15.1888C114.459 15.6221 114.356 16.1967 114.356 16.9126V25.3899H110.373V10.7806Z" fill="#031B89"/>
<path d="M144.319 16.5169C144.132 15.4997 143.796 14.7273 143.309 14.1998C142.842 13.6723 142.122 13.4086 141.15 13.4086C140.514 13.4086 139.981 13.5216 139.551 13.7477C139.139 13.9549 138.803 14.2187 138.541 14.5389C138.298 14.8592 138.12 15.1983 138.008 15.5562C137.915 15.9141 137.859 16.2344 137.84 16.5169H144.319ZM137.84 19.0601C137.896 20.36 138.223 21.3019 138.822 21.8859C139.42 22.4699 140.28 22.7619 141.402 22.7619C142.206 22.7619 142.898 22.5641 143.478 22.1685C144.057 21.754 144.413 21.3208 144.544 20.8686H148.05C147.489 22.6206 146.628 23.8734 145.469 24.6269C144.31 25.3804 142.907 25.7572 141.262 25.7572C140.121 25.7572 139.093 25.5783 138.177 25.2203C137.26 24.8436 136.484 24.3161 135.848 23.6379C135.213 22.9597 134.717 22.1497 134.362 21.2077C134.025 20.2658 133.857 19.2297 133.857 18.0994C133.857 17.0068 134.035 15.9895 134.39 15.0475C134.745 14.1056 135.25 13.2956 135.905 12.6174C136.559 11.9204 137.335 11.374 138.233 10.9784C139.149 10.5828 140.159 10.385 141.262 10.385C142.496 10.385 143.571 10.6299 144.487 11.1197C145.404 11.5907 146.152 12.2312 146.731 13.0413C147.33 13.8513 147.76 14.7744 148.022 15.8105C148.283 16.8466 148.377 17.9298 148.302 19.0601H137.84Z" fill="#031B89"/>
<path d="M159.836 18.0429C159.836 17.44 159.78 16.8655 159.668 16.3191C159.556 15.754 159.359 15.2642 159.079 14.8497C158.817 14.4165 158.471 14.0679 158.041 13.8042C157.611 13.5405 157.069 13.4086 156.414 13.4086C155.76 13.4086 155.208 13.5405 154.759 13.8042C154.311 14.0679 153.946 14.4165 153.665 14.8497C153.404 15.283 153.207 15.7822 153.076 16.3474C152.964 16.8937 152.908 17.4683 152.908 18.0711C152.908 18.6363 152.974 19.2014 153.104 19.7666C153.235 20.3317 153.441 20.8404 153.721 21.2925C154.021 21.7258 154.385 22.0837 154.815 22.3663C155.264 22.63 155.797 22.7619 156.414 22.7619C157.069 22.7619 157.611 22.63 158.041 22.3663C158.49 22.1026 158.845 21.754 159.107 21.3208C159.369 20.8686 159.556 20.36 159.668 19.7948C159.78 19.2297 159.836 18.6457 159.836 18.0429ZM159.892 23.5249H159.836C159.369 24.3161 158.752 24.8906 157.985 25.2486C157.237 25.5877 156.386 25.7572 155.432 25.7572C154.348 25.7572 153.394 25.55 152.572 25.1355C151.749 24.7023 151.066 24.1277 150.524 23.4118C150 22.6771 149.598 21.8388 149.318 20.8969C149.056 19.955 148.925 18.9754 148.925 17.9581C148.925 16.9785 149.056 16.0366 149.318 15.1323C149.598 14.2092 150 13.3992 150.524 12.7022C151.066 12.0051 151.739 11.4494 152.543 11.035C153.348 10.6017 154.282 10.385 155.348 10.385C156.208 10.385 157.022 10.5734 157.789 10.9502C158.574 11.3081 159.191 11.845 159.64 12.5609H159.696V5.21387H163.679V25.3899H159.892V23.5249Z" fill="#031B89"/>
<path d="M168.652 20.6426C168.652 21.0759 168.737 21.4526 168.905 21.7729C169.092 22.0743 169.326 22.3286 169.606 22.5358C169.887 22.7242 170.205 22.8655 170.56 22.9597C170.934 23.0539 171.317 23.101 171.71 23.101C171.99 23.101 172.28 23.0727 172.579 23.0162C172.897 22.9409 173.178 22.8373 173.421 22.7054C173.683 22.5547 173.898 22.3663 174.066 22.1402C174.234 21.8953 174.318 21.5939 174.318 21.236C174.318 20.6332 173.916 20.181 173.112 19.8796C172.327 19.5782 171.224 19.2768 169.802 18.9754C169.223 18.8435 168.652 18.6928 168.092 18.5232C167.549 18.3349 167.063 18.0994 166.633 17.8168C166.203 17.5154 165.857 17.148 165.595 16.7148C165.333 16.2626 165.203 15.7163 165.203 15.0758C165.203 14.1339 165.38 13.3615 165.735 12.7587C166.109 12.1558 166.596 11.6849 167.194 11.3458C167.792 10.9879 168.465 10.743 169.213 10.6111C169.961 10.4604 170.728 10.385 171.513 10.385C172.299 10.385 173.056 10.4604 173.785 10.6111C174.533 10.7618 175.197 11.0161 175.777 11.374C176.356 11.732 176.833 12.2124 177.207 12.8152C177.6 13.3992 177.834 14.1433 177.908 15.0475H174.122C174.066 14.2752 173.776 13.7571 173.252 13.4934C172.729 13.2108 172.112 13.0695 171.401 13.0695C171.177 13.0695 170.934 13.0883 170.672 13.126C170.41 13.1449 170.167 13.2014 169.943 13.2956C169.737 13.3898 169.559 13.5311 169.41 13.7194C169.26 13.889 169.185 14.1245 169.185 14.4259C169.185 14.7838 169.316 15.0758 169.578 15.3019C169.84 15.5279 170.176 15.7163 170.588 15.867C171.018 15.9989 171.504 16.1213 172.046 16.2344C172.589 16.3474 173.14 16.4699 173.701 16.6017C174.281 16.7336 174.842 16.8937 175.384 17.0821C175.945 17.2705 176.441 17.5248 176.871 17.8451C177.301 18.1465 177.647 18.5327 177.908 19.0036C178.17 19.4558 178.301 20.0209 178.301 20.6991C178.301 21.6599 178.105 22.4699 177.712 23.1293C177.338 23.7698 176.843 24.2878 176.226 24.6834C175.609 25.079 174.898 25.3522 174.094 25.5029C173.309 25.6724 172.504 25.7572 171.682 25.7572C170.84 25.7572 170.018 25.6724 169.213 25.5029C168.409 25.3334 167.689 25.0508 167.054 24.6552C166.437 24.2596 165.922 23.7415 165.511 23.101C165.118 22.4416 164.903 21.6222 164.866 20.6426H168.652Z" fill="#031B89"/>
<path d="M49.6145 30.5498H50.4068V33.0986H53.5428V30.5498H54.3351V36.4776H53.5428V33.7628H50.4068V36.4776H49.6145V30.5498Z" fill="#031B89"/>
<path d="M58.3191 33.9205C58.308 33.7545 58.2691 33.5967 58.2023 33.4473C58.1412 33.2978 58.055 33.1705 57.9438 33.0654C57.8381 32.9547 57.7103 32.8689 57.5601 32.808C57.4156 32.7416 57.2543 32.7084 57.0764 32.7084C56.8929 32.7084 56.7261 32.7416 56.576 32.808C56.4314 32.8689 56.3063 32.9547 56.2007 33.0654C56.095 33.1761 56.0116 33.3061 55.9505 33.4556C55.8893 33.5995 55.8532 33.7545 55.842 33.9205H58.3191ZM59.003 35.116C58.9085 35.5976 58.7 35.9601 58.3775 36.2036C58.055 36.4472 57.6491 36.5689 57.1598 36.5689C56.8151 36.5689 56.5148 36.5136 56.2591 36.4029C56.0088 36.2922 55.7976 36.1372 55.6252 35.938C55.4528 35.7387 55.3222 35.5007 55.2332 35.224C55.1498 34.9472 55.1025 34.6456 55.0914 34.319C55.0914 33.9925 55.1414 33.6936 55.2415 33.4224C55.3416 33.1512 55.4806 32.9159 55.6585 32.7167C55.842 32.5174 56.0561 32.3625 56.3008 32.2518C56.551 32.1411 56.8234 32.0857 57.1181 32.0857C57.5018 32.0857 57.8187 32.166 58.0689 32.3265C58.3247 32.4815 58.5276 32.6807 58.6777 32.9242C58.8334 33.1678 58.9391 33.4334 58.9947 33.7213C59.0558 34.0091 59.0809 34.283 59.0697 34.5432H55.842C55.8365 34.7314 55.8587 34.9112 55.9088 35.0828C55.9588 35.2489 56.0394 35.3983 56.1506 35.5311C56.2618 35.6584 56.4036 35.7608 56.576 35.8383C56.7483 35.9158 56.9513 35.9546 57.1848 35.9546C57.4851 35.9546 57.7297 35.8854 57.9188 35.747C58.1134 35.6086 58.2413 35.3983 58.3024 35.116H59.003Z" fill="#031B89"/>
<path d="M63.4326 36.461C63.3103 36.5329 63.1407 36.5689 62.9239 36.5689C62.7404 36.5689 62.593 36.5191 62.4818 36.4195C62.3762 36.3143 62.3234 36.1455 62.3234 35.913C62.1288 36.1455 61.9008 36.3143 61.6395 36.4195C61.3837 36.5191 61.1057 36.5689 60.8054 36.5689C60.6108 36.5689 60.4246 36.5468 60.2466 36.5025C60.0743 36.4582 59.9241 36.389 59.7962 36.2949C59.6684 36.2009 59.5655 36.0791 59.4877 35.9297C59.4154 35.7747 59.3792 35.5893 59.3792 35.3734C59.3792 35.1299 59.4209 34.9306 59.5043 34.7756C59.5877 34.6207 59.6962 34.4961 59.8296 34.402C59.9686 34.3024 60.1243 34.2277 60.2967 34.1779C60.4746 34.1281 60.6553 34.0866 60.8388 34.0533C61.0334 34.0146 61.2169 33.9869 61.3892 33.9703C61.5672 33.9482 61.7229 33.9205 61.8563 33.8873C61.9897 33.8486 62.0954 33.796 62.1732 33.7296C62.2511 33.6576 62.29 33.5552 62.29 33.4224C62.29 33.2674 62.2594 33.1429 62.1983 33.0488C62.1427 32.9547 62.0676 32.8827 61.9731 32.8329C61.8841 32.7831 61.7812 32.7499 61.6645 32.7333C61.5533 32.7167 61.4421 32.7084 61.3309 32.7084C61.0306 32.7084 60.7804 32.7665 60.5802 32.8827C60.3801 32.9934 60.2716 33.2065 60.255 33.522H59.546C59.5572 33.2563 59.6128 33.0322 59.7128 32.8495C59.8129 32.6669 59.9464 32.5202 60.1132 32.4095C60.28 32.2933 60.469 32.2103 60.6803 32.1604C60.8972 32.1106 61.1279 32.0857 61.3726 32.0857C61.5672 32.0857 61.759 32.0996 61.948 32.1272C62.1427 32.1549 62.3178 32.213 62.4735 32.3016C62.6292 32.3846 62.7543 32.5036 62.8488 32.6586C62.9433 32.8135 62.9906 33.0156 62.9906 33.2646V35.473C62.9906 35.6391 62.9989 35.7608 63.0156 35.8383C63.0378 35.9158 63.1046 35.9546 63.2158 35.9546C63.2769 35.9546 63.3492 35.9407 63.4326 35.913V36.461ZM62.2817 34.2609C62.1927 34.3273 62.0759 34.3771 61.9314 34.4103C61.7868 34.438 61.6339 34.4629 61.4726 34.4851C61.317 34.5017 61.1585 34.5238 60.9973 34.5515C60.836 34.5736 60.6914 34.6124 60.5636 34.6677C60.4357 34.7231 60.33 34.8033 60.2466 34.9085C60.1688 35.0081 60.1299 35.1465 60.1299 35.3236C60.1299 35.4398 60.1521 35.5394 60.1966 35.6225C60.2466 35.7 60.3078 35.7636 60.3801 35.8134C60.4579 35.8632 60.5469 35.8992 60.647 35.9213C60.747 35.9435 60.8527 35.9546 60.9639 35.9546C61.1974 35.9546 61.3976 35.9241 61.5644 35.8632C61.7312 35.7968 61.8674 35.7166 61.9731 35.6225C62.0787 35.5228 62.1566 35.4177 62.2066 35.307C62.2566 35.1908 62.2817 35.0828 62.2817 34.9832V34.2609Z" fill="#031B89"/>
<path d="M63.9423 30.5498H64.6512V36.4776H63.9423V30.5498Z" fill="#031B89"/>
<path d="M66.5418 32.1853H67.4008V32.808H66.5418V35.473C66.5418 35.5561 66.5474 35.6225 66.5585 35.6723C66.5752 35.7221 66.603 35.7608 66.6419 35.7885C66.6808 35.8162 66.7336 35.8356 66.8003 35.8466C66.8726 35.8522 66.9644 35.8549 67.0756 35.8549H67.4008V36.4776H66.8587C66.6752 36.4776 66.5168 36.4665 66.3833 36.4444C66.2554 36.4167 66.1498 36.3697 66.0664 36.3033C65.9886 36.2368 65.9302 36.1427 65.8912 36.021C65.8523 35.8992 65.8329 35.7387 65.8329 35.5394V32.808H65.0989V32.1853H65.8329V30.8985H66.5418V32.1853Z" fill="#031B89"/>
<path d="M67.9966 30.5498H68.7055V32.8163H68.7222C68.7778 32.6835 68.8556 32.5728 68.9557 32.4842C69.0558 32.3901 69.167 32.3154 69.2893 32.2601C69.4172 32.1992 69.5479 32.1549 69.6813 32.1272C69.8203 32.0996 69.9538 32.0857 70.0817 32.0857C70.3652 32.0857 70.6015 32.1245 70.7906 32.2019C70.9796 32.2794 71.1325 32.3874 71.2493 32.5257C71.3661 32.6641 71.4467 32.8302 71.4912 33.0239C71.5412 33.2121 71.5662 33.4224 71.5662 33.6548V36.4776H70.8573V33.5718C70.8573 33.3061 70.7795 33.0958 70.6238 32.9408C70.4681 32.7859 70.254 32.7084 69.9816 32.7084C69.7647 32.7084 69.5757 32.7416 69.4144 32.808C69.2588 32.8744 69.1281 32.9685 69.0224 33.0903C68.9168 33.2121 68.8362 33.356 68.7806 33.522C68.7305 33.6825 68.7055 33.8596 68.7055 34.0533V36.4776H67.9966V30.5498Z" fill="#031B89"/>
<path d="M75.3666 33.5635C75.311 33.2923 75.1943 33.082 75.0163 32.9325C74.8384 32.7831 74.5993 32.7084 74.2991 32.7084C74.0433 32.7084 73.8292 32.7554 73.6569 32.8495C73.4845 32.9436 73.3455 33.0681 73.2398 33.2231C73.1398 33.3781 73.0675 33.558 73.023 33.7628C72.9785 33.962 72.9563 34.1696 72.9563 34.3854C72.9563 34.5847 72.9785 34.7784 73.023 34.9666C73.073 35.1548 73.1481 35.3236 73.2482 35.473C73.3483 35.6169 73.4789 35.7332 73.6402 35.8217C73.8014 35.9103 73.9932 35.9546 74.2157 35.9546C74.5659 35.9546 74.8384 35.8632 75.033 35.6806C75.2332 35.4979 75.3555 35.2406 75.4 34.9085H76.1256C76.0477 35.4398 75.8476 35.8494 75.5251 36.1372C75.2081 36.425 74.7745 36.5689 74.224 36.5689C73.8959 36.5689 73.604 36.5163 73.3483 36.4112C73.0981 36.306 72.8868 36.1566 72.7144 35.9629C72.5476 35.7691 72.4197 35.5394 72.3307 35.2738C72.2473 35.0026 72.2056 34.7065 72.2056 34.3854C72.2056 34.0644 72.2473 33.7655 72.3307 33.4888C72.4141 33.2065 72.5393 32.963 72.7061 32.7582C72.8784 32.5479 73.0925 32.3846 73.3483 32.2684C73.604 32.1466 73.9015 32.0857 74.2407 32.0857C74.4853 32.0857 74.7133 32.1162 74.9246 32.177C75.1414 32.2324 75.3305 32.3209 75.4917 32.4427C75.6585 32.5645 75.7948 32.7195 75.9004 32.9076C76.006 33.0903 76.0728 33.3089 76.1006 33.5635H75.3666Z" fill="#031B89"/>
<path d="M80.5469 36.461C80.4245 36.5329 80.2549 36.5689 80.0381 36.5689C79.8546 36.5689 79.7073 36.5191 79.5961 36.4195C79.4904 36.3143 79.4376 36.1455 79.4376 35.913C79.243 36.1455 79.015 36.3143 78.7537 36.4195C78.4979 36.5191 78.2199 36.5689 77.9197 36.5689C77.725 36.5689 77.5388 36.5468 77.3609 36.5025C77.1885 36.4582 77.0384 36.389 76.9105 36.2949C76.7826 36.2009 76.6797 36.0791 76.6019 35.9297C76.5296 35.7747 76.4935 35.5893 76.4935 35.3734C76.4935 35.1299 76.5352 34.9306 76.6186 34.7756C76.702 34.6207 76.8104 34.4961 76.9438 34.402C77.0828 34.3024 77.2385 34.2277 77.4109 34.1779C77.5888 34.1281 77.7695 34.0866 77.953 34.0533C78.1476 34.0146 78.3311 33.9869 78.5035 33.9703C78.6814 33.9482 78.8371 33.9205 78.9705 33.8873C79.104 33.8486 79.2096 33.796 79.2875 33.7296C79.3653 33.6576 79.4042 33.5552 79.4042 33.4224C79.4042 33.2674 79.3736 33.1429 79.3125 33.0488C79.2569 32.9547 79.1818 32.8827 79.0873 32.8329C78.9983 32.7831 78.8955 32.7499 78.7787 32.7333C78.6675 32.7167 78.5563 32.7084 78.4451 32.7084C78.1448 32.7084 77.8946 32.7665 77.6945 32.8827C77.4943 32.9934 77.3859 33.2065 77.3692 33.522H76.6603C76.6714 33.2563 76.727 33.0322 76.8271 32.8495C76.9272 32.6669 77.0606 32.5202 77.2274 32.4095C77.3942 32.2933 77.5833 32.2103 77.7946 32.1604C78.0114 32.1106 78.2421 32.0857 78.4868 32.0857C78.6814 32.0857 78.8732 32.0996 79.0623 32.1272C79.2569 32.1549 79.432 32.213 79.5877 32.3016C79.7434 32.3846 79.8685 32.5036 79.963 32.6586C80.0576 32.8135 80.1048 33.0156 80.1048 33.2646V35.473C80.1048 35.6391 80.1132 35.7608 80.1298 35.8383C80.1521 35.9158 80.2188 35.9546 80.33 35.9546C80.3912 35.9546 80.4634 35.9407 80.5469 35.913V36.461ZM79.3959 34.2609C79.3069 34.3273 79.1902 34.3771 79.0456 34.4103C78.901 34.438 78.7481 34.4629 78.5869 34.4851C78.4312 34.5017 78.2727 34.5238 78.1115 34.5515C77.9502 34.5736 77.8057 34.6124 77.6778 34.6677C77.5499 34.7231 77.4443 34.8033 77.3609 34.9085C77.283 35.0081 77.2441 35.1465 77.2441 35.3236C77.2441 35.4398 77.2663 35.5394 77.3108 35.6225C77.3609 35.7 77.422 35.7636 77.4943 35.8134C77.5721 35.8632 77.6611 35.8992 77.7612 35.9213C77.8613 35.9435 77.9669 35.9546 78.0781 35.9546C78.3117 35.9546 78.5118 35.9241 78.6786 35.8632C78.8454 35.7968 78.9817 35.7166 79.0873 35.6225C79.1929 35.5228 79.2708 35.4177 79.3208 35.307C79.3709 35.1908 79.3959 35.0828 79.3959 34.9832V34.2609Z" fill="#031B89"/>
<path d="M80.9898 32.1853H81.657V33.0903H81.6737C81.8461 32.7416 82.0574 32.4842 82.3076 32.3182C82.5578 32.1521 82.8747 32.0746 83.2584 32.0857V32.8329C82.9748 32.8329 82.7329 32.8717 82.5328 32.9491C82.3326 33.0266 82.1713 33.1401 82.049 33.2895C81.9267 33.439 81.8377 33.6216 81.7821 33.8375C81.7265 34.0478 81.6987 34.2913 81.6987 34.5681V36.4776H80.9898V32.1853Z" fill="#031B89"/>
<path d="M86.4479 33.9205C86.4368 33.7545 86.3979 33.5967 86.3312 33.4473C86.27 33.2978 86.1838 33.1705 86.0726 33.0654C85.967 32.9547 85.8391 32.8689 85.689 32.808C85.5444 32.7416 85.3832 32.7084 85.2052 32.7084C85.0217 32.7084 84.8549 32.7416 84.7048 32.808C84.5603 32.8689 84.4351 32.9547 84.3295 33.0654C84.2239 33.1761 84.1405 33.3061 84.0793 33.4556C84.0181 33.5995 83.982 33.7545 83.9709 33.9205H86.4479ZM87.1318 35.116C87.0373 35.5976 86.8288 35.9601 86.5063 36.2036C86.1838 36.4472 85.7779 36.5689 85.2886 36.5689C84.9439 36.5689 84.6437 36.5136 84.3879 36.4029C84.1377 36.2922 83.9264 36.1372 83.754 35.938C83.5817 35.7387 83.451 35.5007 83.362 35.224C83.2786 34.9472 83.2314 34.6456 83.2202 34.319C83.2202 33.9925 83.2703 33.6936 83.3704 33.4224C83.4705 33.1512 83.6095 32.9159 83.7874 32.7167C83.9709 32.5174 84.1849 32.3625 84.4296 32.2518C84.6798 32.1411 84.9522 32.0857 85.2469 32.0857C85.6306 32.0857 85.9475 32.166 86.1977 32.3265C86.4535 32.4815 86.6564 32.6807 86.8066 32.9242C86.9623 33.1678 87.0679 33.4334 87.1235 33.7213C87.1847 34.0091 87.2097 34.283 87.1986 34.5432H83.9709C83.9653 34.7314 83.9876 34.9112 84.0376 35.0828C84.0876 35.2489 84.1683 35.3983 84.2795 35.5311C84.3907 35.6584 84.5325 35.7608 84.7048 35.8383C84.8772 35.9158 85.0801 35.9546 85.3137 35.9546C85.6139 35.9546 85.8586 35.8854 86.0476 35.747C86.2422 35.6086 86.3701 35.3983 86.4313 35.116H87.1318Z" fill="#031B89"/>
</svg>
