<svg width="24" height="24" viewBox="0 0 24 24" fill="none" xmlns="http://www.w3.org/2000/svg">
<path d="M21.0038 3.49647L20.0247 4.14921" stroke="#C2F5E9" stroke-width="1.5" stroke-linecap="round" stroke-linejoin="round"/>
<path d="M22.0042 8.99874H21.0251" stroke="#C2F5E9" stroke-width="1.5" stroke-linecap="round" stroke-linejoin="round"/>
<path d="M2.99625 3.49647L3.97536 4.14921" stroke="#C2F5E9" stroke-width="1.5" stroke-linecap="round" stroke-linejoin="round"/>
<path d="M1.99588 8.99874H2.97499" stroke="#C2F5E9" stroke-width="1.5" stroke-linecap="round" stroke-linejoin="round"/>
<path d="M14.0008 20.0033C13.5285 20.6331 12.7872 21.0037 12 21.0037C11.2128 21.0037 10.4715 20.6331 9.99915 20.0033" stroke="#C2F5E9" stroke-width="1.5" stroke-linecap="round" stroke-linejoin="round"/>
<path d="M6.37268 13.0529V9.62405C6.37268 6.51615 8.89212 3.9967 12 3.9967V3.9967C15.1079 3.9967 17.6274 6.51615 17.6274 9.62405V13.0529H17.6231L18.9136 14.3445C19.4856 14.9169 19.6565 15.7774 19.3466 16.5249C19.0367 17.2724 18.3071 17.7597 17.4979 17.7595H6.5021C5.69292 17.7597 4.96331 17.2724 4.65343 16.5249C4.34356 15.7774 4.51443 14.9169 5.08639 14.3445L6.37693 13.0529" stroke="#C2F5E9" stroke-width="1.5" stroke-linecap="round" stroke-linejoin="round"/>
</svg>
