<svg width="25" height="25" viewBox="0 0 25 25" fill="none" xmlns="http://www.w3.org/2000/svg">
<path d="M12.291 14.2617L12.985 18.4277C13.21 19.7807 12.167 21.0117 10.796 21.0117V21.0117C9.71102 21.0117 8.78502 20.2277 8.60702 19.1567L7.79102 14.2617" stroke="#C2F5E9" stroke-width="1.5" stroke-linecap="round" stroke-linejoin="round"/>
<path d="M14.541 14.2617H6.66602C4.80202 14.2617 3.29102 12.7507 3.29102 10.8867V10.8867C3.29102 9.02272 4.80202 7.51172 6.66602 7.51172H14.541" stroke="#C2F5E9" stroke-width="1.5" stroke-linecap="round" stroke-linejoin="round"/>
<path d="M14.541 7.51187L19.542 4.17787C20.29 3.67987 21.291 4.21587 21.291 5.11487V16.6599C21.291 17.5589 20.29 18.0939 19.542 17.5959L14.541 14.2619" stroke="#C2F5E9" stroke-width="1.5" stroke-linecap="round" stroke-linejoin="round"/>
<path d="M14.541 14.2598V7.50977" stroke="#C2F5E9" stroke-width="1.5" stroke-linecap="round" stroke-linejoin="round"/>
</svg>
