<svg width="25" height="24" viewBox="0 0 25 24" fill="none" xmlns="http://www.w3.org/2000/svg">
<path fill-rule="evenodd" clip-rule="evenodd" d="M5.07951 14.929L2.15051 12L5.07951 9.071V4.929H9.22151L12.1505 2L15.0795 4.929H19.2215V9.071L22.1505 12L19.2215 14.929V19.071H15.0795L12.1505 22L9.22151 19.071H5.07951V14.929Z" stroke="#334155" stroke-width="1.5" stroke-linecap="round" stroke-linejoin="round"/>
<path d="M9.15051 15L15.1505 9" stroke="#334155" stroke-width="1.5" stroke-linecap="round" stroke-linejoin="round"/>
<path d="M9.39952 9C9.26152 9 9.14952 9.112 9.15052 9.25C9.15052 9.388 9.26252 9.5 9.40052 9.5C9.53852 9.5 9.65052 9.388 9.65052 9.25C9.65052 9.112 9.53852 9 9.39952 9" stroke="#334155" stroke-width="1.5" stroke-linecap="round" stroke-linejoin="round"/>
<path d="M14.8995 14.5C14.7615 14.5 14.6495 14.612 14.6505 14.75C14.6505 14.888 14.7625 15 14.9005 15C15.0385 15 15.1505 14.888 15.1505 14.75C15.1505 14.612 15.0385 14.5 14.8995 14.5" stroke="#334155" stroke-width="1.5" stroke-linecap="round" stroke-linejoin="round"/>
</svg>
