<svg width="24" height="24" viewBox="0 0 24 24" fill="none" xmlns="http://www.w3.org/2000/svg">
<path fill-rule="evenodd" clip-rule="evenodd" d="M19 3H9.667C9.018 3 8.386 3.211 7.867 3.6L4.2 6.35C3.445 6.917 3 7.806 3 8.75V19C3 20.105 3.895 21 5 21H15.5C16.444 21 17.333 20.555 17.9 19.8L20.6 16.2C20.86 15.854 21 15.433 21 15V5C21 3.895 20.105 3 19 3V3Z" stroke="#C2F5E9" stroke-width="1.5" stroke-linecap="round" stroke-linejoin="round"/>
<path d="M17 7.31L20.64 3.87" stroke="#C2F5E9" stroke-width="1.5" stroke-linecap="round" stroke-linejoin="round"/>
<path d="M17 20.5901V7.31006" stroke="#C2F5E9" stroke-width="1.5" stroke-linecap="round" stroke-linejoin="round"/>
<path d="M17 7.31006H3.38" stroke="#C2F5E9" stroke-width="1.5" stroke-linecap="round" stroke-linejoin="round"/>
<path d="M10.36 7.31L15.29 3" stroke="#C2F5E9" stroke-width="1.5" stroke-linecap="round" stroke-linejoin="round"/>
<path d="M8 11H12" stroke="#C2F5E9" stroke-width="1.5" stroke-linecap="round" stroke-linejoin="round"/>
</svg>
