<svg width="25" height="24" viewBox="0 0 25 24" fill="none" xmlns="http://www.w3.org/2000/svg">
<path fill-rule="evenodd" clip-rule="evenodd" d="M19.1505 3H9.81751C9.16851 3 8.53651 3.211 8.01751 3.6L4.35051 6.35C3.59551 6.917 3.15051 7.806 3.15051 8.75V19C3.15051 20.105 4.04551 21 5.15051 21H15.6505C16.5945 21 17.4835 20.555 18.0505 19.8L20.7505 16.2C21.0105 15.854 21.1505 15.433 21.1505 15V5C21.1505 3.895 20.2555 3 19.1505 3V3Z" stroke="#334155" stroke-width="1.5" stroke-linecap="round" stroke-linejoin="round"/>
<path d="M17.1505 7.31012L20.7905 3.87012" stroke="#334155" stroke-width="1.5" stroke-linecap="round" stroke-linejoin="round"/>
<path d="M17.1505 20.5896V7.30957" stroke="#334155" stroke-width="1.5" stroke-linecap="round" stroke-linejoin="round"/>
<path d="M17.1505 7.30957H3.53052" stroke="#334155" stroke-width="1.5" stroke-linecap="round" stroke-linejoin="round"/>
<path d="M10.5105 7.31L15.4405 3" stroke="#334155" stroke-width="1.5" stroke-linecap="round" stroke-linejoin="round"/>
<path d="M8.15051 11H12.1505" stroke="#334155" stroke-width="1.5" stroke-linecap="round" stroke-linejoin="round"/>
</svg>
