<svg width="16" height="16" viewBox="0 0 16 16" fill="none" xmlns="http://www.w3.org/2000/svg">
<path fill-rule="evenodd" clip-rule="evenodd" d="M3.99815 14.0025H2.66426C2.29597 14.0024 1.99745 13.7039 1.99731 13.3356V9.33394C1.99745 8.96565 2.29597 8.66712 2.66426 8.66699H3.99815C4.36644 8.66712 4.66496 8.96565 4.66509 9.33394V13.3356C4.66496 13.7039 4.36644 14.0024 3.99815 14.0025V14.0025Z" stroke="#1E293B" stroke-linecap="round" stroke-linejoin="round"/>
<path d="M8.66695 11.3354H9.97416C10.2628 11.3355 10.5437 11.2419 10.7745 11.0686L12.3858 9.8601C12.7881 9.55861 13.3509 9.59869 13.7064 9.95414V9.95414C13.896 10.1435 14.0025 10.4005 14.0025 10.6684C14.0025 10.9364 13.896 11.1934 13.7064 11.3827L12.3238 12.7653C11.9513 13.1376 11.477 13.3915 10.9606 13.4949L9.00642 13.8858C8.619 13.9633 8.21921 13.9537 7.83594 13.8578L6.06853 13.4162C5.85724 13.363 5.64017 13.3361 5.42227 13.3362H4.66528" stroke="#1E293B" stroke-linecap="round" stroke-linejoin="round"/>
<path d="M8.66695 11.3348H9.65736C9.92536 11.3348 10.1824 11.2284 10.3719 11.0389C10.5614 10.8494 10.6678 10.5923 10.6678 10.3243V10.1223C10.6679 9.65881 10.3524 9.2548 9.9028 9.14252L8.37416 8.76036C8.1257 8.69836 7.87059 8.66699 7.61451 8.66699V8.66699C6.9961 8.6668 6.3915 8.84992 5.87712 9.19321L4.66528 10.0009" stroke="#1E293B" stroke-linecap="round" stroke-linejoin="round"/>
<path d="M12.8471 4.48738C13.4982 5.13853 13.4982 6.19424 12.8471 6.84539C12.196 7.49653 11.1402 7.49653 10.4891 6.84539C9.83795 6.19424 9.83795 5.13853 10.4891 4.48738C10.8018 4.17469 11.2259 3.99902 11.6681 3.99902C12.1103 3.99902 12.5344 4.17469 12.8471 4.48738" stroke="#1E293B" stroke-linecap="round" stroke-linejoin="round"/>
<path fill-rule="evenodd" clip-rule="evenodd" d="M4.96987 4.37953C4.39135 3.80101 4.39135 2.86305 4.96986 2.28453L5.28494 1.96945C5.86346 1.39094 6.80142 1.39093 7.37994 1.96945L7.69502 2.28453C8.27354 2.86305 8.27354 3.80101 7.69502 4.37953L7.37994 4.69461C6.80142 5.27313 5.86346 5.27313 5.28494 4.69461L4.96987 4.37953Z" stroke="#1E293B" stroke-linecap="round" stroke-linejoin="round"/>
</svg>
