<svg width="24" height="24" viewBox="0 0 24 24" fill="none" xmlns="http://www.w3.org/2000/svg">
<rect width="24" height="24" fill="white"/>
<path fill-rule="evenodd" clip-rule="evenodd" d="M7.73136 20.8325C7.22429 21.0972 6.61084 21.0506 6.14958 20.7124C5.68831 20.3741 5.45945 19.8031 5.55946 19.2399L6.36879 14.6009L2.96137 11.3356C2.54488 10.9384 2.39224 10.338 2.56847 9.7901C2.7447 9.24222 3.21876 8.84339 3.78872 8.76351L8.51969 8.08723L10.6556 3.82645C10.9088 3.31546 11.4298 2.99219 12.0001 2.99219C12.5704 2.99219 13.0915 3.31546 13.3447 3.82645L15.4806 8.08723L20.2116 8.76351C20.7815 8.84339 21.2556 9.24222 21.4318 9.7901C21.608 10.338 21.4554 10.9384 21.0389 11.3356L17.6315 14.6009L18.4408 19.2409C18.5408 19.8041 18.312 20.3751 17.8507 20.7134C17.3894 21.0516 16.776 21.0982 16.2689 20.8335L12.0001 18.6276L7.73136 20.8325Z" stroke="#94A3B8" stroke-width="1.5" stroke-linecap="round" stroke-linejoin="round"/>
</svg>
