<svg width="24" height="24" viewBox="0 0 24 24" fill="none" xmlns="http://www.w3.org/2000/svg">
<path fill-rule="evenodd" clip-rule="evenodd" d="M19 21H5C3.895 21 3 20.105 3 19V5C3 3.895 3.895 3 5 3H19C20.105 3 21 3.895 21 5V19C21 20.105 20.105 21 19 21Z" stroke="#C2F5E9" stroke-width="1.5" stroke-linecap="round" stroke-linejoin="round"/>
<path d="M14.4749 7.44713C15.8417 8.81397 15.8417 11.03 14.4749 12.3969C13.108 13.7637 10.892 13.7637 9.52513 12.3969C8.15829 11.03 8.15829 8.81397 9.52513 7.44713C10.892 6.08029 13.108 6.08029 14.4749 7.44713" stroke="#C2F5E9" stroke-width="1.5" stroke-linecap="round" stroke-linejoin="round"/>
<path d="M17.4131 18.031C17.2361 17.585 16.9611 17.185 16.6091 16.859V16.859C16.0141 16.307 15.2361 16 14.4241 16C13.0701 16 10.9301 16 9.57606 16C8.76406 16 7.98606 16.307 7.39006 16.859V16.859C7.03806 17.185 6.76406 17.585 6.58606 18.031" stroke="#C2F5E9" stroke-width="1.5" stroke-linecap="round" stroke-linejoin="round"/>
</svg>
