<svg width="25" height="24" viewBox="0 0 25 24" fill="none" xmlns="http://www.w3.org/2000/svg">
<path d="M14.3945 13.48C14.2565 13.481 14.1455 13.593 14.1455 13.731C14.1455 13.869 14.2575 13.981 14.3955 13.98C14.5335 13.98 14.6455 13.868 14.6455 13.73C14.6455 13.592 14.5335 13.48 14.3945 13.48" stroke="#334155" stroke-width="1.5" stroke-linecap="round" stroke-linejoin="round"/>
<path d="M3.89554 6.283V6C3.89554 4.343 5.23854 3 6.89554 3H18.8955C20.5525 3 21.8955 4.343 21.8955 6V15C21.8955 16.657 20.5525 18 18.8955 18H17.8955" stroke="#334155" stroke-width="1.5" stroke-linecap="round" stroke-linejoin="round"/>
<path d="M21.8955 9H17.8955" stroke="#334155" stroke-width="1.5" stroke-linecap="round" stroke-linejoin="round"/>
<path fill-rule="evenodd" clip-rule="evenodd" d="M14.2205 20.922C16.1005 21.356 17.8955 19.928 17.8955 17.999V9.387C17.8955 7.99 16.9315 6.778 15.5705 6.464L6.34554 4.335C5.09154 4.045 3.89554 4.997 3.89554 6.283V16.152C3.89554 17.549 4.85954 18.761 6.22054 19.075L14.2205 20.922V20.922Z" stroke="#334155" stroke-width="1.5" stroke-linecap="round" stroke-linejoin="round"/>
</svg>
