<svg width="17" height="16" viewBox="0 0 17 16" fill="none" xmlns="http://www.w3.org/2000/svg">
<path fill-rule="evenodd" clip-rule="evenodd" d="M2.83337 9.33333L1.64079 11.7185C1.54822 11.9036 1.50002 12.1077 1.5 12.3147V12.9967C1.49999 13.5462 1.94345 13.9928 2.493 13.9967L2.96671 14H14.0333L14.5035 13.9983C15.0545 13.9964 15.5 13.5492 15.5 12.9983V12.3147C15.5 12.1077 15.4518 11.9036 15.3592 11.7185L14.1667 9.33333V3.33333C14.1667 2.59695 13.5697 2 12.8333 2H4.16667C3.43029 2 2.83333 2.59695 2.83333 3.33333L2.83337 9.33333Z" stroke="#FBA79B" stroke-width="1.5" stroke-linecap="round" stroke-linejoin="round"/>
<path d="M2.58334 9.83333H14.4167" stroke="#FBA79B" stroke-width="1.5" stroke-linecap="round" stroke-linejoin="round"/>
<path d="M6.9805 12.0013H10.0195" stroke="#FBA79B" stroke-width="1.5" stroke-linecap="round" stroke-linejoin="round"/>
</svg>
