<svg width="24" height="24" viewBox="0 0 24 24" fill="none" xmlns="http://www.w3.org/2000/svg">
<path d="M18.5027 12.0002C18.5027 12.2765 18.2787 12.5004 18.0025 12.5004C17.7262 12.5004 17.5023 12.2765 17.5023 12.0002C17.5023 11.724 17.7262 11.5 18.0025 11.5C18.2787 11.5 18.5027 11.724 18.5027 12.0002" stroke="#64748B" stroke-width="1.5" stroke-linecap="round" stroke-linejoin="round"/>
<path d="M12.5002 12.0002C12.5002 12.2765 12.2762 12.5004 12 12.5004C11.7237 12.5004 11.4998 12.2765 11.4998 12.0002C11.4998 11.724 11.7237 11.5 12 11.5C12.2762 11.5 12.5002 11.724 12.5002 12.0002" stroke="#64748B" stroke-width="1.5" stroke-linecap="round" stroke-linejoin="round"/>
<path d="M6.49773 12.0002C6.49773 12.2765 6.27378 12.5004 5.99752 12.5004C5.72127 12.5004 5.49731 12.2765 5.49731 12.0002C5.49731 11.724 5.72127 11.5 5.99752 11.5C6.27378 11.5 6.49773 11.724 6.49773 12.0002" stroke="#64748B" stroke-width="1.5" stroke-linecap="round" stroke-linejoin="round"/>
</svg>
