<svg width="24" height="24" viewBox="0 0 24 24" fill="none" xmlns="http://www.w3.org/2000/svg">
<path d="M11.9972 17.502C11.7221 17.502 11.497 17.727 11.5 18.0022C11.5 18.2773 11.7251 18.5024 12.0002 18.5024C12.2754 18.5024 12.5004 18.2773 12.5004 18.0022C12.5004 17.727 12.2754 17.502 11.9972 17.502" stroke="#323232" stroke-width="1.5" stroke-linecap="round" stroke-linejoin="round"/>
<path d="M11.9972 11.5C11.7221 11.5 11.497 11.7251 11.5 12.0002C11.5 12.2753 11.7251 12.5004 12.0002 12.5004C12.2754 12.5004 12.5004 12.2753 12.5004 12.0002C12.5004 11.7251 12.2754 11.5 11.9972 11.5" stroke="#323232" stroke-width="1.5" stroke-linecap="round" stroke-linejoin="round"/>
<path d="M11.9972 5.49707C11.7221 5.49707 11.497 5.72216 11.5 5.99728C11.5 6.27239 11.7251 6.49749 12.0002 6.49749C12.2754 6.49749 12.5004 6.27239 12.5004 5.99728C12.5004 5.72216 12.2754 5.49707 11.9972 5.49707" stroke="#323232" stroke-width="1.5" stroke-linecap="round" stroke-linejoin="round"/>
</svg>
