<svg width="179" height="41" viewBox="0 0 179 41" fill="none" xmlns="http://www.w3.org/2000/svg">
<path d="M35.051 38.1631H35.0549C38.2922 38.1631 40.9165 35.531 40.9165 32.2842L40.9165 8.37885C40.9165 5.13201 38.2922 2.49993 35.0549 2.49993H35.051C31.8138 2.49993 29.1894 5.13201 29.1894 8.37885L29.1894 32.2842C29.1894 35.531 31.8138 38.1631 35.051 38.1631Z" fill="#7487FF"/>
<path d="M21.5199 12.0669C19.0006 14.2056 18.6861 17.9732 20.8175 20.4819C22.9489 22.9907 26.719 23.2906 29.2383 21.1519L38.8502 12.992C41.3695 10.8532 41.684 7.08569 39.5526 4.57694C37.4212 2.06818 33.651 1.76822 31.1318 3.90695L21.5199 12.0669Z" fill="white"/>
<path d="M8.30733 2.49902H8.30353C5.1106 2.49902 2.52222 5.06393 2.52222 8.2279V32.4333C2.52222 35.5973 5.1106 38.1622 8.30353 38.1622H8.30733C11.5003 38.1622 14.0886 35.5973 14.0886 32.4333V8.2279C14.0886 5.06393 11.5003 2.49902 8.30733 2.49902Z" fill="white"/>
<path d="M12.2466 3.98212C9.84952 1.78259 6.13642 1.92689 3.95315 4.30444C1.76989 6.68199 1.94321 10.3925 4.34029 12.592L30.8225 36.8919C33.2196 39.0914 36.9327 38.9471 39.116 36.5696C41.2993 34.192 41.1259 30.4816 38.7289 28.282L12.2466 3.98212Z" fill="#A9B5FF"/>
<path d="M49.6145 10.2181H53.373V12.1962H53.4291C53.9527 11.4426 54.5791 10.8586 55.3083 10.4442C56.0563 10.0298 56.9071 9.82253 57.8608 9.82253C58.777 9.82253 59.6091 10.0015 60.3571 10.3594C61.1237 10.7174 61.7034 11.3484 62.0961 12.2527C62.5262 11.6122 63.1058 11.047 63.8351 10.5572C64.583 10.0674 65.4619 9.82253 66.4716 9.82253C67.2383 9.82253 67.9489 9.91672 68.6033 10.1051C69.2578 10.2935 69.8188 10.5949 70.2862 11.0094C70.7537 11.4238 71.1183 11.9701 71.3801 12.6483C71.6419 13.3076 71.7728 14.1083 71.7728 15.0502V24.8274H67.7899V16.5479C67.7899 16.0581 67.7712 15.5965 67.7338 15.1632C67.6964 14.7299 67.5936 14.3532 67.4253 14.0329C67.257 13.7127 67.0046 13.4584 66.668 13.27C66.3501 13.0816 65.9107 12.9874 65.3497 12.9874C64.7887 12.9874 64.3306 13.1004 63.9753 13.3265C63.6387 13.5337 63.3676 13.8163 63.1619 14.1742C62.9749 14.5133 62.844 14.9089 62.7692 15.361C62.7131 15.7943 62.6851 16.237 62.6851 16.6891V24.8274H58.7022V16.6326C58.7022 16.1993 58.6929 15.7755 58.6742 15.361C58.6555 14.9278 58.5713 14.5321 58.4217 14.1742C58.2908 13.8163 58.0571 13.5337 57.7205 13.3265C57.4026 13.1004 56.9258 12.9874 56.29 12.9874C56.1031 12.9874 55.8506 13.0345 55.5327 13.1287C55.2335 13.204 54.9344 13.3642 54.6352 13.6091C54.3547 13.8351 54.1116 14.1742 53.9059 14.6263C53.7002 15.0596 53.5974 15.6342 53.5974 16.3501V24.8274H49.6145V10.2181Z" fill="white"/>
<path d="M87.4028 24.8274H83.6163V22.7928H83.5321C83.0273 23.6405 82.3728 24.2528 81.5687 24.6296C80.7647 25.0063 79.9419 25.1947 79.1005 25.1947C78.0346 25.1947 77.1558 25.0534 76.4639 24.7709C75.7908 24.4883 75.2578 24.0927 74.8652 23.584C74.4725 23.0566 74.192 22.4255 74.0237 21.6908C73.8741 20.9372 73.7993 20.1083 73.7993 19.2041V10.2181H77.7822V18.4694C77.7822 19.675 77.9692 20.5793 78.3432 21.1821C78.7171 21.7661 79.381 22.0581 80.3346 22.0581C81.4191 22.0581 82.2045 21.7379 82.6907 21.0974C83.1769 20.438 83.4199 19.3642 83.4199 17.876V10.2181H87.4028V24.8274Z" fill="white"/>
<path d="M89.416 4.65137H93.3988V24.8274H89.416V4.65137Z" fill="white"/>
<path d="M100.462 10.2181H103.379V12.9026H100.462V20.1366C100.462 20.8148 100.574 21.2669 100.798 21.493C101.023 21.719 101.472 21.8321 102.145 21.8321C102.369 21.8321 102.584 21.8226 102.79 21.8038C102.996 21.785 103.192 21.7567 103.379 21.719V24.8274C103.042 24.8839 102.668 24.9216 102.257 24.9404C101.846 24.9592 101.444 24.9687 101.051 24.9687C100.434 24.9687 99.8447 24.9216 99.2838 24.8274C98.7415 24.752 98.2553 24.5919 97.8252 24.347C97.4139 24.1021 97.0866 23.7536 96.8435 23.3015C96.6005 22.8493 96.4789 22.2559 96.4789 21.5212V12.9026H94.0667V10.2181H96.4789V5.83819H100.462V10.2181Z" fill="white"/>
<path d="M108.247 7.95752H104.264V4.65137H108.247V7.95752ZM104.264 10.2181H108.247V24.8274H104.264V10.2181Z" fill="white"/>
<path d="M110.373 10.2181H114.132V12.1962H114.188C114.712 11.4426 115.338 10.8586 116.067 10.4442C116.815 10.0298 117.666 9.82253 118.62 9.82253C119.536 9.82253 120.368 10.0015 121.116 10.3594C121.883 10.7174 122.462 11.3484 122.855 12.2527C123.285 11.6122 123.865 11.047 124.594 10.5572C125.342 10.0674 126.221 9.82253 127.231 9.82253C127.997 9.82253 128.708 9.91672 129.362 10.1051C130.017 10.2935 130.578 10.5949 131.045 11.0094C131.513 11.4238 131.877 11.9701 132.139 12.6483C132.401 13.3076 132.532 14.1083 132.532 15.0502V24.8274H128.549V16.5479C128.549 16.0581 128.53 15.5965 128.493 15.1632C128.455 14.7299 128.353 14.3532 128.184 14.0329C128.016 13.7127 127.764 13.4584 127.427 13.27C127.109 13.0816 126.67 12.9874 126.109 12.9874C125.548 12.9874 125.09 13.1004 124.734 13.3265C124.398 13.5337 124.127 13.8163 123.921 14.1742C123.734 14.5133 123.603 14.9089 123.528 15.361C123.472 15.7943 123.444 16.237 123.444 16.6891V24.8274H119.461V16.6326C119.461 16.1993 119.452 15.7755 119.433 15.361C119.414 14.9278 119.33 14.5321 119.181 14.1742C119.05 13.8163 118.816 13.5337 118.479 13.3265C118.162 13.1004 117.685 12.9874 117.049 12.9874C116.862 12.9874 116.61 13.0345 116.292 13.1287C115.992 13.204 115.693 13.3642 115.394 13.6091C115.114 13.8351 114.871 14.1742 114.665 14.6263C114.459 15.0596 114.356 15.6342 114.356 16.3501V24.8274H110.373V10.2181Z" fill="white"/>
<path d="M144.319 15.9544C144.132 14.9372 143.796 14.1648 143.309 13.6373C142.842 13.1098 142.122 12.8461 141.15 12.8461C140.514 12.8461 139.981 12.9591 139.551 13.1852C139.139 13.3924 138.803 13.6562 138.541 13.9764C138.298 14.2967 138.12 14.6358 138.008 14.9937C137.915 15.3516 137.859 15.6719 137.84 15.9544H144.319ZM137.84 18.4976C137.896 19.7975 138.223 20.7394 138.822 21.3234C139.42 21.9074 140.28 22.1994 141.402 22.1994C142.206 22.1994 142.898 22.0016 143.478 21.606C144.057 21.1915 144.413 20.7583 144.544 20.3061H148.05C147.489 22.0581 146.628 23.3109 145.469 24.0644C144.31 24.8179 142.907 25.1947 141.262 25.1947C140.121 25.1947 139.093 25.0158 138.177 24.6578C137.26 24.2811 136.484 23.7536 135.848 23.0754C135.213 22.3972 134.717 21.5872 134.362 20.6452C134.025 19.7033 133.857 18.6672 133.857 17.5369C133.857 16.4443 134.035 15.427 134.39 14.485C134.745 13.5431 135.25 12.7331 135.905 12.0549C136.559 11.3579 137.335 10.8115 138.233 10.4159C139.149 10.0203 140.159 9.82253 141.262 9.82253C142.496 9.82253 143.571 10.0674 144.487 10.5572C145.404 11.0282 146.152 11.6687 146.731 12.4788C147.33 13.2888 147.76 14.2119 148.022 15.248C148.283 16.2841 148.377 17.3673 148.302 18.4976H137.84Z" fill="white"/>
<path d="M159.836 17.4804C159.836 16.8775 159.78 16.303 159.668 15.7566C159.556 15.1915 159.359 14.7017 159.079 14.2872C158.817 13.854 158.471 13.5054 158.041 13.2417C157.611 12.978 157.069 12.8461 156.414 12.8461C155.76 12.8461 155.208 12.978 154.759 13.2417C154.311 13.5054 153.946 13.854 153.665 14.2872C153.404 14.7205 153.207 15.2197 153.076 15.7849C152.964 16.3312 152.908 16.9058 152.908 17.5086C152.908 18.0738 152.974 18.6389 153.104 19.2041C153.235 19.7692 153.441 20.2779 153.721 20.73C154.021 21.1633 154.385 21.5212 154.815 21.8038C155.264 22.0675 155.797 22.1994 156.414 22.1994C157.069 22.1994 157.611 22.0675 158.041 21.8038C158.49 21.5401 158.845 21.1915 159.107 20.7583C159.369 20.3061 159.556 19.7975 159.668 19.2323C159.78 18.6672 159.836 18.0832 159.836 17.4804ZM159.892 22.9624H159.836C159.369 23.7536 158.752 24.3281 157.985 24.6861C157.237 25.0252 156.386 25.1947 155.432 25.1947C154.348 25.1947 153.394 24.9875 152.572 24.573C151.749 24.1398 151.066 23.5652 150.524 22.8493C150 22.1146 149.598 21.2763 149.318 20.3344C149.056 19.3925 148.925 18.4129 148.925 17.3956C148.925 16.416 149.056 15.4741 149.318 14.5698C149.598 13.6467 150 12.8367 150.524 12.1397C151.066 11.4426 151.739 10.8869 152.543 10.4725C153.348 10.0392 154.282 9.82253 155.348 9.82253C156.208 9.82253 157.022 10.0109 157.789 10.3877C158.574 10.7456 159.191 11.2825 159.64 11.9984H159.696V4.65137H163.679V24.8274H159.892V22.9624Z" fill="white"/>
<path d="M168.652 20.0801C168.652 20.5134 168.737 20.8901 168.905 21.2104C169.092 21.5118 169.326 21.7661 169.606 21.9733C169.887 22.1617 170.205 22.303 170.56 22.3972C170.934 22.4914 171.317 22.5385 171.71 22.5385C171.99 22.5385 172.28 22.5102 172.579 22.4537C172.897 22.3784 173.178 22.2748 173.421 22.1429C173.683 21.9922 173.898 21.8038 174.066 21.5777C174.234 21.3328 174.318 21.0314 174.318 20.6735C174.318 20.0707 173.916 19.6185 173.112 19.3171C172.327 19.0157 171.224 18.7143 169.802 18.4129C169.223 18.281 168.652 18.1303 168.092 17.9607C167.549 17.7724 167.063 17.5369 166.633 17.2543C166.203 16.9529 165.857 16.5855 165.595 16.1523C165.333 15.7001 165.203 15.1538 165.203 14.5133C165.203 13.5714 165.38 12.799 165.735 12.1962C166.109 11.5933 166.596 11.1224 167.194 10.7833C167.792 10.4254 168.465 10.1805 169.213 10.0486C169.961 9.89788 170.728 9.82253 171.513 9.82253C172.299 9.82253 173.056 9.89788 173.785 10.0486C174.533 10.1993 175.197 10.4536 175.777 10.8115C176.356 11.1695 176.833 11.6499 177.207 12.2527C177.6 12.8367 177.834 13.5808 177.908 14.485H174.122C174.066 13.7127 173.776 13.1946 173.252 12.9309C172.729 12.6483 172.112 12.507 171.401 12.507C171.177 12.507 170.934 12.5258 170.672 12.5635C170.41 12.5824 170.167 12.6389 169.943 12.7331C169.737 12.8273 169.559 12.9686 169.41 13.1569C169.26 13.3265 169.185 13.562 169.185 13.8634C169.185 14.2213 169.316 14.5133 169.578 14.7394C169.84 14.9654 170.176 15.1538 170.588 15.3045C171.018 15.4364 171.504 15.5588 172.046 15.6719C172.589 15.7849 173.14 15.9074 173.701 16.0392C174.281 16.1711 174.842 16.3312 175.384 16.5196C175.945 16.708 176.441 16.9623 176.871 17.2826C177.301 17.584 177.647 17.9702 177.908 18.4411C178.17 18.8933 178.301 19.4584 178.301 20.1366C178.301 21.0974 178.105 21.9074 177.712 22.5668C177.338 23.2073 176.843 23.7253 176.226 24.1209C175.609 24.5165 174.898 24.7897 174.094 24.9404C173.309 25.1099 172.504 25.1947 171.682 25.1947C170.84 25.1947 170.018 25.1099 169.213 24.9404C168.409 24.7709 167.689 24.4883 167.054 24.0927C166.437 23.6971 165.922 23.179 165.511 22.5385C165.118 21.8791 164.903 21.0597 164.866 20.0801H168.652Z" fill="white"/>
<path d="M49.6145 29.9873H50.4068V32.5361H53.5428V29.9873H54.3351V35.9151H53.5428V33.2003H50.4068V35.9151H49.6145V29.9873Z" fill="white"/>
<path d="M58.3191 33.358C58.308 33.192 58.2691 33.0342 58.2023 32.8848C58.1412 32.7353 58.055 32.608 57.9438 32.5029C57.8381 32.3922 57.7103 32.3064 57.5601 32.2455C57.4156 32.1791 57.2543 32.1459 57.0764 32.1459C56.8929 32.1459 56.7261 32.1791 56.576 32.2455C56.4314 32.3064 56.3063 32.3922 56.2007 32.5029C56.095 32.6136 56.0116 32.7436 55.9505 32.8931C55.8893 33.037 55.8532 33.192 55.842 33.358H58.3191ZM59.003 34.5535C58.9085 35.0351 58.7 35.3976 58.3775 35.6411C58.055 35.8847 57.6491 36.0064 57.1598 36.0064C56.8151 36.0064 56.5148 35.9511 56.2591 35.8404C56.0088 35.7297 55.7976 35.5747 55.6252 35.3755C55.4528 35.1762 55.3222 34.9382 55.2332 34.6615C55.1498 34.3847 55.1025 34.0831 55.0914 33.7565C55.0914 33.43 55.1414 33.1311 55.2415 32.8599C55.3416 32.5887 55.4806 32.3534 55.6585 32.1542C55.842 31.9549 56.0561 31.8 56.3008 31.6893C56.551 31.5786 56.8234 31.5232 57.1181 31.5232C57.5018 31.5232 57.8187 31.6035 58.0689 31.764C58.3247 31.919 58.5276 32.1182 58.6777 32.3617C58.8334 32.6053 58.9391 32.8709 58.9947 33.1588C59.0558 33.4466 59.0809 33.7205 59.0697 33.9807H55.842C55.8365 34.1689 55.8587 34.3487 55.9088 34.5203C55.9588 34.6864 56.0394 34.8358 56.1506 34.9686C56.2618 35.0959 56.4036 35.1983 56.576 35.2758C56.7483 35.3533 56.9513 35.3921 57.1848 35.3921C57.4851 35.3921 57.7297 35.3229 57.9188 35.1845C58.1134 35.0461 58.2413 34.8358 58.3024 34.5535H59.003Z" fill="white"/>
<path d="M63.4326 35.8985C63.3103 35.9704 63.1407 36.0064 62.9239 36.0064C62.7404 36.0064 62.593 35.9566 62.4818 35.857C62.3762 35.7518 62.3234 35.583 62.3234 35.3505C62.1288 35.583 61.9008 35.7518 61.6395 35.857C61.3837 35.9566 61.1057 36.0064 60.8054 36.0064C60.6108 36.0064 60.4246 35.9843 60.2466 35.94C60.0743 35.8957 59.9241 35.8265 59.7962 35.7324C59.6684 35.6384 59.5655 35.5166 59.4877 35.3672C59.4154 35.2122 59.3792 35.0268 59.3792 34.8109C59.3792 34.5674 59.4209 34.3681 59.5043 34.2131C59.5877 34.0582 59.6962 33.9336 59.8296 33.8395C59.9686 33.7399 60.1243 33.6652 60.2967 33.6154C60.4746 33.5656 60.6553 33.5241 60.8388 33.4908C61.0334 33.4521 61.2169 33.4244 61.3892 33.4078C61.5672 33.3857 61.7229 33.358 61.8563 33.3248C61.9897 33.2861 62.0954 33.2335 62.1732 33.1671C62.2511 33.0951 62.29 32.9927 62.29 32.8599C62.29 32.7049 62.2594 32.5804 62.1983 32.4863C62.1427 32.3922 62.0676 32.3202 61.9731 32.2704C61.8841 32.2206 61.7812 32.1874 61.6645 32.1708C61.5533 32.1542 61.4421 32.1459 61.3309 32.1459C61.0306 32.1459 60.7804 32.204 60.5802 32.3202C60.3801 32.4309 60.2716 32.644 60.255 32.9595H59.546C59.5572 32.6938 59.6128 32.4697 59.7128 32.287C59.8129 32.1044 59.9464 31.9577 60.1132 31.847C60.28 31.7308 60.469 31.6478 60.6803 31.5979C60.8972 31.5481 61.1279 31.5232 61.3726 31.5232C61.5672 31.5232 61.759 31.5371 61.948 31.5647C62.1427 31.5924 62.3178 31.6505 62.4735 31.7391C62.6292 31.8221 62.7543 31.9411 62.8488 32.0961C62.9433 32.251 62.9906 32.4531 62.9906 32.7021V34.9105C62.9906 35.0766 62.9989 35.1983 63.0156 35.2758C63.0378 35.3533 63.1046 35.3921 63.2158 35.3921C63.2769 35.3921 63.3492 35.3782 63.4326 35.3505V35.8985ZM62.2817 33.6984C62.1927 33.7648 62.0759 33.8146 61.9314 33.8478C61.7868 33.8755 61.6339 33.9004 61.4726 33.9226C61.317 33.9392 61.1585 33.9613 60.9973 33.989C60.836 34.0111 60.6914 34.0499 60.5636 34.1052C60.4357 34.1606 60.33 34.2408 60.2466 34.346C60.1688 34.4456 60.1299 34.584 60.1299 34.7611C60.1299 34.8773 60.1521 34.9769 60.1966 35.06C60.2466 35.1375 60.3078 35.2011 60.3801 35.2509C60.4579 35.3007 60.5469 35.3367 60.647 35.3588C60.747 35.381 60.8527 35.3921 60.9639 35.3921C61.1974 35.3921 61.3976 35.3616 61.5644 35.3007C61.7312 35.2343 61.8674 35.1541 61.9731 35.06C62.0787 34.9603 62.1566 34.8552 62.2066 34.7445C62.2566 34.6283 62.2817 34.5203 62.2817 34.4207V33.6984Z" fill="white"/>
<path d="M63.9423 29.9873H64.6512V35.9151H63.9423V29.9873Z" fill="white"/>
<path d="M66.5418 31.6228H67.4008V32.2455H66.5418V34.9105C66.5418 34.9936 66.5474 35.06 66.5585 35.1098C66.5752 35.1596 66.603 35.1983 66.6419 35.226C66.6808 35.2537 66.7336 35.2731 66.8003 35.2841C66.8726 35.2897 66.9644 35.2924 67.0756 35.2924H67.4008V35.9151H66.8587C66.6752 35.9151 66.5168 35.904 66.3833 35.8819C66.2554 35.8542 66.1498 35.8072 66.0664 35.7408C65.9886 35.6743 65.9302 35.5802 65.8912 35.4585C65.8523 35.3367 65.8329 35.1762 65.8329 34.9769V32.2455H65.0989V31.6228H65.8329V30.336H66.5418V31.6228Z" fill="white"/>
<path d="M67.9966 29.9873H68.7055V32.2538H68.7222C68.7778 32.121 68.8556 32.0103 68.9557 31.9217C69.0558 31.8276 69.167 31.7529 69.2893 31.6976C69.4172 31.6367 69.5479 31.5924 69.6813 31.5647C69.8203 31.5371 69.9538 31.5232 70.0817 31.5232C70.3652 31.5232 70.6015 31.562 70.7906 31.6394C70.9796 31.7169 71.1325 31.8249 71.2493 31.9632C71.3661 32.1016 71.4467 32.2677 71.4912 32.4614C71.5412 32.6496 71.5662 32.8599 71.5662 33.0923V35.9151H70.8573V33.0093C70.8573 32.7436 70.7795 32.5333 70.6238 32.3783C70.4681 32.2234 70.254 32.1459 69.9816 32.1459C69.7647 32.1459 69.5757 32.1791 69.4144 32.2455C69.2588 32.3119 69.1281 32.406 69.0224 32.5278C68.9168 32.6496 68.8362 32.7935 68.7806 32.9595C68.7305 33.12 68.7055 33.2971 68.7055 33.4908V35.9151H67.9966V29.9873Z" fill="white"/>
<path d="M75.3666 33.001C75.311 32.7298 75.1943 32.5195 75.0163 32.37C74.8384 32.2206 74.5993 32.1459 74.2991 32.1459C74.0433 32.1459 73.8292 32.1929 73.6569 32.287C73.4845 32.3811 73.3455 32.5056 73.2398 32.6606C73.1398 32.8156 73.0675 32.9955 73.023 33.2003C72.9785 33.3995 72.9563 33.6071 72.9563 33.8229C72.9563 34.0222 72.9785 34.2159 73.023 34.4041C73.073 34.5923 73.1481 34.7611 73.2482 34.9105C73.3483 35.0544 73.4789 35.1707 73.6402 35.2592C73.8014 35.3478 73.9932 35.3921 74.2157 35.3921C74.5659 35.3921 74.8384 35.3007 75.033 35.1181C75.2332 34.9354 75.3555 34.6781 75.4 34.346H76.1256C76.0477 34.8773 75.8476 35.2869 75.5251 35.5747C75.2081 35.8625 74.7745 36.0064 74.224 36.0064C73.8959 36.0064 73.604 35.9538 73.3483 35.8487C73.0981 35.7435 72.8868 35.5941 72.7144 35.4004C72.5476 35.2066 72.4197 34.9769 72.3307 34.7113C72.2473 34.4401 72.2056 34.144 72.2056 33.8229C72.2056 33.5019 72.2473 33.203 72.3307 32.9263C72.4141 32.644 72.5393 32.4005 72.7061 32.1957C72.8784 31.9854 73.0925 31.8221 73.3483 31.7059C73.604 31.5841 73.9015 31.5232 74.2407 31.5232C74.4853 31.5232 74.7133 31.5537 74.9246 31.6145C75.1414 31.6699 75.3305 31.7584 75.4917 31.8802C75.6585 32.002 75.7948 32.157 75.9004 32.3451C76.006 32.5278 76.0728 32.7464 76.1006 33.001H75.3666Z" fill="white"/>
<path d="M80.5469 35.8985C80.4245 35.9704 80.2549 36.0064 80.0381 36.0064C79.8546 36.0064 79.7073 35.9566 79.5961 35.857C79.4904 35.7518 79.4376 35.583 79.4376 35.3505C79.243 35.583 79.015 35.7518 78.7537 35.857C78.4979 35.9566 78.2199 36.0064 77.9197 36.0064C77.725 36.0064 77.5388 35.9843 77.3609 35.94C77.1885 35.8957 77.0384 35.8265 76.9105 35.7324C76.7826 35.6384 76.6797 35.5166 76.6019 35.3672C76.5296 35.2122 76.4935 35.0268 76.4935 34.8109C76.4935 34.5674 76.5352 34.3681 76.6186 34.2131C76.702 34.0582 76.8104 33.9336 76.9438 33.8395C77.0828 33.7399 77.2385 33.6652 77.4109 33.6154C77.5888 33.5656 77.7695 33.5241 77.953 33.4908C78.1476 33.4521 78.3311 33.4244 78.5035 33.4078C78.6814 33.3857 78.8371 33.358 78.9705 33.3248C79.104 33.2861 79.2096 33.2335 79.2875 33.1671C79.3653 33.0951 79.4042 32.9927 79.4042 32.8599C79.4042 32.7049 79.3736 32.5804 79.3125 32.4863C79.2569 32.3922 79.1818 32.3202 79.0873 32.2704C78.9983 32.2206 78.8955 32.1874 78.7787 32.1708C78.6675 32.1542 78.5563 32.1459 78.4451 32.1459C78.1448 32.1459 77.8946 32.204 77.6945 32.3202C77.4943 32.4309 77.3859 32.644 77.3692 32.9595H76.6603C76.6714 32.6938 76.727 32.4697 76.8271 32.287C76.9272 32.1044 77.0606 31.9577 77.2274 31.847C77.3942 31.7308 77.5833 31.6478 77.7946 31.5979C78.0114 31.5481 78.2421 31.5232 78.4868 31.5232C78.6814 31.5232 78.8732 31.5371 79.0623 31.5647C79.2569 31.5924 79.432 31.6505 79.5877 31.7391C79.7434 31.8221 79.8685 31.9411 79.963 32.0961C80.0576 32.251 80.1048 32.4531 80.1048 32.7021V34.9105C80.1048 35.0766 80.1132 35.1983 80.1298 35.2758C80.1521 35.3533 80.2188 35.3921 80.33 35.3921C80.3912 35.3921 80.4634 35.3782 80.5469 35.3505V35.8985ZM79.3959 33.6984C79.3069 33.7648 79.1902 33.8146 79.0456 33.8478C78.901 33.8755 78.7481 33.9004 78.5869 33.9226C78.4312 33.9392 78.2727 33.9613 78.1115 33.989C77.9502 34.0111 77.8057 34.0499 77.6778 34.1052C77.5499 34.1606 77.4443 34.2408 77.3609 34.346C77.283 34.4456 77.2441 34.584 77.2441 34.7611C77.2441 34.8773 77.2663 34.9769 77.3108 35.06C77.3609 35.1375 77.422 35.2011 77.4943 35.2509C77.5721 35.3007 77.6611 35.3367 77.7612 35.3588C77.8613 35.381 77.9669 35.3921 78.0781 35.3921C78.3117 35.3921 78.5118 35.3616 78.6786 35.3007C78.8454 35.2343 78.9817 35.1541 79.0873 35.06C79.1929 34.9603 79.2708 34.8552 79.3208 34.7445C79.3709 34.6283 79.3959 34.5203 79.3959 34.4207V33.6984Z" fill="white"/>
<path d="M80.9898 31.6228H81.657V32.5278H81.6737C81.8461 32.1791 82.0574 31.9217 82.3076 31.7557C82.5578 31.5896 82.8747 31.5121 83.2584 31.5232V32.2704C82.9748 32.2704 82.7329 32.3092 82.5328 32.3866C82.3326 32.4641 82.1713 32.5776 82.049 32.727C81.9267 32.8765 81.8377 33.0591 81.7821 33.275C81.7265 33.4853 81.6987 33.7288 81.6987 34.0056V35.9151H80.9898V31.6228Z" fill="white"/>
<path d="M86.4479 33.358C86.4368 33.192 86.3979 33.0342 86.3312 32.8848C86.27 32.7353 86.1838 32.608 86.0726 32.5029C85.967 32.3922 85.8391 32.3064 85.689 32.2455C85.5444 32.1791 85.3832 32.1459 85.2052 32.1459C85.0217 32.1459 84.8549 32.1791 84.7048 32.2455C84.5603 32.3064 84.4351 32.3922 84.3295 32.5029C84.2239 32.6136 84.1405 32.7436 84.0793 32.8931C84.0181 33.037 83.982 33.192 83.9709 33.358H86.4479ZM87.1318 34.5535C87.0373 35.0351 86.8288 35.3976 86.5063 35.6411C86.1838 35.8847 85.7779 36.0064 85.2886 36.0064C84.9439 36.0064 84.6437 35.9511 84.3879 35.8404C84.1377 35.7297 83.9264 35.5747 83.754 35.3755C83.5817 35.1762 83.451 34.9382 83.362 34.6615C83.2786 34.3847 83.2314 34.0831 83.2202 33.7565C83.2202 33.43 83.2703 33.1311 83.3704 32.8599C83.4705 32.5887 83.6095 32.3534 83.7874 32.1542C83.9709 31.9549 84.1849 31.8 84.4296 31.6893C84.6798 31.5786 84.9522 31.5232 85.2469 31.5232C85.6306 31.5232 85.9475 31.6035 86.1977 31.764C86.4535 31.919 86.6564 32.1182 86.8066 32.3617C86.9623 32.6053 87.0679 32.8709 87.1235 33.1588C87.1847 33.4466 87.2097 33.7205 87.1986 33.9807H83.9709C83.9653 34.1689 83.9876 34.3487 84.0376 34.5203C84.0876 34.6864 84.1683 34.8358 84.2795 34.9686C84.3907 35.0959 84.5325 35.1983 84.7048 35.2758C84.8772 35.3533 85.0801 35.3921 85.3137 35.3921C85.6139 35.3921 85.8586 35.3229 86.0476 35.1845C86.2422 35.0461 86.3701 34.8358 86.4313 34.5535H87.1318Z" fill="white"/>
</svg>
