<svg width="24" height="25" viewBox="0 0 24 25" fill="none" xmlns="http://www.w3.org/2000/svg">
<path fill-rule="evenodd" clip-rule="evenodd" d="M7.496 3.875H16.505C18.987 3.875 21 5.887 21 8.371V17.38C21 19.862 18.988 21.875 16.504 21.875H7.496C5.013 21.875 3 19.863 3 17.379V8.371C3 5.888 5.012 3.875 7.496 3.875V3.875Z" stroke="white" stroke-width="1.5" stroke-linecap="round" stroke-linejoin="round"/>
<path d="M16.949 7.58828C16.763 7.58928 16.612 7.74028 16.612 7.92628C16.612 8.11228 16.764 8.26328 16.95 8.26328C17.136 8.26328 17.287 8.11228 17.287 7.92628C17.288 7.73928 17.136 7.58828 16.949 7.58828" stroke="white" stroke-width="1.5" stroke-linecap="round" stroke-linejoin="round"/>
<path d="M14.5456 10.3298C15.9515 11.7357 15.9515 14.0151 14.5456 15.421C13.1397 16.8269 10.8603 16.8269 9.45444 15.421C8.04855 14.0151 8.04855 11.7357 9.45444 10.3298C10.8603 8.92392 13.1397 8.92392 14.5456 10.3298" stroke="white" stroke-width="1.5" stroke-linecap="round" stroke-linejoin="round"/>
</svg>
