<svg width="150" height="150" viewBox="0 0 150 150" fill="none" xmlns="http://www.w3.org/2000/svg">
<path d="M54.7281 120.406L48.9003 132.851C48.8429 132.974 48.8175 133.109 48.8263 133.245C48.8351 133.38 48.8779 133.511 48.9508 133.626C49.0236 133.74 49.1241 133.834 49.243 133.9C49.362 133.965 49.4954 134 49.6312 134C49.7577 133.999 49.8823 133.968 49.995 133.911C50.1077 133.853 50.2054 133.77 50.2803 133.668L58.0941 122.926L54.7281 120.406Z" fill="#C2F5E9" stroke="#031B89" stroke-width="0.25" stroke-miterlimit="10"/>
<path d="M94.9511 120.406L100.789 132.851C100.847 132.973 100.874 133.108 100.866 133.244C100.858 133.38 100.815 133.511 100.743 133.626C100.67 133.741 100.57 133.835 100.451 133.9C100.332 133.966 100.198 134 100.063 134C99.9352 133.999 99.8098 133.969 99.6963 133.911C99.5827 133.854 99.4842 133.77 99.4086 133.668L91.5996 122.926L94.9511 120.406Z" fill="#C2F5E9" stroke="#031B89" stroke-width="0.25" stroke-miterlimit="10"/>
<path d="M51.7128 32.8965L50.0514 33.7021L57.1534 48.3477L58.8148 47.542L51.7128 32.8965Z" fill="#031B89" stroke="#031B89" stroke-width="0.25" stroke-miterlimit="10"/>
<path d="M70.5385 38.6768L43.0821 52.0011L40.197 46.279C39.6792 45.2057 39.6087 43.9708 40.0009 42.8456C40.3931 41.7204 41.216 40.7969 42.2887 40.278L61.6717 30.8774C62.7455 30.3576 63.9819 30.2854 65.1089 30.6767C66.236 31.068 67.1616 31.8909 67.6823 32.9643L70.5385 38.6768Z" fill="#C2F5E9" stroke="#031B89" stroke-width="0.25" stroke-miterlimit="10"/>
<path d="M90.3092 47.54L91.9706 48.3457L99.0726 33.7002L97.4112 32.8945L90.3092 47.54Z" fill="#031B89" stroke="#031B89" stroke-width="0.25" stroke-miterlimit="10"/>
<path d="M79.0015 38.383L106.482 51.7025L108.915 46.2786C109.432 45.2057 109.502 43.9718 109.111 42.847C108.72 41.7222 107.899 40.7983 106.828 40.2776L87.4451 30.8674C86.372 30.3478 85.1364 30.2757 84.0101 30.6671C82.8838 31.0584 81.9591 31.8811 81.4394 32.9543L79.0015 38.383Z" fill="#C2F5E9" stroke="#031B89" stroke-width="0.25" stroke-miterlimit="10"/>
<path d="M75.2172 36.8594H74.5344V45.2694H75.2172V36.8594Z" fill="#031B89" stroke="#031B89" stroke-width="0.25" stroke-miterlimit="10"/>
<path d="M76.4673 34.9404H73.1399C72.6326 34.9404 72.2214 35.3516 72.2214 35.8588V36.383C72.2214 36.8902 72.6326 37.3014 73.1399 37.3014H76.4673C76.9745 37.3014 77.3857 36.8902 77.3857 36.383V35.8588C77.3857 35.3516 76.9745 34.9404 76.4673 34.9404Z" fill="#031B89" stroke="#031B89" stroke-width="0.25" stroke-miterlimit="10"/>
<path d="M74.8036 127.701C97.9317 127.701 116.681 108.952 116.681 85.8243C116.681 62.6962 97.9317 43.9473 74.8036 43.9473C51.6756 43.9473 32.9266 62.6962 32.9266 85.8243C32.9266 108.952 51.6756 127.701 74.8036 127.701Z" fill="#031B89" stroke="#031B89" stroke-width="0.25" stroke-miterlimit="10"/>
<path d="M110.825 91.0904C113.945 71.3947 100.507 52.8993 80.8113 49.7798C61.1156 46.6603 42.6202 60.098 39.5007 79.7937C36.3812 99.4895 49.8189 117.985 69.5146 121.104C89.2104 124.224 107.706 110.786 110.825 91.0904Z" fill="white" stroke="#031B89" stroke-width="0.25" stroke-miterlimit="10"/>
<path d="M109.634 93.7697C114.027 74.528 101.99 55.3684 82.748 50.9756C63.5062 46.5828 44.3467 58.6202 39.9539 77.8619C35.5611 97.1037 47.5985 116.263 66.8402 120.656C86.0819 125.049 105.241 113.011 109.634 93.7697Z" fill="white" stroke="#031B89" stroke-width="0.25" stroke-miterlimit="10"/>
<path d="M74.1256 84.5639L74.4334 67.1572L75.2796 84.41L74.1256 84.5639Z" fill="#C2F5E9" stroke="#031B89" stroke-width="0.25" stroke-miterlimit="10"/>
<path d="M73.9814 86.7324L48.6455 100.393L74.092 84.9629L73.9814 86.7324Z" fill="#C2F5E9" stroke="#031B89" stroke-width="0.25" stroke-miterlimit="10"/>
<path d="M76.3519 85.8237C76.3528 86.1313 76.2624 86.4323 76.0921 86.6884C75.9218 86.9446 75.6793 87.1444 75.3953 87.2625C75.1113 87.3807 74.7986 87.4118 74.4969 87.3521C74.1952 87.2923 73.918 87.1443 73.7005 86.9268C73.483 86.7093 73.335 86.4321 73.2752 86.1304C73.2154 85.8286 73.2466 85.5159 73.3648 85.2319C73.4829 84.948 73.6827 84.7054 73.9389 84.5351C74.195 84.3649 74.496 84.2744 74.8035 84.2754C75.2138 84.2767 75.6069 84.4402 75.897 84.7303C76.1871 85.0204 76.3506 85.4135 76.3519 85.8237Z" fill="#031B89" stroke="#031B89" stroke-width="0.25" stroke-miterlimit="10"/>
<path d="M109.747 85.8242H107.679" stroke="#031B89" stroke-width="0.25" stroke-miterlimit="10"/>
<path d="M41.928 85.8242H39.8604" stroke="#031B89" stroke-width="0.25" stroke-miterlimit="10"/>
<path d="M106.025 70.1143L104.174 71.0471" stroke="#031B89" stroke-width="0.25" stroke-miterlimit="10"/>
<path d="M45.4334 100.596L43.5822 101.529" stroke="#031B89" stroke-width="0.25" stroke-miterlimit="10"/>
<path d="M92.4651 55.665L91.4169 57.4538" stroke="#031B89" stroke-width="0.25" stroke-miterlimit="10"/>
<path d="M58.1856 114.189L57.1373 115.978" stroke="#031B89" stroke-width="0.25" stroke-miterlimit="10"/>
<path d="M45.4334 71.0471L43.5822 70.1143" stroke="#031B89" stroke-width="0.25" stroke-miterlimit="10"/>
<path d="M106.025 101.529L104.174 100.596" stroke="#031B89" stroke-width="0.25" stroke-miterlimit="10"/>
<path d="M58.1856 57.4538L57.1373 55.665" stroke="#031B89" stroke-width="0.25" stroke-miterlimit="10"/>
<path d="M92.4651 115.978L91.4169 114.189" stroke="#031B89" stroke-width="0.25" stroke-miterlimit="10"/>
<path d="M74.8036 52.9437V50.8809" stroke="#031B89" stroke-width="0.25" stroke-miterlimit="10"/>
<path d="M74.8036 120.767V118.699" stroke="#031B89" stroke-width="0.25" stroke-miterlimit="10"/>
<path d="M72.2504 60.1997V55.4922L72.0677 55.5835L71.8513 55.6749L71.6301 55.7662L71.4377 55.8528V54.9488C71.4906 54.9151 71.5676 54.8767 71.6637 54.8286L71.9763 54.6555C72.0917 54.593 72.1927 54.5257 72.2937 54.4631C72.3704 54.4115 72.4428 54.3536 72.51 54.29H73.4717V60.1997H72.2504Z" fill="#031B89"/>
<path d="M74.4141 60.1997V59.3389L75.8326 57.1655L76.1355 56.6847C76.2309 56.5339 76.3083 56.3725 76.3663 56.2038C76.4273 56.0509 76.4584 55.8876 76.4577 55.723C76.4687 55.5885 76.4331 55.4543 76.3567 55.3431C76.3239 55.3011 76.2814 55.2678 76.2328 55.246C76.1842 55.2242 76.131 55.2146 76.0778 55.2181C76.0224 55.2141 75.9667 55.2219 75.9145 55.241C75.8623 55.26 75.8147 55.2899 75.7749 55.3287C75.6975 55.4078 75.6455 55.5083 75.6258 55.6172C75.5959 55.7513 75.5814 55.8885 75.5825 56.0259V56.3192H74.3852V56.0067C74.3773 55.6781 74.4345 55.3513 74.5535 55.045C74.6602 54.7787 74.8466 54.5519 75.0873 54.3958C75.3775 54.2237 75.7118 54.1401 76.049 54.1554C76.2668 54.14 76.4856 54.1687 76.6921 54.2398C76.8987 54.3108 77.0888 54.4228 77.2511 54.5689C77.3915 54.724 77.4995 54.9055 77.5689 55.1028C77.6382 55.3002 77.6675 55.5094 77.655 55.7182C77.6574 55.9445 77.6183 56.1695 77.5396 56.3817C77.4646 56.5918 77.3645 56.792 77.2415 56.978C77.1165 57.1703 76.9866 57.3723 76.8424 57.579L75.7653 59.1947H77.4915V60.1564L74.4141 60.1997Z" fill="#031B89"/>
<path d="M89.3589 64.1908V59.4833L89.1761 59.5698L88.9597 59.6612L88.7434 59.7526L88.551 59.8391V58.9351C88.6039 58.9063 88.676 58.863 88.777 58.8149L89.0896 58.6418C89.2002 58.5793 89.306 58.5168 89.4021 58.4495C89.4803 58.3977 89.5543 58.3398 89.6233 58.2764H90.585V64.1908H89.3589Z" fill="#031B89"/>
<path d="M99.4133 75.1871V74.3264L100.832 72.1529L101.135 71.6721C101.225 71.5186 101.302 71.3577 101.366 71.1913C101.427 71.0383 101.458 70.8751 101.457 70.7104C101.468 70.5759 101.432 70.4418 101.356 70.3305C101.323 70.2889 101.28 70.2558 101.232 70.234C101.183 70.2122 101.13 70.2025 101.077 70.2055C101.021 70.2018 100.965 70.2097 100.912 70.2287C100.859 70.2477 100.81 70.2775 100.769 70.3161C100.694 70.3965 100.642 70.4964 100.62 70.6046C100.594 70.7393 100.582 70.8762 100.582 71.0133V71.3067H99.3893V70.9941C99.3846 70.6736 99.4417 70.3553 99.5576 70.0565C99.6614 69.7885 99.8485 69.5609 100.091 69.4073C100.381 69.2346 100.716 69.151 101.053 69.1669C101.276 69.1515 101.5 69.1829 101.71 69.2591C101.921 69.3353 102.113 69.4545 102.274 69.6093C102.416 69.7639 102.525 69.9453 102.595 70.1426C102.665 70.34 102.695 70.5494 102.683 70.7585C102.686 70.9849 102.646 71.2098 102.568 71.4221C102.492 71.6294 102.394 71.8277 102.274 72.0135L101.875 72.6146L100.793 74.2302H102.524V75.1919L99.4133 75.1871Z" fill="#031B89"/>
<path d="M104.775 88.3625C104.439 88.3783 104.105 88.2982 103.813 88.1317C103.578 87.9745 103.401 87.7449 103.308 87.4777C103.206 87.1676 103.155 86.8426 103.159 86.516V86.3045H104.38V86.516C104.377 86.677 104.388 86.838 104.414 86.9969C104.428 87.0978 104.475 87.1911 104.549 87.2614C104.622 87.321 104.715 87.3503 104.808 87.3431C104.854 87.3469 104.9 87.3412 104.943 87.3262C104.986 87.3113 105.025 87.2876 105.058 87.2565C105.122 87.1836 105.162 87.0931 105.174 86.9969C105.195 86.8504 105.205 86.7025 105.203 86.5545C105.216 86.3269 105.174 86.0995 105.083 85.8909C105.032 85.8112 104.96 85.7467 104.875 85.7044C104.791 85.662 104.696 85.6434 104.602 85.6505H104.376V84.8138H104.573C104.67 84.8266 104.769 84.8138 104.86 84.7767C104.951 84.7396 105.031 84.6795 105.092 84.6023C105.192 84.3978 105.237 84.1707 105.222 83.9435C105.232 83.7641 105.201 83.5848 105.131 83.4194C105.099 83.3588 105.05 83.3089 104.99 83.2764C104.93 83.2438 104.862 83.23 104.794 83.2367C104.726 83.2302 104.657 83.2465 104.599 83.283C104.54 83.3195 104.496 83.3742 104.472 83.4386C104.419 83.6098 104.395 83.7885 104.4 83.9675V84.2705H103.178V83.9147C103.17 83.6039 103.236 83.2957 103.371 83.0155C103.494 82.775 103.689 82.5785 103.928 82.4529C104.198 82.3214 104.495 82.2571 104.794 82.2654C105.096 82.2586 105.395 82.3211 105.669 82.4481C105.906 82.565 106.102 82.7511 106.232 82.9818C106.37 83.2541 106.438 83.5566 106.429 83.8618C106.439 84.1664 106.364 84.4678 106.213 84.7321C106.107 84.9381 105.923 85.0938 105.703 85.1649C105.842 85.2136 105.968 85.2924 106.073 85.3957C106.193 85.517 106.282 85.6654 106.333 85.8284C106.402 86.0542 106.435 86.2896 106.429 86.5257C106.436 86.8533 106.382 87.1793 106.27 87.4873C106.174 87.7554 105.994 87.9849 105.756 88.1413C105.459 88.313 105.117 88.3901 104.775 88.3625Z" fill="#031B89"/>
<path d="M101.395 100.749V99.4223H99.5769V98.5279L101.116 94.8398H102.558V98.5183H103.106V99.4223H102.558V100.754L101.395 100.749ZM100.505 98.5135H101.395V96.0564L100.505 98.5135Z" fill="#031B89"/>
<path d="M89.681 112.362C89.3448 112.381 89.0103 112.301 88.7193 112.131C88.4981 111.977 88.3395 111.748 88.2721 111.487C88.1911 111.173 88.1523 110.85 88.1567 110.525H89.2915C89.2892 110.709 89.302 110.892 89.33 111.073C89.3409 111.186 89.3882 111.293 89.4646 111.376C89.5025 111.409 89.5469 111.434 89.5949 111.449C89.643 111.464 89.6936 111.469 89.7435 111.463C89.7983 111.465 89.8526 111.452 89.9002 111.424C89.9478 111.397 89.9868 111.357 90.0128 111.309C90.074 111.176 90.1083 111.032 90.1138 110.886C90.1138 110.703 90.1138 110.487 90.1138 110.227C90.1134 110.053 90.1022 109.88 90.0801 109.708C90.0644 109.579 90.0183 109.455 89.9455 109.347C89.9121 109.302 89.8676 109.265 89.8163 109.242C89.765 109.218 89.7085 109.208 89.6522 109.213C89.596 109.211 89.5402 109.222 89.4887 109.244C89.4372 109.267 89.3912 109.3 89.354 109.342C89.2639 109.462 89.206 109.603 89.1857 109.751H88.1327L88.2433 106.347H91.0034V107.366H89.2194L89.1569 108.587C89.2293 108.5 89.3265 108.436 89.4358 108.405C89.577 108.354 89.724 108.322 89.8734 108.309C90.1381 108.267 90.409 108.325 90.6331 108.472C90.8589 108.633 91.0274 108.862 91.114 109.126C91.2279 109.472 91.2816 109.834 91.2726 110.198C91.2743 110.489 91.2551 110.78 91.2149 111.069C91.1838 111.31 91.1071 111.543 90.9889 111.756C90.8762 111.949 90.7089 112.105 90.5081 112.203C90.2485 112.32 89.9653 112.374 89.681 112.362Z" fill="#031B89"/>
<path d="M75.3469 116.93C75.0074 116.949 74.6706 116.86 74.3852 116.675C74.1412 116.507 73.9562 116.267 73.8563 115.988C73.7378 115.668 73.6807 115.328 73.688 114.987V112.848C73.6823 112.5 73.7277 112.153 73.8226 111.819C73.8986 111.534 74.0679 111.284 74.3035 111.107C74.6021 110.915 74.9543 110.824 75.3085 110.847C75.6181 110.834 75.9263 110.895 76.2076 111.025C76.4239 111.132 76.5946 111.313 76.6885 111.535C76.7879 111.801 76.8352 112.083 76.8279 112.367C76.8256 112.386 76.8256 112.405 76.8279 112.424V112.468H75.6835C75.6892 112.29 75.6714 112.112 75.6306 111.939C75.5922 111.828 75.4912 111.771 75.3277 111.771C75.2803 111.767 75.2328 111.774 75.1886 111.792C75.1444 111.809 75.1049 111.836 75.0728 111.871C75.0061 111.979 74.968 112.101 74.9623 112.227C74.9401 112.465 74.9305 112.705 74.9334 112.944V113.468C75.0002 113.361 75.0997 113.278 75.2171 113.232C75.3587 113.173 75.5107 113.142 75.6643 113.141C75.9301 113.12 76.1946 113.195 76.4096 113.353C76.6025 113.513 76.7432 113.727 76.8135 113.968C76.9014 114.251 76.9437 114.547 76.9385 114.843C76.9444 115.212 76.8958 115.58 76.7943 115.935C76.7135 116.222 76.5455 116.478 76.3134 116.666C76.0286 116.856 75.6893 116.949 75.3469 116.93ZM75.3469 116.031C75.3938 116.034 75.4407 116.026 75.4835 116.006C75.5263 115.987 75.5636 115.958 75.5922 115.92C75.649 115.816 75.6834 115.702 75.6931 115.584C75.6931 115.435 75.6931 115.252 75.6931 115.031C75.6931 114.809 75.6931 114.67 75.6931 114.55C75.6902 114.431 75.6571 114.315 75.597 114.213C75.5657 114.172 75.5247 114.14 75.4777 114.119C75.4306 114.098 75.379 114.089 75.3277 114.093C75.2694 114.093 75.212 114.106 75.1594 114.131C75.1079 114.154 75.0608 114.185 75.02 114.223C74.9866 114.254 74.9575 114.29 74.9334 114.329V115.29C74.932 115.416 74.9433 115.542 74.9671 115.665C74.9822 115.767 75.0236 115.863 75.0873 115.944C75.1211 115.977 75.1621 116.002 75.2071 116.017C75.2521 116.032 75.2999 116.037 75.3469 116.031Z" fill="#031B89"/>
<path d="M58.7914 113.992L60.0752 109.01H58.4596V108.077H61.2629V108.914L59.9598 113.992H58.7914Z" fill="#031B89"/>
<path d="M48.4722 101.596C48.1349 101.613 47.8001 101.529 47.5106 101.355C47.2728 101.2 47.0934 100.97 47.0009 100.701C46.8919 100.393 46.8397 100.067 46.847 99.7394C46.8508 99.5957 46.8669 99.4525 46.8951 99.3115C46.9191 99.1788 46.9595 99.0496 47.0153 98.9268C47.0693 98.8124 47.1407 98.707 47.2269 98.6143C47.3139 98.5218 47.4164 98.4453 47.5298 98.3883C47.3639 98.2584 47.2278 98.0944 47.1307 97.9074C47.0045 97.6585 46.9386 97.3835 46.9383 97.1044C46.9269 96.8099 46.9846 96.5168 47.1066 96.2485C47.2128 96.0139 47.3937 95.8211 47.6211 95.7003C47.8828 95.5673 48.174 95.5027 48.4674 95.5128C48.763 95.5023 49.0562 95.5686 49.3185 95.7051C49.5402 95.8303 49.7169 96.0221 49.8234 96.2533C49.9409 96.521 49.9936 96.8126 49.9773 97.1044C49.9842 97.3856 49.9231 97.6644 49.7994 97.917C49.708 98.1077 49.5709 98.2729 49.4003 98.3979C49.5137 98.4549 49.6162 98.5314 49.7032 98.6239C49.791 98.7153 49.8625 98.821 49.9148 98.9364C49.9722 99.059 50.0142 99.1882 50.0398 99.3211C50.0726 99.4614 50.0888 99.605 50.0879 99.7491C50.1028 100.076 50.0538 100.403 49.9436 100.711C49.8476 100.979 49.667 101.208 49.4291 101.365C49.1395 101.533 48.8069 101.614 48.4722 101.596ZM48.4722 100.696C48.5282 100.7 48.5842 100.689 48.6342 100.664C48.6842 100.638 48.7263 100.6 48.7559 100.552C48.817 100.444 48.8547 100.325 48.8665 100.201C48.8732 100.079 48.8732 99.9573 48.8665 99.8356C48.8789 99.69 48.8789 99.5436 48.8665 99.398C48.8584 99.2754 48.8205 99.1565 48.7559 99.0518C48.7251 99.006 48.6825 98.9693 48.6326 98.9456C48.5826 98.9219 48.5273 98.9121 48.4722 98.9172C48.4179 98.9125 48.3634 98.9225 48.3143 98.9462C48.2652 98.9699 48.2234 99.0064 48.1934 99.0518C48.13 99.1556 48.0905 99.2723 48.0779 99.3932C48.0702 99.5406 48.0702 99.6883 48.0779 99.8356C48.0715 99.959 48.0715 100.083 48.0779 100.206C48.0875 100.328 48.1254 100.447 48.1885 100.552C48.2186 100.599 48.2608 100.638 48.3107 100.663C48.3606 100.688 48.4164 100.7 48.4722 100.696ZM48.4722 97.9507C48.511 97.9511 48.5493 97.9426 48.5843 97.9259C48.6193 97.9093 48.6501 97.8849 48.6742 97.8545C48.7381 97.7665 48.7794 97.6641 48.7944 97.5564C48.8257 97.3981 48.8402 97.2369 48.8377 97.0755C48.8447 96.9104 48.8134 96.7458 48.7463 96.5947C48.7224 96.5419 48.6839 96.4972 48.6353 96.4656C48.5868 96.4341 48.5302 96.4171 48.4722 96.4168C48.413 96.4165 48.3548 96.433 48.3046 96.4645C48.2543 96.4961 48.2141 96.5412 48.1885 96.5947C48.1167 96.7444 48.0836 96.9097 48.0924 97.0755C48.0887 97.2367 48.1016 97.3979 48.1308 97.5564C48.1467 97.667 48.1915 97.7715 48.2607 97.8593C48.2872 97.889 48.3199 97.9126 48.3564 97.9283C48.3929 97.9441 48.4325 97.9517 48.4722 97.9507Z" fill="#031B89"/>
<path d="M44.4285 88.363C44.1208 88.3778 43.8141 88.3184 43.5341 88.1899C43.3162 88.0831 43.1451 87.9 43.0533 87.6754C42.9515 87.4086 42.9041 87.1242 42.9138 86.8388V86.7426H44.0486C44.0423 86.9211 44.0634 87.0994 44.1111 87.2715C44.1369 87.3308 44.1815 87.3799 44.238 87.4112C44.2945 87.4425 44.3598 87.4542 44.4237 87.4446C44.4703 87.4479 44.517 87.4405 44.5603 87.423C44.6037 87.4055 44.6424 87.3784 44.6737 87.3437C44.7383 87.2323 44.7746 87.1068 44.7795 86.9782C44.7795 86.8099 44.7795 86.5695 44.7795 86.2666V85.7424C44.7112 85.85 44.61 85.9326 44.491 85.978C44.3527 86.032 44.2065 86.0628 44.0582 86.0694C43.7869 86.0871 43.5184 86.005 43.3033 85.8386C43.107 85.6664 42.965 85.4409 42.8946 85.1894C42.81 84.9006 42.7679 84.6009 42.7696 84.2999C42.7617 83.9361 42.8153 83.5735 42.9282 83.2276C43.0207 82.9461 43.2011 82.7018 43.4427 82.5304C43.7305 82.3518 44.0663 82.2662 44.4044 82.2851C44.7407 82.2655 45.0754 82.3458 45.3661 82.5159C45.6053 82.6734 45.7887 82.9022 45.8903 83.1699C46.0041 83.4875 46.0595 83.8231 46.0537 84.1604V86.3627C46.0594 86.7105 46.014 87.0572 45.9191 87.3917C45.8408 87.6751 45.6719 87.925 45.4383 88.1034C45.1376 88.2947 44.7841 88.3856 44.4285 88.363ZM44.4285 85.1366C44.4713 85.1398 44.5143 85.1343 44.5548 85.1202C44.5953 85.1061 44.6325 85.0839 44.6641 85.0548C44.7157 85.0102 44.7625 84.9602 44.8035 84.9058V83.9441C44.8042 83.8185 44.7946 83.693 44.7747 83.569C44.7605 83.4686 44.7226 83.373 44.6641 83.2901C44.6338 83.2539 44.5953 83.2255 44.5518 83.2071C44.5083 83.1887 44.4611 83.1809 44.4141 83.1843C44.3675 83.1815 44.3209 83.1906 44.2789 83.2108C44.2368 83.231 44.2006 83.2616 44.1736 83.2997C44.1128 83.4022 44.0766 83.5174 44.0678 83.6363C44.0678 83.7854 44.0678 83.9681 44.0678 84.1845C44.0678 84.4009 44.0678 84.5403 44.0678 84.6653C44.0708 84.7839 44.1038 84.8997 44.164 85.0019C44.196 85.0442 44.2387 85.0772 44.2878 85.0975C44.3368 85.1178 44.3904 85.1246 44.4429 85.1173L44.4285 85.1366Z" fill="#031B89"/>
<path d="M47.4578 75.1928V70.4853C47.3988 70.5179 47.3377 70.5468 47.2751 70.5719L47.0635 70.6632L46.8424 70.7546C46.7702 70.7834 46.7077 70.8171 46.65 70.846V69.9371L46.876 69.8169L47.1886 69.6486C47.2992 69.5861 47.4049 69.5188 47.5011 69.4515C47.5809 69.4039 47.6551 69.3474 47.7223 69.2832H48.684V75.1928H47.4578Z" fill="#031B89"/>
<path d="M51.3383 75.3033C51.0275 75.3142 50.7197 75.2394 50.4487 75.0869C50.2151 74.9468 50.0278 74.7411 49.9102 74.4955C49.7842 74.2178 49.7217 73.9156 49.7274 73.6107V70.9324C49.7207 70.6207 49.7797 70.311 49.9005 70.0236C50.0066 69.7684 50.192 69.5542 50.4295 69.4129C50.7113 69.2705 51.0226 69.1963 51.3383 69.1963C51.654 69.1963 51.9653 69.2705 52.2471 69.4129C52.4822 69.557 52.6669 69.7703 52.776 70.0236C52.8929 70.312 52.9502 70.6212 52.9443 70.9324V73.6107C52.952 73.9142 52.8894 74.2153 52.7616 74.4907C52.6454 74.7386 52.4579 74.9462 52.223 75.0869C51.9535 75.2388 51.6475 75.3136 51.3383 75.3033ZM51.3383 74.2166C51.3871 74.221 51.4363 74.2127 51.4809 74.1925C51.5256 74.1722 51.5642 74.1408 51.5931 74.1012C51.6441 74.0233 51.6754 73.9342 51.6845 73.8415C51.6906 73.7551 51.6906 73.6683 51.6845 73.5819V70.9612C51.6845 70.8795 51.6845 70.7833 51.6845 70.6775C51.6776 70.5799 51.6461 70.4857 51.5931 70.4034C51.5651 70.3614 51.5261 70.328 51.4802 70.3068C51.4344 70.2856 51.3836 70.2774 51.3335 70.2832C51.2834 70.2785 51.233 70.2871 51.1874 70.3082C51.1418 70.3293 51.1026 70.3622 51.0738 70.4034C51.0229 70.4866 50.9916 70.5804 50.9825 70.6775C50.9825 70.7833 50.9825 70.8795 50.9825 70.9612V73.5819C50.9846 73.6688 50.9926 73.7556 51.0065 73.8415C51.0195 73.934 51.0523 74.0225 51.1027 74.1012C51.1295 74.1383 51.165 74.1682 51.2061 74.1883C51.2471 74.2084 51.2926 74.2181 51.3383 74.2166Z" fill="#031B89"/>
<path d="M59.2723 64.3832V59.6757L59.0896 59.7622L58.8732 59.8536L58.6568 59.945L58.4645 60.0315V59.1275C58.5174 59.0987 58.5895 59.0554 58.6905 59.0073L59.003 58.8342C59.1136 58.7717 59.2194 58.7044 59.3156 58.6419C59.3937 58.5901 59.4677 58.5322 59.5368 58.4688H60.4985V64.3832H59.2723Z" fill="#031B89"/>
<path d="M62.1091 64.3832V59.6757L61.9312 59.7622L61.7148 59.8536L61.4936 59.945L61.3013 60.0315V59.1275L61.5273 59.0073L61.8398 58.8342C61.9552 58.7717 62.0562 58.7044 62.1524 58.6419C62.2314 58.5913 62.3055 58.5333 62.3736 58.4688H63.3353V64.3832H62.1091Z" fill="#031B89"/>
<path d="M99.3894 35.3397C99.3894 35.3397 92.5084 31.6516 91.1669 30.6418C89.8253 29.632 90.3302 24.6024 89.657 21.9192C88.9838 19.2361 87.9548 17.8897 82.2519 16.7165C80.7468 16.4129 79.2269 16.1882 77.6983 16.0433L72.0339 16C70.3349 16.1369 68.6457 16.3761 66.9754 16.7165C61.2726 17.8897 60.2436 19.2361 59.5944 21.9192C58.9453 24.6024 59.4261 29.6128 58.0846 30.6418C56.743 31.6708 49.8621 35.3397 49.8621 35.3397" stroke="#031B89" stroke-width="0.25" stroke-linecap="round" stroke-linejoin="round"/>
</svg>
