<svg width="151" height="150" viewBox="0 0 151 150" fill="none" xmlns="http://www.w3.org/2000/svg">
<path d="M26.0132 80.8516H74.7414C76.3362 80.8516 77.8657 81.4851 78.9934 82.6128C80.1211 83.7405 80.7546 85.27 80.7546 86.8648V92.8397L92.7811 98.2497L80.7546 101.477V105.211C80.7546 106.806 80.1211 108.335 78.9934 109.463C77.8657 110.591 76.3362 111.224 74.7414 111.224H26.0132C24.4184 111.224 22.8889 110.591 21.7612 109.463C20.6335 108.335 20 106.806 20 105.211V86.8552C20.0025 85.2621 20.6372 83.735 21.7646 82.6094C22.892 81.4838 24.4201 80.8516 26.0132 80.8516Z" fill="#A9B5FF" stroke="#031B89" stroke-miterlimit="10"/>
<path d="M58.8754 96.5169C58.8754 97.0192 59.0244 97.5102 59.3037 97.9276C59.5829 98.3451 59.9798 98.6703 60.444 98.8621C60.9082 99.0539 61.4189 99.1036 61.9114 99.0049C62.4038 98.9062 62.8559 98.6636 63.2104 98.3078C63.5649 97.9519 63.8058 97.4989 63.9026 97.0061C63.9995 96.5132 63.9478 96.0027 63.7543 95.5392C63.5608 95.0758 63.2341 94.6801 62.8156 94.4025C62.397 94.1248 61.9055 93.9776 61.4032 93.9795C61.0705 93.9795 60.741 94.0452 60.4336 94.1728C60.1263 94.3005 59.8472 94.4875 59.6124 94.7233C59.3775 94.959 59.1915 95.2388 59.065 95.5466C58.9386 95.8544 58.8741 96.1842 58.8754 96.5169Z" fill="#031B89"/>
<path d="M47.8067 96.5169C47.8086 97.0165 47.9584 97.5043 48.2373 97.9187C48.5162 98.3331 48.9117 98.6556 49.3738 98.8455C49.8358 99.0354 50.3438 99.0841 50.8335 98.9854C51.3232 98.8868 51.7728 98.6453 52.1253 98.2914C52.4779 97.9375 52.7177 97.4871 52.8145 96.997C52.9112 96.5069 52.8606 95.9991 52.669 95.5378C52.4774 95.0764 52.1534 94.6822 51.7379 94.4049C51.3224 94.1275 50.8341 93.9795 50.3345 93.9795C50.0017 93.9795 49.6723 94.0452 49.3649 94.1728C49.0576 94.3005 48.7785 94.4875 48.5437 94.7233C48.3088 94.959 48.1228 95.2388 47.9963 95.5466C47.8699 95.8544 47.8054 96.1841 47.8067 96.5169Z" fill="#031B89"/>
<path d="M36.7279 96.5169C36.7279 97.0188 36.8767 97.5094 37.1555 97.9266C37.4344 98.3439 37.8306 98.6691 38.2943 98.8612C38.7579 99.0532 39.2681 99.1035 39.7604 99.0056C40.2526 98.9077 40.7047 98.666 41.0596 98.3111C41.4144 97.9563 41.6561 97.5041 41.754 97.0119C41.8519 96.5197 41.8017 96.0095 41.6096 95.5459C41.4176 95.0822 41.0923 94.6859 40.675 94.4071C40.2578 94.1283 39.7672 93.9795 39.2653 93.9795C38.5924 93.9795 37.947 94.2468 37.4711 94.7227C36.9952 95.1985 36.7279 95.8439 36.7279 96.5169Z" fill="#031B89"/>
<path d="M123.339 39.0002H74.6592C73.066 39.0002 71.538 39.6324 70.4106 40.758C69.2831 41.8837 68.6485 43.4107 68.646 45.0038V50.9883L56.6195 56.3983L68.646 59.6252V63.3595C68.646 64.9543 69.2795 66.4838 70.4072 67.6115C71.5349 68.7392 73.0644 69.3727 74.6592 69.3727H123.387C124.982 69.3727 126.512 68.7392 127.639 67.6115C128.767 66.4838 129.401 64.9543 129.401 63.3595V45.023C129.402 44.2285 129.246 43.4416 128.941 42.7078C128.636 41.974 128.189 41.3078 127.626 40.7478C127.062 40.1877 126.393 39.745 125.658 39.445C124.922 39.145 124.134 38.9939 123.339 39.0002Z" fill="#A9B5FF" stroke="#031B89" stroke-miterlimit="10"/>
<path d="M106.353 54.5365C106.353 55.0387 106.502 55.5297 106.781 55.9472C107.061 56.3647 107.458 56.6899 107.922 56.8816C108.386 57.0734 108.897 57.1231 109.389 57.0244C109.882 56.9257 110.334 56.6831 110.688 56.3273C111.043 55.9715 111.284 55.5184 111.38 55.0256C111.477 54.5328 111.426 54.0223 111.232 53.5588C111.039 53.0953 110.712 52.6997 110.293 52.422C109.875 52.1443 109.383 51.9971 108.881 51.999C108.548 51.999 108.219 52.0647 107.911 52.1924C107.604 52.32 107.325 52.5071 107.09 52.7428C106.855 52.9786 106.669 53.2584 106.543 53.5662C106.416 53.874 106.352 54.2037 106.353 54.5365Z" fill="#031B89"/>
<path d="M95.2844 54.5364C95.2863 55.036 95.4362 55.5238 95.7151 55.9382C95.994 56.3527 96.3895 56.6752 96.8515 56.865C97.3136 57.0549 97.8216 57.1036 98.3113 57.005C98.801 56.9064 99.2505 56.6648 99.6031 56.3109C99.9557 55.957 100.195 55.5066 100.292 55.0165C100.389 54.5264 100.338 54.0186 100.147 53.5573C99.9552 53.096 99.6312 52.7017 99.2157 52.4244C98.8002 52.147 98.3118 51.999 97.8123 51.999C97.4795 51.999 97.15 52.0647 96.8427 52.1924C96.5354 52.32 96.2563 52.507 96.0214 52.7428C95.7866 52.9785 95.6006 53.2583 95.4741 53.5661C95.3476 53.8739 95.2832 54.2037 95.2844 54.5364Z" fill="#031B89"/>
<path d="M84.2058 54.5364C84.2058 55.0383 84.3546 55.5289 84.6334 55.9462C84.9123 56.3634 85.3085 56.6887 85.7722 56.8807C86.2359 57.0728 86.7461 57.123 87.2383 57.0251C87.7305 56.9272 88.1826 56.6855 88.5375 56.3307C88.8923 55.9758 89.134 55.5237 89.2319 55.0315C89.3298 54.5393 89.2796 54.0291 89.0875 53.5654C88.8955 53.1018 88.5702 52.7055 88.1529 52.4266C87.7357 52.1478 87.2451 51.999 86.7432 51.999C86.0703 51.999 85.4249 52.2663 84.949 52.7422C84.4731 53.2181 84.2058 53.8635 84.2058 54.5364Z" fill="#031B89"/>
</svg>
