<svg width="32" height="32" viewBox="0 0 32 32" fill="none" xmlns="http://www.w3.org/2000/svg">
<path d="M27.9999 27.9997L28.7706 26.4583C29.1407 25.718 29.3334 24.9016 29.3333 24.0739V15.333C29.3333 14.2284 28.4378 13.333 27.3333 13.333V13.333C26.2287 13.333 25.3333 14.2284 25.3333 15.333V20.6663" stroke="#4F46E5" stroke-width="2" stroke-linecap="round" stroke-linejoin="round"/>
<path d="M18.6667 28.0003V24.1158C18.6667 23.5388 18.8539 22.9774 19.2001 22.5158L21.4373 19.5328C21.8138 19.0308 22.3896 18.7169 23.0155 18.6724C23.6414 18.628 24.2557 18.8573 24.6994 19.301V19.301C25.4611 20.0626 25.5468 21.2684 24.9005 22.1302L23.4979 24.0003" stroke="#4F46E5" stroke-width="2" stroke-linecap="round" stroke-linejoin="round"/>
<path d="M4.00008 27.9997L3.22941 26.4583C2.85927 25.718 2.66663 24.9016 2.66675 24.0739V15.333C2.66675 14.2284 3.56218 13.333 4.66675 13.333V13.333C5.77132 13.333 6.66675 14.2284 6.66675 15.333V20.6663" stroke="#4F46E5" stroke-width="2" stroke-linecap="round" stroke-linejoin="round"/>
<path d="M13.3334 28.0003V24.1158C13.3334 23.5388 13.1463 22.9774 12.8001 22.5158L10.5628 19.5328C10.1863 19.0308 9.61056 18.7169 8.98468 18.6724C8.3588 18.628 7.74441 18.8573 7.30073 19.301V19.301C6.53907 20.0626 6.45338 21.2684 7.09967 22.1302L8.50227 24.0003" stroke="#4F46E5" stroke-width="2" stroke-linecap="round" stroke-linejoin="round"/>
<path fill-rule="evenodd" clip-rule="evenodd" d="M22 8.93333C22 8.19695 21.403 7.6 20.6667 7.6H18.4V5.33333C18.4 4.59695 17.803 4 17.0667 4H14.9333C14.197 4 13.6 4.59695 13.6 5.33333V7.6H11.3333C10.597 7.6 10 8.19695 10 8.93333V11.0667C10 11.803 10.597 12.4 11.3333 12.4H13.6V14.6667C13.6 15.403 14.197 16 14.9333 16H17.0667C17.803 16 18.4 15.403 18.4 14.6667V12.4H20.6667C21.0203 12.4 21.3594 12.2595 21.6095 12.0095C21.8595 11.7594 22 11.4203 22 11.0667V8.93333Z" stroke="#4F46E5" stroke-width="2" stroke-linecap="round" stroke-linejoin="round"/>
</svg>
