<svg width="150" height="150" viewBox="0 0 150 150" fill="none" xmlns="http://www.w3.org/2000/svg">
<path d="M56.2292 128L59.9907 124.991L64.5942 121.311L77.9901 110.59L78.0927 110.659L78.1055 110.667L78.114 110.676L91.339 119.832L96.0579 123.097L99.9946 125.824L84.0383 57.3916L83.1193 57.4172L81.9482 57.4472L66.1415 57.8746L56.2292 128Z" fill="#031B89" stroke="#031B89" stroke-linecap="round" stroke-linejoin="round"/>
<path d="M59.9907 124.991L64.5942 121.31L70.3817 57.8743L78.1141 57.5537L68.0052 57.8743L59.9907 124.991Z" fill="white" stroke="#031B89" stroke-linecap="round" stroke-linejoin="round"/>
<path d="M81.9438 57.4301L81.9481 57.4472L91.3389 119.832L96.0578 123.097L83.1193 57.4172L83.115 57.3916L81.9438 57.4301Z" fill="white" stroke="#031B89" stroke-linecap="round" stroke-linejoin="round"/>
<path d="M49.4739 50.5086C49.4739 49.5644 47.9108 48.5517 48.004 47.6333C48.0972 46.7149 49.8382 46.0282 50.0288 45.127C50.2194 44.2258 48.8978 42.8869 49.1816 42.0028C49.4654 41.1188 51.2996 40.8312 51.6766 39.9815C52.0536 39.1318 51.0327 37.5568 51.4944 36.75C51.9562 35.9432 53.8115 36.0505 54.3495 35.2995C54.8874 34.5485 54.2182 32.7932 54.8324 32.1023C55.4466 31.4114 57.2426 31.9049 57.9246 31.2826C58.6066 30.6603 58.3059 28.8021 59.0514 28.2528C59.7969 27.7035 61.4447 28.5661 62.2411 28.0983C63.0374 27.6305 63.1222 25.7551 63.9651 25.3732C64.8081 24.9913 66.2356 26.1843 67.1167 25.8968C67.9978 25.6092 68.4595 23.7896 69.366 23.5965C70.2725 23.4034 71.4162 24.884 72.3312 24.7767C73.2461 24.6694 74.0721 23 74.9998 23C75.9275 23 76.7662 24.6823 77.6727 24.7767C78.5792 24.8711 79.7568 23.4034 80.6379 23.5965C81.519 23.7896 82.0188 25.6092 82.8872 25.8968C83.7556 26.1843 85.2043 24.9956 86.0387 25.3732C86.8732 25.7509 86.9876 27.6563 87.7628 28.0854C88.538 28.5146 90.2112 27.6906 90.9525 28.2399C91.6938 28.7892 91.3972 30.6475 92.0792 31.2697C92.7612 31.892 94.553 31.3985 95.1715 32.0894C95.7899 32.7804 95.1122 34.5356 95.6544 35.2866C96.1966 36.0376 98.0477 35.9303 98.5094 36.7371C98.9711 37.5439 97.9503 39.1146 98.3273 39.9686C98.7043 40.8226 100.538 41.1016 100.822 41.9942C101.106 42.8869 99.7844 44.1958 99.9751 45.1142C100.166 46.0325 101.902 46.6848 101.996 47.6204C102.089 48.5559 100.53 49.5516 100.53 50.4957C100.53 51.4398 102.093 52.4526 101.996 53.371C101.898 54.2894 100.166 54.9718 99.9751 55.8773C99.7844 56.7828 101.106 58.1174 100.822 58.9972C100.538 59.8769 98.7043 60.1731 98.3273 61.0185C97.9503 61.8639 98.9711 63.4475 98.5094 64.25C98.0477 65.0525 96.1924 64.9495 95.6544 65.7005C95.1164 66.4515 95.7857 68.2111 95.1715 68.902C94.5573 69.5929 92.7612 69.0951 92.0792 69.7217C91.3972 70.3482 91.698 72.2022 90.9525 72.7515C90.2069 73.3008 88.5591 72.4339 87.7628 72.9017C86.9664 73.3695 86.8817 75.2491 86.0387 75.6311C85.1958 76.013 83.764 74.8157 82.8872 75.1075C82.0103 75.3993 81.5444 77.2104 80.6379 77.4035C79.7314 77.5966 78.5877 76.116 77.6727 76.2233C76.7577 76.3306 75.9317 78 74.9998 78C74.0679 78 73.2377 76.322 72.3312 76.2233C71.4247 76.1246 70.2471 77.5966 69.366 77.4035C68.4849 77.2104 67.9851 75.3908 67.1167 75.1032C66.2483 74.8157 64.7996 76.0044 63.9651 75.6268C63.1306 75.2491 63.0332 73.3695 62.2411 72.9017C61.449 72.4339 59.7927 73.2965 59.0514 72.7472C58.3101 72.1979 58.6066 70.3439 57.9246 69.7431C57.2426 69.1423 55.4466 69.6144 54.8324 68.9235C54.2182 68.2325 54.8917 66.4773 54.3495 65.722C53.8073 64.9667 51.9562 65.0783 51.4944 64.2715C51.0327 63.4647 52.0536 61.894 51.6766 61.0399C51.2996 60.1859 49.4654 59.907 49.1816 59.0187C48.8978 58.1303 50.2194 56.8171 50.0288 55.8987C49.8382 54.9803 48.1014 54.328 48.0082 53.3925C47.915 52.4569 49.4739 51.4484 49.4739 50.5086Z" fill="white" stroke="#031B89" stroke-linecap="round" stroke-linejoin="round"/>
<path d="M75 72C87.1503 72 97 62.1503 97 50C97 37.8497 87.1503 28 75 28C62.8497 28 53 37.8497 53 50C53 62.1503 62.8497 72 75 72Z" fill="#C2F5E9" stroke="#031B89" stroke-linecap="round" stroke-linejoin="round"/>
<path d="M94.0639 54.9498C96.5766 44.5238 90.1616 34.0349 79.7355 31.5222C69.3095 29.0095 58.8206 35.4245 56.3079 45.8505C53.7952 56.2765 60.2103 66.7655 70.6363 69.2781C81.0623 71.7908 91.5512 65.3758 94.0639 54.9498Z" fill="#031B89"/>
</svg>
