<svg width="151" height="150" viewBox="0 0 151 150" fill="none" xmlns="http://www.w3.org/2000/svg">
<path d="M45.4613 87.4285C51.2531 81.6366 51.2531 72.2462 45.4613 66.4543C39.6694 60.6625 30.2789 60.6625 24.4871 66.4543C18.6952 72.2462 18.6952 81.6366 24.4871 87.4285C30.2789 93.2204 39.6694 93.2204 45.4613 87.4285Z" fill="#F8FAFC" stroke="#031B89" stroke-linecap="round" stroke-linejoin="round"/>
<path d="M47.3099 74.669C47.3098 75.6618 46.9985 76.6295 46.4198 77.4362C45.8411 78.2429 45.0241 78.8478 44.0837 79.1661L37.4587 81.3974L29.3955 84.1212C28.2077 84.5117 26.9137 84.4169 25.7955 83.8574C24.6773 83.298 23.8255 82.3192 23.4259 81.1345C23.0262 79.9497 23.111 78.655 23.6618 77.5325C24.2125 76.41 25.1847 75.5507 26.3663 75.1419L33.6907 72.6791L41.0495 70.2163C41.7614 69.9768 42.5201 69.9098 43.2629 70.0209C44.0058 70.1319 44.7117 70.4178 45.3225 70.8549C45.9332 71.2921 46.4315 71.8681 46.7762 72.5355C47.1208 73.2028 47.3021 73.9425 47.305 74.6936L47.3099 74.669Z" fill="#F8FAFC"/>
<path d="M47.3102 74.6681C47.3101 75.6608 46.9988 76.6286 46.42 77.4353C45.8413 78.2419 45.0243 78.8469 44.0839 79.1651L37.459 81.3964C37.2823 78.1326 35.9461 75.0392 33.6909 72.6732L41.0498 70.2104C41.7617 69.9709 42.5203 69.904 43.2632 70.015C44.006 70.126 44.7119 70.4119 45.3227 70.8491C45.9335 71.2863 46.4317 71.8622 46.7764 72.5296C47.1211 73.197 47.3024 73.9366 47.3053 74.6878L47.3102 74.6681Z" fill="#A9B5FF"/>
<path d="M47.3099 74.669C47.3098 75.6618 46.9985 76.6295 46.4198 77.4362C45.8411 78.2429 45.0241 78.8478 44.0837 79.1661L37.4587 81.3974L29.3955 84.1212C28.2077 84.5117 26.9137 84.4169 25.7955 83.8574C24.6773 83.298 23.8255 82.3192 23.4259 81.1345C23.0262 79.9497 23.111 78.655 23.6618 77.5325C24.2125 76.41 25.1847 75.5507 26.3663 75.1419L33.6907 72.6791L41.0495 70.2163C41.7614 69.9768 42.52 69.9098 43.2629 70.0209C44.0058 70.1319 44.7117 70.4178 45.3225 70.8549C45.9332 71.2921 46.4315 71.8681 46.7762 72.5355C47.1208 73.2028 47.3021 73.9425 47.305 74.6936L47.3099 74.669Z" stroke="#031B89" stroke-linecap="round" stroke-linejoin="round"/>
<path d="M37.459 81.3971C37.3082 78.1272 35.9682 75.0251 33.6909 72.6738" stroke="#031B89" stroke-linecap="round" stroke-linejoin="round"/>
<path d="M45.7236 72.9004C46.0346 73.4243 46.1917 74.0252 46.1768 74.6342" stroke="#F8FAFC" stroke-linecap="round" stroke-linejoin="round"/>
<path d="M35.562 73.3921L41.4727 71.4219C42.0029 71.2401 42.5667 71.178 43.1237 71.2402C43.6808 71.3024 44.2171 71.4872 44.6941 71.7815" stroke="#F8FAFC" stroke-linecap="round" stroke-linejoin="round"/>
<path d="M108.159 50.097C115.702 46.9045 119.229 38.2015 116.037 30.6583C112.844 23.1152 104.141 19.5883 96.598 22.7809C89.0549 25.9735 85.528 34.6764 88.7206 42.2196C91.9131 49.7627 100.616 53.2896 108.159 50.097Z" fill="#F8FAFC" stroke="#031B89" stroke-linecap="round" stroke-linejoin="round"/>
<path d="M107.493 42.6466L94.5588 38.317C93.4832 37.9554 92.5953 37.1816 92.0901 36.1656C91.5848 35.1497 91.5037 33.9746 91.8645 32.8988C92.226 31.8233 92.9998 30.9354 94.0158 30.4301C95.0318 29.9249 96.2068 29.8438 97.2826 30.2045L110.217 34.5292C111.292 34.8919 112.179 35.6659 112.684 36.6815C113.189 37.6971 113.271 38.8716 112.912 39.9474C112.55 41.023 111.776 41.9113 110.761 42.4173C109.745 42.9233 108.57 43.0058 107.493 42.6466Z" fill="#A9B5FF"/>
<path d="M98.0162 37.9717L100.183 32.7949" stroke="#031B89" stroke-linecap="round" stroke-linejoin="round"/>
<path d="M105.144 40.3417L107.301 35.1797" stroke="#031B89" stroke-linecap="round" stroke-linejoin="round"/>
<path d="M99.804 38.2781C100.046 38.2781 100.242 38.0819 100.242 37.8397C100.242 37.5976 100.046 37.4014 99.804 37.4014C99.5619 37.4014 99.3656 37.5976 99.3656 37.8397C99.3656 38.0819 99.5619 38.2781 99.804 38.2781Z" fill="#031B89"/>
<path d="M104.114 39.1308C104.114 39.2175 104.088 39.3022 104.04 39.3743C103.992 39.4464 103.924 39.5026 103.844 39.5358C103.763 39.569 103.675 39.5776 103.59 39.5607C103.505 39.5438 103.427 39.5021 103.366 39.4407C103.305 39.3794 103.263 39.3013 103.246 39.2163C103.229 39.1313 103.238 39.0431 103.271 38.963C103.304 38.8829 103.36 38.8144 103.432 38.7663C103.504 38.7181 103.589 38.6924 103.676 38.6924C103.792 38.6924 103.904 38.7386 103.986 38.8208C104.068 38.903 104.114 39.0145 104.114 39.1308Z" fill="#031B89"/>
<path d="M101.504 34.3777C101.746 34.3777 101.942 34.1815 101.942 33.9394C101.942 33.6972 101.746 33.501 101.504 33.501C101.262 33.501 101.066 33.6972 101.066 33.9394C101.066 34.1815 101.262 34.3777 101.504 34.3777Z" fill="#031B89"/>
<path d="M105.75 35.1894C105.75 35.2761 105.724 35.3608 105.676 35.4329C105.628 35.505 105.559 35.5612 105.479 35.5944C105.399 35.6275 105.311 35.6362 105.226 35.6193C105.141 35.6024 105.063 35.5606 105.001 35.4993C104.94 35.438 104.898 35.3599 104.881 35.2749C104.864 35.1898 104.873 35.1017 104.906 35.0216C104.939 34.9415 104.996 34.873 105.068 34.8249C105.14 34.7767 105.225 34.751 105.311 34.751C105.428 34.751 105.539 34.7972 105.621 34.8794C105.703 34.9616 105.75 35.0731 105.75 35.1894Z" fill="#031B89"/>
<path d="M107.493 42.6466L94.5588 38.317C93.4832 37.9554 92.5953 37.1816 92.0901 36.1656C91.5848 35.1497 91.5037 33.9746 91.8645 32.8988C92.226 31.8233 92.9998 30.9354 94.0158 30.4301C95.0318 29.9249 96.2068 29.8438 97.2826 30.2045L110.217 34.5292C111.292 34.8919 112.179 35.6659 112.684 36.6815C113.189 37.6971 113.271 38.8716 112.912 39.9474C112.55 41.023 111.776 41.9113 110.761 42.4173C109.745 42.9233 108.57 43.0058 107.493 42.6466Z" stroke="#031B89" stroke-linecap="round" stroke-linejoin="round"/>
<path d="M53.6933 50.4637C61.8842 50.4637 68.5243 43.8237 68.5243 35.6327C68.5243 27.4418 61.8842 20.8018 53.6933 20.8018C45.5024 20.8018 38.8623 27.4418 38.8623 35.6327C38.8623 43.8237 45.5024 50.4637 53.6933 50.4637Z" fill="#F8FAFC" stroke="#031B89" stroke-linecap="round" stroke-linejoin="round"/>
<path d="M62.1899 36.0119V42.0901C62.1899 43.6318 61.2047 44.8829 59.998 44.8829H47.3884C46.1767 44.8829 45.1965 43.6318 45.1965 42.0901V36.0119C45.1965 34.4702 46.1817 33.2191 47.3884 33.2191H49.4621V29.6924H57.8356V33.2191H59.9832C61.2047 33.2191 62.1899 34.4702 62.1899 36.0119Z" fill="#F8FAFC" stroke="#031B89" stroke-linecap="round" stroke-linejoin="round"/>
<path d="M62.1849 36.7119H45.1965V40.48H62.1849V36.7119Z" fill="#A9B5FF" stroke="#031B89" stroke-miterlimit="10"/>
<path d="M50.62 25.5654H56.8459C57.5488 25.5654 58.2228 25.8446 58.7198 26.3416C59.2167 26.8386 59.4959 27.5126 59.4959 28.2154V30.9688H47.9651V28.2154C47.9651 27.867 48.0338 27.522 48.1673 27.2002C48.3008 26.8783 48.4964 26.586 48.743 26.3399C48.9896 26.0937 49.2823 25.8986 49.6044 25.7657C49.9265 25.6329 50.2716 25.5648 50.62 25.5654Z" fill="#A9B5FF" stroke="#031B89" stroke-miterlimit="10"/>
<path d="M49.9795 25.7324V30.9683" stroke="#031B89" stroke-linecap="round" stroke-linejoin="round"/>
<path d="M52.7034 25.5654V30.9688" stroke="#031B89" stroke-linecap="round" stroke-linejoin="round"/>
<path d="M55.427 25.5654V30.9688" stroke="#031B89" stroke-linecap="round" stroke-linejoin="round"/>
<path d="M58.1514 25.8701V30.9681" stroke="#031B89" stroke-linecap="round" stroke-linejoin="round"/>
<path d="M72.6471 116.71C73.9722 108.627 68.4938 101 60.4108 99.6749C52.3277 98.3498 44.701 103.828 43.3759 111.911C42.0508 119.994 47.5292 127.621 55.6122 128.946C63.6952 130.271 71.322 124.793 72.6471 116.71Z" fill="#F8FAFC" stroke="#031B89" stroke-linecap="round" stroke-linejoin="round"/>
<path d="M65.5348 118.138C67.1502 114.722 64.9291 110.283 60.5738 108.224C56.2186 106.164 51.3784 107.264 49.7631 110.679C48.1477 114.095 50.3688 118.534 54.724 120.594C59.0793 122.653 63.9194 121.554 65.5348 118.138Z" fill="#A9B5FF" stroke="#031B89" stroke-linecap="round" stroke-linejoin="round"/>
<path d="M66.0737 116.975C67.589 113.771 65.2869 109.503 60.9316 107.444C56.5764 105.384 51.8173 106.312 50.3019 109.516C48.7866 112.721 51.0887 116.988 55.444 119.048C59.7992 121.107 64.5583 120.179 66.0737 116.975Z" fill="#A9B5FF" stroke="#031B89" stroke-linecap="round" stroke-linejoin="round"/>
<path d="M60.703 108.861L55.3193 116.432" stroke="#031B89" stroke-linecap="round" stroke-linejoin="round"/>
<path d="M57.4622 107.635C58.1837 107.732 58.8945 107.897 59.5851 108.127" stroke="#F8FAFC" stroke-linecap="round" stroke-linejoin="round"/>
<path d="M52.6797 114.763C52.6797 114.763 49.9312 111.753 52.6157 108.852C53.2352 108.221 54.0419 107.806 54.9159 107.67" stroke="#F8FAFC" stroke-linecap="round" stroke-linejoin="round"/>
<path d="M117.608 117.364C118.933 109.281 113.455 101.654 105.372 100.329C97.2886 99.0041 89.6618 104.483 88.3367 112.566C87.0116 120.649 92.49 128.275 100.573 129.6C108.656 130.926 116.283 125.447 117.608 117.364Z" fill="#F8FAFC" stroke="#031B89" stroke-linecap="round" stroke-linejoin="round"/>
<path d="M111.485 116.453C111.371 116.615 111.258 116.783 111.14 116.945C108.918 120.024 105.495 122.895 102.958 123.462V123.422C100.496 122.871 97.1807 120.137 94.9593 117.152C94.8362 116.989 94.7179 116.822 94.6047 116.659C92.4669 113.596 91.5656 110.379 93.9446 109.049C98.7816 106.35 102.958 112.138 102.958 112.138C102.958 112.138 107.145 106.394 111.972 109.089C114.287 110.379 113.494 113.463 111.485 116.453Z" fill="#A9B5FF" stroke="#031B89" stroke-miterlimit="10"/>
<path d="M111.485 116.452C111.371 116.615 111.258 116.782 111.14 116.945H109.918L108.519 118.792L107.569 113.315L106.091 117.038H102.599L100.811 120.018L99.4317 113.985L97.6536 117.132H94.9593C94.8361 116.97 94.7179 116.802 94.6046 116.64H97.3679L99.6287 112.635L101.018 118.718L102.333 116.526H105.781L107.751 111.482L108.805 117.57L109.667 116.433L111.485 116.452Z" fill="#F8FAFC"/>
<path d="M121.75 91.6239C129.941 91.6239 136.581 84.9838 136.581 76.7929C136.581 68.602 129.941 61.9619 121.75 61.9619C113.559 61.9619 106.919 68.602 106.919 76.7929C106.919 84.9838 113.559 91.6239 121.75 91.6239Z" fill="#F8FAFC" stroke="#031B89" stroke-linecap="round" stroke-linejoin="round"/>
<path d="M120.636 69.9357C120.779 70.2559 119.888 70.9652 118.666 71.5218C117.445 72.0784 116.302 72.2705 116.159 71.9454C116.016 71.6203 116.903 70.9159 118.129 70.3593C119.356 69.8027 120.489 69.6304 120.636 69.9357Z" fill="#F8FAFC" stroke="#031B89" stroke-linecap="round" stroke-linejoin="round"/>
<path d="M127.311 83.6917L122.873 85.8393L118.893 77.6431L116.145 71.9787L120.583 69.8262L123.262 75.3527L127.311 83.6917Z" fill="#F8FAFC" stroke="#031B89" stroke-linecap="round" stroke-linejoin="round"/>
<path d="M116.967 73.6689L118.893 72.7773L116.967 73.6689Z" fill="#A9B5FF"/>
<path d="M116.967 73.6689L118.893 72.7773" stroke="#031B89" stroke-linecap="round" stroke-linejoin="round"/>
<path d="M117.804 75.4531L119.73 74.5615L117.804 75.4531Z" fill="#A9B5FF"/>
<path d="M117.804 75.4531L119.73 74.5615" stroke="#031B89" stroke-linecap="round" stroke-linejoin="round"/>
<path d="M124.572 85.0175L126.862 88.0221L125.72 84.4609L124.572 85.0175Z" fill="#F8FAFC" stroke="#031B89" stroke-linecap="round" stroke-linejoin="round"/>
<path d="M127.311 83.6926C126.272 84.7328 124.946 85.4393 123.504 85.7219L122.873 85.8401L118.893 77.6439L123.262 75.3535L127.311 83.6926Z" fill="#A9B5FF" stroke="#031B89" stroke-miterlimit="10"/>
<path d="M119.73 79.2016L121.543 78.3643" stroke="#031B89" stroke-linecap="round" stroke-linejoin="round"/>
<path d="M120.726 81.1067L122.504 80.2939L120.726 81.1067Z" fill="#A9B5FF"/>
<path d="M120.726 81.1067L122.504 80.2939" stroke="#031B89" stroke-linecap="round" stroke-linejoin="round"/>
<path d="M117.682 71.2311L116.278 68.0738L117.381 67.4482L118.893 70.645L117.682 71.2311Z" fill="#F8FAFC" stroke="#031B89" stroke-linecap="round" stroke-linejoin="round"/>
<path d="M120.09 67.065L119.755 66.3262L113.844 68.9712L114.179 69.7101C114.317 70.0253 115.75 69.6805 117.385 68.9515C119.021 68.2225 120.227 67.3753 120.09 67.065Z" fill="#F8FAFC" stroke="#031B89" stroke-linecap="round" stroke-linejoin="round"/>
<path d="M119.755 66.3249C119.617 66.0146 118.179 66.3544 116.549 67.0834C114.918 67.8124 113.707 68.6596 113.844 68.9699C113.982 69.2802 115.421 68.9404 117.051 68.2064C118.681 67.4725 119.893 66.6352 119.755 66.3249Z" fill="#F8FAFC" stroke="#031B89" stroke-linecap="round" stroke-linejoin="round"/>
</svg>
