<svg width="150" height="150" viewBox="0 0 150 150" fill="none" xmlns="http://www.w3.org/2000/svg">
<path d="M79.3033 22C71.9219 28.8764 53.0298 35.825 31 50.5576C31 50.5576 32.3765 100.358 79.3033 127.581V22Z" fill="#C2F5E9" stroke="#031B89" stroke-linecap="round" stroke-linejoin="round"/>
<path d="M79.3032 22C86.6846 28.8764 105.577 35.825 127.606 50.5576C127.606 50.5576 126.23 100.358 79.3032 127.581V22Z" fill="#031B89" stroke="#031B89" stroke-linecap="round" stroke-linejoin="round"/>
<path d="M79.3031 26.2373C70.3951 32.4225 54.9532 38.3131 34.5403 51.9698C34.5403 51.9698 35.8206 98.1151 79.3031 123.337C122.786 98.1151 124.06 51.9998 124.06 51.9998C103.653 38.3131 88.2834 32.4225 79.3031 26.2373Z" fill="#031B89" stroke="#031B89" stroke-linecap="round" stroke-linejoin="round"/>
<path d="M124.06 52.0001C103.623 38.3434 88.2834 32.4528 79.3032 26.2676V123.337C122.786 98.1154 124.06 52.0001 124.06 52.0001Z" fill="#C2F5E9" stroke="#031B89" stroke-linecap="round" stroke-linejoin="round"/>
<path d="M96.2597 72.7612H62.8994C62.5395 72.7652 62.1823 72.6982 61.8482 72.5641C61.5141 72.43 61.2097 72.2314 60.9524 71.9797C60.6951 71.728 60.4899 71.428 60.3485 71.097C60.2071 70.7659 60.1323 70.4103 60.1284 70.0503V54.6685C60.1284 44.1676 68.8502 35.6201 79.5796 35.6201C90.3089 35.6201 99.0547 44.1856 99.0547 54.6685V70.0323C99.0524 70.3956 98.978 70.7548 98.8359 71.0892C98.6938 71.4235 98.4868 71.7264 98.2268 71.9802C97.9669 72.234 97.6592 72.4337 97.3215 72.5678C96.9838 72.7018 96.6229 72.7676 96.2597 72.7612ZM65.6704 67.3514H93.4887V54.6685C93.3823 51.0504 91.8702 47.6161 89.2734 45.0945C86.6765 42.5728 83.1993 41.1623 79.5796 41.1623C75.9598 41.1623 72.4826 42.5728 69.8857 45.0945C67.2889 47.6161 65.7768 51.0504 65.6704 54.6685V67.3514Z" fill="#FAFAFA" stroke="#031B89" stroke-linecap="round" stroke-linejoin="round"/>
<path d="M100.54 65.3506H58.0669V100.484H100.54V65.3506Z" fill="#FAFAFA" stroke="#031B89" stroke-linecap="round" stroke-linejoin="round"/>
<path d="M83.7212 79.9381C83.678 78.7403 83.1718 77.6059 82.3091 76.7737C81.4464 75.9416 80.2945 75.4766 79.0958 75.4766C77.8972 75.4766 76.7453 75.9416 75.8826 76.7737C75.0199 77.6059 74.5136 78.7403 74.4705 79.9381C74.4715 80.7582 74.6958 81.5624 75.1194 82.2645C75.543 82.9666 76.1499 83.5401 76.8748 83.9234L76.0994 91.9058H82.0441L81.2687 83.9234C82.0026 83.5466 82.6193 82.9759 83.0516 82.2733C83.484 81.5707 83.7156 80.7631 83.7212 79.9381Z" fill="#031B89" stroke="#031B89" stroke-linecap="round" stroke-linejoin="round"/>
</svg>
